<mxfile host="65bd71144e">
    <diagram id="WI9T0HZ2pTsCkuznbFz-" name="Page-1">
        <mxGraphModel dx="355" dy="801" grid="0" gridSize="6" guides="1" tooltips="1" connect="1" arrows="1" fold="1" page="0" pageScale="1" pageWidth="1169" pageHeight="827" background="#FFFFFF" math="0" shadow="0">
            <root>
                <mxCell id="0"/>
                <mxCell id="1" parent="0"/>
                <mxCell id="126" value="" style="rounded=0;whiteSpace=wrap;html=1;labelBackgroundColor=none;fillStyle=auto;strokeWidth=4;fontFamily=Helvetica;fontSize=12;fillColor=none;strokeColor=#000000;" vertex="1" parent="1">
                    <mxGeometry x="672" y="-142" width="1392" height="1054" as="geometry"/>
                </mxCell>
                <mxCell id="103" value="" style="rounded=0;whiteSpace=wrap;html=1;dashed=1;dashPattern=1 1;labelBackgroundColor=none;fillStyle=auto;strokeColor=#0000FF;strokeWidth=2;fontFamily=Helvetica;fontSize=12;fontColor=#000000;fillColor=#CCE5FF;perimeterSpacing=0;gradientColor=none;glass=0;shadow=0;" vertex="1" parent="1">
                    <mxGeometry x="744" y="38" width="864" height="802" as="geometry"/>
                </mxCell>
                <mxCell id="69" value="" style="rounded=1;whiteSpace=wrap;html=1;dashed=1;dashPattern=1 1;labelBackgroundColor=none;fillStyle=auto;strokeColor=#333333;strokeWidth=1;fontFamily=Helvetica;fontSize=12;fontColor=#000000;fillColor=#99CCFF;" vertex="1" parent="1">
                    <mxGeometry x="1248.5" y="55" width="284.5" height="759" as="geometry"/>
                </mxCell>
                <mxCell id="17" value="" style="group;movable=1;resizable=1;rotatable=1;deletable=1;editable=1;connectable=1;" vertex="1" connectable="0" parent="1">
                    <mxGeometry x="1273" y="384" width="239" height="193" as="geometry"/>
                </mxCell>
                <mxCell id="13" value="" style="rounded=1;whiteSpace=wrap;html=1;dashed=1;dashPattern=1 1;labelBackgroundColor=none;fillStyle=auto;strokeColor=#333333;fontColor=#000000;fillColor=#E6E6E6;container=0;movable=1;resizable=1;rotatable=1;deletable=1;editable=1;connectable=1;strokeWidth=2;opacity=50;" vertex="1" parent="17">
                    <mxGeometry y="30.004134078212303" width="239" height="160.0558659217877" as="geometry"/>
                </mxCell>
                <mxCell id="15" value="&lt;font color=&quot;#000000&quot;&gt;&lt;b&gt;AppPoolSubnet&lt;br&gt;10.2.0.0/16&lt;/b&gt;&lt;br&gt;&lt;/font&gt;" style="text;html=1;strokeColor=none;fillColor=none;align=center;verticalAlign=middle;whiteSpace=wrap;rounded=0;container=0;movable=1;resizable=1;rotatable=1;deletable=1;editable=1;connectable=1;" vertex="1" parent="17">
                    <mxGeometry x="68.8030303030303" width="54.31818181818181" height="30" as="geometry"/>
                </mxCell>
                <mxCell id="12" value="" style="shape=image;verticalLabelPosition=bottom;labelBackgroundColor=none;verticalAlign=top;aspect=fixed;imageAspect=0;image=data:image/png,iVBORw0KGgoAAAANSUhEUgAAAV8AAAFfCAYAAADptc+BAAAAAXNSR0IArs4c6QAAAARnQU1BAACxjwv8YQUAAAAJcEhZcwAAFxEAABcRAcom8z8AAE19SURBVHhe7b0JeBzlle5fTmAyM1lhgEluIATHwbbWVu/dkiNCNsNlmf/cmCSTsOTeJ5BMgDtz2eJ4aUJCIJMYMOqurWWbzebGN0AwjrEkE9nq2lpWAgSzmczYnmBiMjYBzGIbWf0/56sqWZgOllTdspb39zzfI6mtrpa7q9463/udcz4JAAAAAAAAAAAAAAAAAAAAAAAAAAAAAAAAAAAAAAAAAAAAAAAAAAAAAAAAAAAAAAAAAAAAAAAAAAAAAAAAAAAAAAAAAAAAAAAAAAAAAAAAAAAAAAAAAAAAAAAAAAAAAAAAAAAAAAAAAAAAAAAAAAAAAAAAAAAAAAAAAAAAAAAAAAAAAAAAAAAAAAAAAAAAAAAAAAAAAAAAAAAAAAAAAAAAAAAAAAAAAAAAAAAAAAAAAAAAAAAAAAAAAAAAAAAAAAAAAAAAAAAAAAAAAAAAAAAAAAAAAAAAAAAAAAAAAAAAAAAAAAAAAAAAAAAAAAAAAAAAAAAAAAAAAAAAR5H4UudDoaU9J6Zk86SU3EHDPKllWc+JySXW8TWZ1X/l/RoAAIBKENH6jk1lzVOTmvX5uNLztbhsXhiXey5MaeaFSd34elwxzo8rhUYWZ1eES9O8p4JhMG/16vdeSu+xP/j9PvzneatL7/V+HQAwFchkSu9JZq0ZJK4XJVUjl9DMNQnV7OCR1MzOpGqui6vmPfT491Jy8UspubeOo2N64nu8Q4B3Ib5064eSeWtGIm83xJc5jfx16ODHWuhri148Pblk/fHe0wAAkxqKtuboj50W15wLKepdRYL778l88c8ktHsTmrWXxPe1hGa/St//kf7NTqqWTl+vS+kmibB5EoV0iNbehVat74TmvH0GvW9XNOWMG2qzxo8bcoUb6Wb2o5Bs/mh6W+HG2TnjprRm/XDOMudf0u3OF2Mrih/1ng4AmIy0ZrqPicq905Nq8WIS1JUp3dpGAlxKLe8rpXTn0Mj3llLtxRIJyJsp1dxGkXA3fV2UkJ3IjKXr3ucdDgyFZgWfu/Opv0vpxS8ldOunEcXc2CSbT9bnjGdDucIzcdV4OqQYT3+6rfAMPbY1pllPNammEVbNtrTunB/Ldn9UKsHaAWDykSm9J61u/lRcsS5Kac7dFNluT+rF/nT7ZhJaEts8i64/ikJ8U/RvJLwHSYT/QNHwnQnZPq9eLhznHREMIUIRLwtvSrP/LayYv2nMGa9HNOetuGL2x2jQza4/RoNEuT+uWv1N9G8zcsYbM3PGFvq3tiZ6b0/9NxJgAMDkgSPelmUU8SrORUnF/L8kpjuSuj2QWkbCq9sljn7LDVeEe0tJ3XmTxHpzUrEWh1UrTELzt96hAUWr9H58OJG3z4gqxs+aFOO3IdV5I8o3rmV9pTTdxNJ8c6PBX3k002Nx+vdafXNphmztn5U1nmxSTDmpFs6ty2/4e+/IAICJDK+oR0l4U6r5zYRqraIIdrsQVhZV7S8Lrz9EJEy/S+K7m4T7Pnr+VxO32RAID85qCNOMIqWb36XItrtRpoiXhZffN76x+UO814d+TovvnVKdXixNbyscqFWsJ5pkIzc7a5x/Gr+/WNwEYAIjrAZDWA0J1V6ZUDjiLfb7NkM5sX3HYA+YxCShmfuSmtlDx/nOnNymU+BPurR2dx/TrBdrk7qVSajmFhLggaQ3o0iVez+9wf/GI06fQwMJ8Kdla99pbYUnT28z2ma2GefNUjd9zHsJAMBEwl1cK0xPkvAmVeteEfF6VoMbiZUXhXcMsQBX5Mh3Hw0rqRpXNN/W9QmIrwuLb7LNqg8rxg9jivE0e7tsNQz3PW7W6Su9x7V6b+m0rLn/k7f3bPlU2yZ5Zs469zRYEABMLDiPV3i8nNWg2feIxTXNGnD92xEILw9ffFUSX90y6bHLEfkeIkPim5LNuvq2nhsaZeMpinzfYl93JO+ziJDp9+u1YumTtxcOUAT8xMxsT/b0rHG+uwiH9xqAcU+m5FoNXKnGVgNFvjuS+WK/WFwbrtUwdCDyfVcGxTdb+EF9znhytOKbpgg4rhdLjRQBz5KtfZ9uKzw58/ae7MxbN573iVtgQQAwruEp8Jy7nNOSqnUxieS9Kd3ZltRGYTUMHSTY6WV9LL77fc+3VXdOhvi6sPiG2zbW17T1/LAhV3g6rhj9zaOZYdAQPjDd7MJCgM39p7f1bKnJ9ihRzT4vli0iDxiAcQldmMJqyJPwatbdNNjjPTgqq8Ef9Dw331dkO/wpoRir41pxXkp+7CTvVac87K3Pus2sq20zbmhwbQeROz3a9zzNX+m5TRQFz872HKiXzS303mdpJvMPqIQDYJwxb97q90aXFaan8/Y36EJdlVBJePPOwdSyXhFJlbvIhzOEVSEWj5zddNwNcdW6Jqlurm9dse2vvZee8rD41ubs2SHN/F6TbP4mpBgHYzRTEDeuMu/pkYaIfmkk8sVSmEa9au0jUX+S3vsczWjOnQULAoDxAVsNLXJhekI3LqGLd1XSLRl2rYYhF/WIBgsHXfgi4lXNPQnd7opr5tVRzYw13NXxfu+lAZEpZd4TVjd/jN73C2KKdW+jXNgZ0YtixpEejcfuDSHcXgRcJ5v7Q4r1RFQx5YhinJ/IIw8YgKNKhi5ATvCnyPSihGbeQxftdvpe5PHyQtnhF/Rwhyu8vMhm76GfO0l8r0urxWjy5//5N95LgyFwe8h0e+9MEuBvxzTzvrhq7xQ3MP4cyry/Ixr0OTbpvaWabOFAgyzyiNtYgGfd8jAiYACOBqJyjSJeikj97mQ7XKuBE/xHKbwsGMJqYI9XCO+GuG5dk1xuhc9Zg5Lid2Pu0q3vo4h0dirvXJpUrQfo83ghqtmlWN713EdjQfAQFgRFv010nHrV3leXM56sbyvIDTkuRUalIQBjCvuMc+567LSEYlySUs2VdJG63cmCRFoiUvOtBjfiTWnO1bF2gyJeCxHvMIho2rG+AMdV8xehnPFCk+ocjNNMgt/fd7znwxyDFgQJ8GyKgGuyxhN1bZvk+uym8+u4FBlZEACMAZmMm8fb7lzIBRR0cW5P5nvfCmw1COEVIrGbfu6kyO26RL4QSS6B8I6EmtVb/iqlmbPYgqBZyX1h1X4+pFgUAdP7W+Z9H87g57kRMKehFUs1irlvVrbwZL1cuL1Btc4VaWgAgOrhlwyLRuiq4ZYMe1bDqCMrEfG6WQ2+1UDicTVNndG9bJSwB8wC3KLb34qq5v1NOfOFmO4MpNnSyQeNgB3XglCs/XW5ni112UKuQTbPQTc0AKoEd89qkXunJxT7Ei/idbMaRMQbQHg5IuPm6aoprAaK2K5JtxejiHiD0dpdOoYtCHpPL6Mb2S/oM9vJN8qkO7so/3kMY/gCHGUBzhUOkPg+0ZDryYYUAw3ZAag4Xncyt2RYeLyiEToL76hKhr0hnu+K9+6EanfRuC4hFyKIeCsDWxCcBdGsOZelNPv+mGY/H1btUpzfc37/D/s8hjN8C4JvmryY16BY+xpyBS5rbmvOW+eiEAOACsF5vHHdOY0iUt7s8t4ECW9K5zxeN5G/3AV6xCGsBld46XgviQIKzbyatwmC8FYW34JICwvCuD8kmy+ENWcgzrMN/hzKfT7DGEMj4CbF2h9WzC1JlRuyW+eeiSwIAAIi8niNT9EFdahkuAJWQ9LL46VozLUaNOPamGrAaqgWmdIxKa1vFt08vx3XrPtYgJtUiwSYPoPRfo7e4OezADfmjAMR1XqCZkZiT7hE/ncswLAgABgxpZIQXpHVwDtQ8NY/+d7Rdyfzhoh46WJlqyGlml1JxbiWHmtCxFtdhAUhGzOb89ZlUcV6IKSYO0mAS/E852UHjIBJxKM0mlR7X5NsPEmPZ5vzvciCAGCk8GINb/0jSob9RuhBu5PxBS6sBu7N6y6uJVT7KvZ4Ubk2NkQu7Ts2tcK1ILgSrlE2d4Y15yB7wGLX6HKf2zCGa0G4ETCJ+v6IbG5p1i358+3cDQ39gAEYHry4dsfmTyV0+xKxuOZudul1JxttxOtnNbDVQMKrWh30+LWJvIM83jGG0wUT+Y2z01yKrFq/CCvWzhBHwLqwgcp8diMY7AHTcdiCSOetLV9aUWw7YzlvS48IGIB3hdPJonLv9Hi7c2FSp4hXWA3FCnYns3fTFLdLlAwjj/eoUbN6tciC4Eq4mGI8EBYWhJsFEXwRji2IXhJhZx8J/JOfX+HkPtdu/vdZbcW/814eADAU0QidsxpU6+K4atxLUUzFu5MlNbMzxVYDIt6jDn/enAfcopqXciVcSLZ2NrEFwZ9XBSyIiN5bCsvm/jkUAX/h7r7lX1hRvOSLy3tP8V4eACDw8ng5nYxE8h4v4nW7kwVZXBPC+3argZvkoB/v+OBQGpr17bhi3tekmqIUWQhwmc9zRIMEPKJapbBq7T/jnsf3fOmOov2FFfYlp/+s+wTv5QGY2vjdySgK+gZdNKtoDO4yHNxqENPY3UnNEHm8qTuR1TDeqMmsFr0gRB4wZ0FwMx7NJgF20wmDRMAJGhE6TvO9z5Sa89aBZt26K6H1nkXnGvKAwdRG9GpYVhBb/ySUKnQn44hXdCczr6bIGt3JxinuIpw9u8XrhtbIHnAFLYhofnOpUTYOcCEG74hB58M/tHIlHBqyg6kIN0Jnq4H78aZ4e3eF+/EWRXeyipUM62YXjet4cQ0e7/iG84A/2947ky0IroTjbmgiD5g/zzKf83AGP28wAlatgZBivRlWjKfo37Lpdvu8OepmNGQHUwuOdHjrH/Z4xeKaOjSPd5TCSxEOb1nOg7uTcckwR7zcFhJWw8TA9YD7hAVBEfD9IZn7AduiFDmoBSHS0Og4dLz9Ydl8Mq6YCveC8CrhAJj8iHQyUUDhdycTWQ1+tFr24jnSEOlJNEXlSie6aPckeHFNta6JahtjsBomFr4F0axZl8W4Ibts7gwpLMBsQYw+D9gVYK8UWTYORBRrS1I1cinN+QfhAaMbGpjUeNu78+JaQrVXJsTWP8V+kccbwGrgaJd93rBq7m7I9XRFVLYaNiOPd4LCFkSraMhufJsjYIpWn29S3C2JuBBjNBEwP4cH74rMVkZCd/YlVVNYEMl877lhFbsig0kIZzR84a7H3s+9GkKKdVFU5V2GKeIV3cmClQzTFJWnlP1hxdhTlytsmNm26eqmtu7oORDeCY2wIFa4DdlZgLkUmS0IIcD0mY9GgP3BN3pu7E7n3wH6eQt9lWkWdh4iYDCpaM12fyCmF09PqcXPNCqFyxpy5j0R1SDhtUXl2qiFlwZHu+nlvymFFfOV2lxPJ41rY2KXYVgNkwEuxGABTuady+Kq5VkQXilygPOGh8iiYKtLNYUAJ3gRTvcasgMw0UkusY5P684ciiiupAvn9sZcYT0J5X/GNTtwI3SOeNN3PFqK3f1UqTZr7KjNFhY25eyGc9bsRMQ7ifCzIOgzv4xLkVmAOQuiMhEwiTgHAHlnX1Izn6TjtaV08xyRhgbARKV1xaMfSbc7n40r1k0RxdwYUsx/D8vGn2l6JzzachfDcAZfcG5Gg1WK6PYrdfm+f5+VNZZHlJ7mS/v6jvVeHkwi/C2JhAWhmPe5hRjOwYQQ4NHnAYvBAu5ZEHRuPkHHhwUBJi71cuE4uijOTGnmjRTpOnSxvBbR6WKhk11cLAGmjCJaoUFCvqdWNjvrNGdxWDfmfOGnHe/3Xh5MQtgDbuWG7FyKfLgFEbAbGp+TSRLgmGoeiKrWloRutqX9PeEAmCi0yL87rjlvn0ECScJr9Dap9l5O70ku6wtkM/AQiyR0LJp27q6TjQ2zs5uuacr3NGRoauq9PJjE1GTcPeESqnlpSDYeqMsaL4QUu5RgCyugBcFpigk6vxL5orAgkqqVi+nmOSICBmC803jIarhZRLyKRREvndSVmBqS6LLdQNHJnrpsT9fsXOFq3vrny1hcm1JwHnBtbuNsml1dSuJ7X1228EJIswOXIovhWxAUAQsLggQYFgQY97hWg3kmTQFvDMtmsSFnvB6lC0JUrAWwGXi4VoNbuRbXrE7O4w3LaAs5VeFmPPVy78xa2fhObbbn/pqcubNOMUsxPk/4fDns/BnJEOeaWJOw99PPW+icuz2hGedhEQ6MS1pIeBP5zWfEFeNmEt7NTar9WoSF17sYDj/Bhz28SGSwV4PilgzPUa0w8ninNuwB191uzqrPGt+qaSs8MJMi4DrFEhVsQSNgIcC8O3beYQFmC0LsigwLAowrWm999CO8uJbUrZtiuuWEZPN1IbwVsRpEFDIgupOpVofY3p0bocNqAERrpnRMU86e3ZgtXFaTLfxidq6ws161D3IELM6fcufVcAefv3zjV60DdKwn2AMe3BUZ3dDA0YYX1+Kq81kS3x+R+PYmdOt1XvzgEs7AOZi8iOJt/UM/d9IQuwzDagBD4Tzgutu7ZzUq1mVNsnF/g2w+Xy+bbgTM59Fh59VIBt/8RVrkkDxg9oBRigyOKpzHm1DsM5Kqc1NKs4sUKbzGkUKQHF4xWLSF8JKIq/YeGl2pvL/LMIQXlEHrOzaimbMSuvGtJtW4nxfhGlRrICqCgKAWhF+KzBaEvUVYEKIbGiwIcBRg4WWrIaWbP6aT0aHxulglFqlkARbXSHj5GBxxiD3X2GpQrWvQCB0cke7uY5pyG2dHNOuyiGr+ok4u7KyTTSHA4rwqd74Nd3BAwOc3lyKzBSFKkTe7uyIjCwKMFWJxbYV9Bk2/bkyqRi+djK+l2r1FsXIn7gjGUKuBxLcriV2GwQjgLIhouyFKkcOK8UC9bD4/uAg3ym5o/hB9ROg8dy0I60kKMrKcBYGG7GBMaFzR/RGabp3Bi2si4iXhTYt2kCSYZU7YYY8hVkNSM1+ixzpJfK/iRuiIeMFI4FLklGbOamm3vxWVzfvrcoUXGjRehKPzK6gF4S3C0fm6n87/LQnFVNKafV6M09AQAYNqwRFvTDU/x3m8JL4OTcGE1cAnZFCrgaMK4fFqttjenU7sa7C9OxgtXIjRuqJvVlq1vh1TLWFB1PIiXAW6oYksCA4SvG5oScXK8p5wwoIAoNJwVkOEIt6Ibv44oVq9dALu5YU1N1Itc4KOYAgBZ6sh7+zmrX/oMZHVAKsBBMHvhsabctZnCw98OksCzBYEnbPcES9oFoS7xlHcR4GCKEWmgYbsoLK03tr9EU4nC2vWzWHVLMaFx8tWQ7A+DSLi5ZOYjsWLawnd7uI83lg7+vGCyiC6oeXs2VyIcXq2577ZXIihOQfDXC1J555oxF/u3BzO4POXBViz99OM7QmKhOW4bpyfWGUjDxgEh7Ma4rJ5ZoS7k+mWE1VNkccrhDfg9M0V3qJnNVidJL7XteR/EzkZVgOoIFwJd+rt5qy6nPHtsGzcN1s2d87IWaUmnSLgPAlogPOYrwPXA+Z2lNaWlG62sQDPQQQMgsAeb3JZb2tCN38cV63eWN7Zm+DV3qBWgxcxiIjXFd4Ncc5qWG6Fz1kDqwFUAS8PmIKHS2uzhQdOzxrbamXr5bBiiKb+6QALxoMWRLvfDc30SpGxKzIYBY2e1TA0q4HTyXixodwJOOzBwusvrqluxJvSnKtj7cjjBVWmu/uYT+fs2RGl8L9IhOXaXOHhetl4KqGYr7P4BprNeQEFR8D0/RNJxZLdUmR0QwMjgCNethroRPpRQjOLJL6vizxeER0EtBqE8Lp5vPQzp5NdJ9LJYDWAsSCz5a/iunManXufb5IL/7NJMW+lSJWDi71Bd9D21y/8PGAuReZKOJGGBsCREAUUomTYuikxpGRYnFRlTrhhDxHxulkNvtXA3cnodVBAAcacdPvTH2zVnZP9FqgiyMg7e0XOeoBznQX4baXIupXjPeFQigzeFW6EzicjCy+dNA6dTK7VUKmsBk5y55JhbpKjW9ekOasBES84iogFZd05k8T3RmGvVSJ3fYgFkdAsUYrMi3BiSyJYEOBwWlYWjourBnu8P6KTUJQMu5VrFcjjpUhCRBOiZNjuonEdN8lBxAvGA423PupWbSrGze5sz349aNWmGwHzOe92Q+M94WBBgHcwWDIsrAaafg1aDaM/+cQQVoMrvBQBvMQFFKIfr+xAeMG4gndh4eAjods/pnN3MwcfQfuVsH/sWhD2/oRqbhnMgrgNFgQg3GmXOaQ7mTvtcq2GAItrJLxiFwteYPPyeJOacS3vuQarAYxHRPl8u/m5wSCkEp36vACErqsDdIwnRB6wYpx/ppuGBgtiqtKy8nfHccRLUy32uyrfnYwtCzerQZQMcx4vIl4wnuFZoLDfNMuzIILPAt0sCCHirgWhWdmWZcVzsCfcFIV9Lt5lmKZDP6mUzyXGoNXg9eMV6WR+I/T/RMQLxj1VWf/wuqGlhAVhbQmrplwvG+fNUjd97NQV3X+NcuQpwuAKLzfJYeGtVHcyeq6b1cBWg9sInR6/Ft3JwESjKpk/dH1xP2AKSg6ElMITM7NGdtbtPV+ruX1TvKn9kVO5EZD38mAyIvJ48/YZXm7jZp5Wibt6JawGf3qm27vpDt8lSoaRxwsmKNXIeXctiN5STLP2NeQKz8zKFf5ffc64KZE3vxmVNzZ9DOX1kxO+m4uSYb6bi6oed0EhSFWPGGw1eCeVazWYnSm2GhDxgglOVao96Xrhdqwx1ThYlyu8WK+aT4YU46HGtp7r6nHNTD74JPKmUT8igXStBjoBxEnEmQnlTpJhDld432418OJa64ptf+29PAATlmr0ORHd0GhQBFxq1Jy3ZmcLu2vaNnU1KIWrm5ARNHlwp0+FM1K67TZCzzt7g06f/OEfh469O6kZIo83dScaoYPJBV9Dfoc/EmD3GuIIOMA1xHvKpSloiS/rK9VrTmlWrrBnVtumDfWycU24DXbdhMfdZdg8My6sBs7j5WkTnTAB7tpiiKwGz2rgiFd0JzOvxi7DYLLi97am8/zQNloceLBtF2D2yCIc14uletUuUQS8pzZrdNbleq6rlwvobT1R8a0GEscbRcRb0e5k3iIdlwzrZheN6+j4YUyXwGTG39WFroGbhX0nLAhPgMtcJ8MZvJ0RzRxLMboumygCrhMC3NNVm9t0dV2bET0ZwczEghfXklpvKwniTd6eaxXsTuYKb0Kz93DJMEe83BYS0yQwFaiXveIk34KowH6GQoBp8C4xYRLgesXc3ZArbIgo1rUc1DT8tOP93suD8YzIauA8XrVcyXD5D39Yg6dWvLhGQ2Q16FYHHf+aqLYxBqsBTCV4VlmNnbzZgkjoRSHAjbKxh16jM61Z16ID4ASATwrRIMS3GjRvWhTgruwPcRy2LHTH607GVsNmLAyAKclgQ6ohWRCBu6HxVwpyeHPPCAl5KGe+FFUMml06YnaJIGecwikx4mTQjJtTojuZ16shwMkgxhCrgU4y0Z0spThXc5McCC+YyohMohV+fxSjYv1RWITjdN2yB9ykWrspAu4ikb9mDvqjjD/8ckhhNQyZBrlZDQEW11h46STgk4k93qRqizzetIrt3QFg3IwiZ0hnwAp0Q6PBi3BxOgYLcMi1IDpYgJFRNI7gRiCiZDhvu1ZDBbZD8Ye/SMd5vAnF606GkuGjQqZb+gCNE67qkE7iMb9HOvFIw/9dfh4/3zsUqDAswG4psnNTyi9FDpwHTF+FAPMiXFEIcEQxu+g6v6oFFsTRp9Vvgec3ABm0GoIvrh3K47X3UETdlVLMq1vyv0FWwxiSKUnvIdH868w66eQf/FpqXdwlfWVhh/SNBQ9LF9L3Xz/S4N/j36fvv8LP5+OI49FxvZcAFaJF/t1xnIZGUfCPBlM7OXgJaPuJLAg6Bi/ChRRrd1Q1O+nxa+nabMIi3FGCu+/zdIcX11JDV1xZeEk8D/8QRzKE1UBDWA2iEbrXnQx32zFDiGS39MlFHVLCE9FbF3ZKvyQhXb+oU+qg8fAwRgf/Pj+Pn8/HEcfrkE7j43svBSpE662uBSGCIe6fUqGiJrYgPAEeEBaEYna4KZ64JsccvsvyNCelFQethkoY/TxYwEXeImc1cCN03UF3sjHkqg7p/d9/WPrY90gk56+XvkVCeTONB0g8nyUhfYnEc68YndKrRxze7/Lz+Pl8HD7e4k7pW4u6pBhFwh/yXhZUCLcU2WqlGelNCcXtHMjXZZBrk6Nf1wP2LAjF3B0RWRDYAXxM4cW1NFfZKMbNKTb4OZ2MI95KlAzThytOFN9q0NysBkxvqg9FosewLTB/ndQ6v0P6BgnwTd/vkB6mqPVJEtI/kYgOXP9rqbR4w8gHP4+fL47TJT1FXx9e3CEtWvQrqfknhvRBfm36E7CtTYUQufZciqyaop8KXUtviOtKWBBB8oAtkQd8KAvCbWQ1Z/nmcHLJz3GNVhPXajDPpKj3xoTfCL0CHyoP12rwshq4V4NuXtciWtzhQ602wtt9UJqxeL30dYpMb/3+eunBBeulxylafZnE8wCJZSnziDsOF9bhDP+5fBz6+S0+7qL10iYW4AVd0udveFiaSQJ8QiYDL7hScOqnsCA0i4IkTv30POAAQdJgBCwKMYpuIYZsdvIiHFq4VhGRU+g3dxZWQ3Fv0OmMGBzx8klBxxGLa6Jk2Lma20Keg+lM1Vm9Wnrv97qk6d//lXQRie4qGlsXdkl7SCAPcMT6g25XQFk4gw4+zg82epFwl/RnGja9jrK4S/pXEvu5bHfw3+P9aSAgvE8iL4iTYP74kAURzB4UAkyBlmtBUASsWLsjsluIQcdFR8FKI4x8b2dVN4+3Mka+azWIrIYB0Z2MpjFie3cY+WOCsBpIeL+3Xvrm/HXSqvnrpe0kvqUM2wtd7iCBLCukox58XI6IORLukt6gx/5jYafUTRH3jzLrpfS//lzC515BqrUwziLMEbCbB2yKUmR6/NqWO3DtVozBFBbO49Up4h3cgSJg5RoNFnB/6x/6GSksYwhN8Y8hsZvBGQjf75BWUuS5Y9EGqZ+FV9gLlRbdoYOOza/BETAJ70Eaf6Roe3WmU7qAovC/8/5EUCGqkRLK4svizZVwYRJhPw+4mYInpIRWgKHJ2/ShcVZD5buTqby4ZovkbXeXYQhvtZlHU3teXCPR+yeKOFfS1+0kiAPCYqim6B42Mp4fTJHwfvr5scUd0o2LOqTm61ZLH/b+VFAhqlUMJRbh6BgiD1i1RBZEUnOunYO+K6PnHWWLXsQbtGxRTHXoGBw5J7g7GVsNKsoWx5JMn/S38zul1oWce9shbSXhG7h+jIXXH2xBeB7wK/TzJhqLWYAzqIirONVqAzAkD9izINwsCNENDdf0yKhWww4ebsTrWg2cTkYnAfJ4x5j566QTOZ1scaf0SxK9l1n82G4YKopjOQYjYPpb6OdNi9ZLV2c6pLrMFgnbmVeYajTA8i0ItxtasRTKGS9FZHfhnIMqXNvDpBqt6sQYYjUkNfMleqyTxPcqtKobW37yS+mDHFnSuJki38cp8tzHEe/RiHqHDr4BeB7wi/TznfT3nXtdF+yHalCt1q/CgvAiYM4DjlBwJXaZWQ4L4ojwh1KNJs082NzniNfN4zU7SdivQW7gmDLtGk94SXQXkcBtoq+vUsQ5cLSFlwdnP3D0S9+/RgL8a/o7r1ywTvoU/93unw8qSbU2PXAtCMezILgbmiW6oVGUjU0P/hL/feXvjmumiLeS25P4Q9xV+UPNO/8lSoa9rAbcDceOJZb0NwsfkRoXd0rXkcBtWtQl/Zn9Vk/wjv7wom8S4X4S3x0L1ksrFq6XzslY0vGlEgS4GrAAD93ui4IsmuUGsxc5+nUF2O+GZu4RpcjtjsiCaF3dDS9/KOwDzcwZn21QjJtpOlKkN8+dhgS8C/qDIt4BinZfpu8f4cW1GIz4MSezXjqeBO58ErqVNP7kp5S9TQCP8mDx5YU/Et/9FJUX6et1mQ1STQmVb1WDZ7tiEU4zb4yrZpHGa+52XQEX4WiINDQvCyLGs11ehNON0Iyl697nvfzUhgsowrJ55ifbCjfOkk2H3vzXm/nux28+3cEOf1NHNNiucC2L/QnF/B2nrMVUI4Utqcce7q+b6ZT+iQRuHQnda6KQYpyJLw+R+dApDZDwbqOvaqZL+jwyH6qLm9lkntmkGDeFFNOOkQB7za3eeU2PYAxmQbh5wLujivVQQrcvadb6PpHJlKbwDfVS7dhMx2MnffPnv21Nt5s/rpeN3kbN3pukN53f+HJv5kiHW722mVPK9iZVcx19/Wb4lk0f8/4CMIb8H+6d8IgQX24JuVdUmdHwRW+8DGE9uH/XXhJgY3GndNUNj0i1JMBoQVlFOAKupdlvk2L+W1w2tlDwtY/Fk0e5a3s4Y9CCWNZXCism94J4qkk2fswZEJnuEjdTmlr0lUrH7nx136wXXn39H5/8r1e/c03HM7fHdMsJywbd7fycv/Jv5sgGf3Ccz+scSKrG1qRiLI0o9hnpnxgf9P4UMIaIyHeD9A2azrP4vjpexZcH2yE86G/9I/18J0W/53yvIB3n/VdAlQgt7TkxpdlfTarWLyhQ2p1g24ECqPLX93CHXUrTMeKqxb2AdzXIxuqobH41lu3+6LzVq6dWH4+ntv/pYwf6++e/1X/wiZfeOrj1+o3P/XG2bLwxq80oNXOkGjCrwR+ebXGQ3vwXE6r1QFwpXNSoWB+fN2+KveHjhKvXSZ/iDAISM85yeH1IhDnuBv9dnvjuXdQl/YrtEr55eP8VUCXmLl33vpa81UzX75KIbGwlsRzgBjoijzfAYE1hPUjo1gEK8p6qzxo/JS1obl29ZUrZSdOefv6VmQMHD95TIl6n8QPr+dIstViacXuhlBZvVPk3cKTDTSuz+uku+vukbt0WUXqaZ1wBo32sEe0iLel4msKfTWKmk7j9nsTtgBBfGocL33gYQ6Ly10h8OxZ3ShdCfKsPR6LR5b2n0DV7cShXeLAuZ/wpqjkHg1gP/mA94HqBmGK83CQbD0Rka97n7ixOqT4e05544dXZAwMDd7H4/jup71Udz5bqFLM0u63gejSHvWmjG1xQ4YmvZj7Ljdd5lTNyqXas93eAMULrk46d3yHVLeiSvkcCXCRB2+eV875D9MbL8MWXI18a6+km8XWI79gQ0fqOnaNa4VDO+CFFqI9FFXM/R61BBVgcg6Nf1XyNZsIdCdX4Rsuynqn1mT75p1c+TeK7gsV3695S6V8efqZULxvVE1/VfJYTuRP5ngaI79hzxTrpfYs6pASJ2K0kbNtYdL2MgnE7hoov/fwwxHdsab6z8ImGtp4r6tsKZkQx3hAL50EzH3zx1czX6OfORN6eeuL7zM5XT3j9zQOXv/TG/uJv/vjG81f86qkDs1WnNDtnVtB2OCS+JLzPJVXjZ1HNjEF8xx5ffEnEbqHxHxBfcCTS7Z3/LSoXLm1SCj0xteLiu5d0YX1St74+5cSXAt73FJ7dNX3zjpcu+vVze5Z9e+2WrafnzP4aEuA0p5aUeeNGM7xeEAdp/CGpWnfFFeP8miXW8d6fAcYIth0WbpRmL9wgXUViZpIQvyGa6EwU26ELtsNYc6ZifZxE9ztx1SzENVOIb9AsqLeJr1tyPPXE12PaiuK2jz785B/nffuhJ1Y0UnTaoFj9ycH2cuXfwBENFnLdGUjl7deTqtmXUMzrEzJ6OYw1vC/azX3Sh+evl76wsFPK0niWhHdCLbhxihzEd+xozVozwrJxTUgxnZhqvelGvhXyfDXztfhUtR2Gsun5Padc9sstX07nzfaIajwXzTsHgna4HzrEh9bODdPNl5KKeV9Ctb8S0fpO8F4ejCELHpFOJSH7ZxK0bhLg14T4ugI37oZoskPROUe+izultfTz1yC+Y0MrXZ8tunkOiW97SDb+I6bZb7HwBhZfke1AwZ1qcDC2jgKzr7UsncLiyxbE/3f34yenSRSjmtke1exnSSD7RYVbwDdbDI6iSYBpmrGPxNehO978mF6slaZ0aeHRgcVrIUWQJG4P0xj/RRYbpIGF66Xn6ef2RRukszLd0ke8/wqoEhyJpvPG2XTtLomr1qMUpe6j63fgHdf1iAeJt2hLKyLf5+OKtTyh9Z7VeOujU/0zLU2LL3VOjmjWPBLH5WKBTHfeEt2NAkfALOA08sWDdLfbxZUzNI25OLqsd/qUq245ykyY8mL+m7qkAfr+zxT5bqCvl2e6pNN54dD7r4AqECLhpetzLkW4t4Rl87GIxjsdU7QaVAM4ahad0riAy2INWJtQ7H/+zPLffhoNdjxEcrVuXUB3pnYWYBLeAxVpok7Da1F3MJm3/yOhWau4ucYc3Tmttbt76tV3HyVE5Nsp/dOiDulXJGjcx3dciq+obHM31dy2sEtSFq2XPptZI6H1aNUoTZtxY8+JddmNZzfKxm1NivloSDb3RfTeEl2nwRbgaeYrrv324gBd9y8mNHsNPX55Im83zF23FcLrw5HonNymU+iN+QrdnZbRm/Qsfe0XDZbLvbEjGfwh0p2PIuC3Eqq1g8R9JQn9RWnV+BQsiLGBeyOQmJ2zoEO6kyLKF4Y0Lx8/o8sT3w4hvs8u7pRuuuERqZG3uPf+G6DCcMRblzXOrsttumV21nisVi4I4a3EwrsQXjd425XQzTV03V9JmlLPZczey4NDlKbFdefklO58OUYCHFHMZ+O6vT/NU4agqSZ8FxTZFPYAfQA76LFVvOIZlQvT560uwYKoMtwVbOEjUu38Tumq76+XCiTCe8ddxgP9LbyDMosv/X2/o6+LuJ8vxLc6nK51n5DSi19qUo3bZmcLj8/OWW+GeI2GF8rLXMPDHr7VwMfiiFe11tLjl0fbzTpEvEdgzvLeU8K6dUFjrpBvks3f03ShX2QulHujRzg8C4LHtoRCEXCePeDC9NYMLIhqQyL2gQUPS58nYVNIgLdRdDmuCi74RnD9I9IA/X0vLVgvraXxzUyX9IlSCc3UK0qpNK11Zd8JEcU4O6aYt4YU89Fa2dgXEhFvUKvBneWm8s4Aie6LCc30rIaehprVW7Ah6pEQFgQJMAnvhQ3ZwgNN9CbGNWvANd8rkO/nTkfeIvHdkdLse+KaeSFbEJlMBhdZFeGc3/nrpBoSt2tpFOevlw6QII+L6FcsANLfQTeEN0l0f0Pjhu93SlGO2OlPxzZCFaRl2W9PbNbss+h6XNIgFx6vlc03ueF5gkZKp2u0zHU73MHXtrtQ7+wi8X0opdpXRuXeuhlLEfEOm9WrS++N5sxYSDZubpSNp7kZMjdFDiq+YnjTEjrWQFK1t8dV4172gFtkRMBVpSRN4+2ESODO/n6HpH9vvbR14QbpAG/dQ9P7sqI4VkNsa0SDIvKXSXjvn/8rtJGsBhGt+4Q5y4tfiqvWbXRdP1avWG+GhPBSUFTuWh3mELnAntVAP7/IWQ0p1fkue7wQ3hFSoqlJQrE/mVCMb0UU82H6oF6O5l0DPWjCtRhieuJbEM62BEXAnAVBd0mkoVWXaSRup9D4yvwOKU8ivHVhl9QvthU6ShEwv64Q3g6pn8T3KXrs3xask1oyfchyqBylaVxAkc7bZyc081bOamCroYmEV2QlHH59jmTwtcy6kHezGlK68yCJ7hVJdXM9rIZRwqXAvOVzXLEWR1WzJ67bL4tk6UO+baAhLAg6Hgk6N+DZkVDtlWIRblnvdGRBVA9ewGIBXviwdMH3H5aWswCT4PVzBDzWAsyvJxbZ6PXnUyROf8vyTIf0ZfobP8q9iL0/GQSErYaWvDWXRHZJg2w8XquYb7Dw+otrgaJeL+KlY7DVsDapF6+IymZd64pubP0UhIjW9+GU1ptO5c1FSdUsJHXrFeHrVEiAD1kQ1gDdgSkCtlaxBRFHHnDV+SELMAndgg5pGX19LsMWBE//x8iC4Nfh11tMr0t/w3P8dyzolOb9cK10KhbZKocoGSbhZauhSTYeq6uQ1eDPXnmBjSNeeuyhlGp+lx6Dx1speN+1hFZooTd3Mb3Jm+irEOBkBRbgxPAtCN0+SMffTtOie2jacnGLiICxCFcteAGOIsyTF66TvrqIhI/GVk7zEoJIEWm1omD/2Pw6XlrZ1vkP0w2A/g6+IfDf5f2JICAc8QqrQTdvEVkNuYJnNdA1V+5aHO4Q1yxbDSIFdRcFTg9S0HQFe7zzVq+G1VBJ0u3GB2NqMUVvboZGgYT3ZfeuVyELgu/CvIFnvthPgr6dHhvMA4YFUT14ar/gARK8TumCReulFTT9f44i0f4fbHJ92EoLMB+Pj8vH59fh11tAr0vie4H4OyC8FcO1GoqiZJithjrFrpDV4M5W3cU1kdWwloWX+7bAaqgS6fanP5jMW800tVgkBFi1XnUFmD+ECkTA/ofqWxCqtYpe42JYENWH82nZAyaBbBcC/Ij0+qIuqZ9TwIQV4ZUj8zhcUN9t+M/h53sWAxdT9PPx+XXod9r5dfn1vT8FVIBWrfuEz2j2WXHVWMqLa3UyWw1idhk84uVNNdtFwx3PanCzGrC4VmU4Ak4qVjO92RkSy0ELIsVTmXIf1kiHiID5JHH62YKgr3eT+IpSZOQBVw+OgK9bI30i0yF9lURRJVEssDjSeE2IJ4uoZxf4gyvS/tI4/HfF82nw8TzR5eOr/HrideHxVozIyr4TOI+XgqRbOJ3MtxoCe7w0RLTrXuu7uICCXuNKul7rajKwGsaE+FLnQ8KC0JzFHAGnfAuCMxfKfGAjHYOlyHnnYGKIBcHNeCSUIlcN4QGvk06mKHTuwg7pX2m0kUBuovEHEtQ99PMrJJpvcBT7g42ufcDfv2OwrcD/Tt/z74vn8fPpOOJ4fFw6Pr+OeD1YDRUjtLTnxDntzhfZ421UjMfr1ENWQ6BtwjjiHWI1xFXzV/T45SkZJcNjjm9BJNiC0KweGq8Mfjj0QQ1+aAGGEGDNGkjp1jbRjEctXsx5wCjEqC43rZWOI2E8nTuKsUgu6JDyizulX9D3a0k8HRLSFymK3U9f+0lc3zlcu4L//UX+fX4eP5+Pw8cTncro+Pw63kuCwLh5vBzxch5vSOY8XlNkNQS3Gng2eiiPl7uT0WwUVsPRpHV19wdSmplO6laGPuBNg2lo7gpo4CHygIUFURQWREpz7o4r3A1tM7qhVRnOBf5ph/T+zAZRjvxF+voPi9dLXycxXbBwvXQ/Ceuj9D1vScQ5ws8MDvrZe/xR/j3+fX4eP987To04LprlVJSWpW7JcFp3fuZaDW4BhbAaKlkyrFkPJRTzf3MeL/rxHmV8CyKVtxdRdGpwFgTvhCFEs8wHOdLhly2yBUF32u1J1biXRPhCbsYDC6L6sEj+xJA+SF8/kumQTiJBbaTo9Rs0FpHY/pjE9abFXdKN/uCfxeP07+L36Pf5efx87zgQ3QrDEa+wGijibcy5ebxDsxrKXVfDGr7V4C6ov5j0rYZ2Fl5YDeOCmuwWEQEndHshfTjuIpzfiL0iFgSdBJ6YswfMWRAp1fwmV8LBghhbLu2Tjv3RBunjNzwi1VIU27CQ++3SV3/4P/O/8+/x73tPBZXG6072tpLhwTzegItrLLws3tydzO3V8GBcK1zOVsM8WA3ji5ps9wfSfh6wTgKct91FOGHQl/lwRzjeZkEo3JDdXskWRDLfPYNOQlgQY0iJG/RQBHupJh3L4vqOQY/zv/PveU8BVYD3XBN5vF7JcF3O607Golkhq4GOIawGP493LiLe8QmnoaVVIyUiYFGK7AmwF7UGHr4Fodt0N7a3k9Dfm8wX0A8YTDl4F/BD3clMr2SYg5NgEa+w+cQO5iJoEt3JeHGNsxrg8Y5zalZv+QDnAXMWBInwxqRmiiwIUYpcCQtCnBxCzHk6tD2hmyu5GxqXImewCAcmPaVpvOW6sBpU+xa2GmqGLq6Vu2aGO8S1NTSrwVzDEW9yObqTTRhas1s+QHfLpLAgOA2t0qXIPB0Sgl7sp9fYQSfKqpTfkB0WBJjEhPzuZLrplQxXujsZB0luyTCJ+5XNKBmeeLAFMbgIp5gF+nCHdEOrUATsWRAp3dnGWRAkxBfPuQulyGBy4nYnK86N624j9DqFt/4Jvrjm9lXha5NE3M3jfSium98NI4934iJKkfNWM/cDTgkLwhVgbsheMQHm4+n2QfqZK+Hu5j3hRDe0UgmLPWDS0LryGZHVwCXDIcWqcHcyd3HNE941ibx9pbAaMhDeCY3bDc1I0Qe9WETAFV6Ec0uRWdCdgzRV2s4WBJ2k3+BFuHnzsCMGmPhwVgMvrtFM8laKeCvXncybPXqLa7t4cY09Xs7jhdUwSRi0IDR7QUI1e5Kq6XZD4w+dToB3nBSjGMKCEN3QrG30dVVCNy4Re8LBggATlkMlw24jdL87WQUj3nZvcY03u0TJ8OSEF+FYgOmDX0zjUDc0NvjLnRwjHZ5vRV/76We3IbvuXBRWN6MbGpiQuI3QjbNJZJdwOhmXDLu7DLsebxDxFVVr4trjkmFzDQVFVybVjSS86E42KeEIuFl3ktwP2C9FFgJcjW5oqrmDHlvF29JzQ/Z5KEUGEwhRQKFac0XJMOfxqs4bYuufCloNHPEmNbdkGFkNUwDXguhNcx4wfeg9fh6wm+JSIQuCI2D3+20k9CsTinHJnLseOw2FGGDcwyXDGpcMG2fHVeM2d+sf7k7WSxFvJawGjniLA3QcinjtNfT45Yl8TwOshimC2wuCBFgzr0+qJMCD3dCE8R98+BZEvvct+nk7nWT3pNodkQeMPeHAeCYld5zUrPWeReftEtGdTDbdJjl8TlekZJivMZHH+xDn8fLi2lxUrk0t4nc7H2IPOM6bcrIFIQSYIuBDUWuw4U2vhAUhSpGNe+PcDY0X4RABg3EIb/0jdhkezON1S4YTNCsMHPHy7FLk8dq8uLY2rjrf5baQ6NUwRWELgndFdttRHmrILvKAK2FBiGmWEHPeb2obR8AJxb6kRe6dPm810tDAeOGQ1cAer9+drBIFFOI64j3XhloNeUt0J4PVMMXhbmgiDU0xr0+8rRS5MhaEKEVmAdZ5V2RrO0XZK+n1PAsCpcjg6BMSi2vFubz1jygZ9q2GoItrNMS5L4IZ5480+1tL5/+VzXcUa2n2h8U1wA3Z1wkLgkuR6c7vWhDcD7iiFkQfe2aiGY8oRdati7ArMjjaiO5kevFLFJFyAYVnNXgeb7lzeZjD7U7merwiq0G11qZU87vJto3181aXEPGCQ3AeMJci04mzmMRyE514wgMWuYiVtyDcUmTVuhiLcOBowVYDie5ZdK4vCSnWb/3uZOJcLXcOD3eIc52iZhJw+ll0J+OIN6miZBj8BfxKOBLFDI0CTZWq1g1NlCKrh0qR0Q0NjCXcFpIjXjovRVaD252MF9cq1Z1M2HaiZJiFl/vxnoo8XvBu8J5woh+w15CdpkxuKbLwgCsUAbMAa7a3CGetilEEHBfd0EqwIEDV4YhXWA2Ku8swe7yVWVxz1zfoWhmg85wiXrdkmLuTIZ0MDAt/EY5OqMV0Am2iE0lEwG43tDIn3UiHd5LScQ/GVWtHWDVXhnX7kvAd2BUZVBeuXOPuZHQeLnELKIZaDUGCC3q+yGoQAr6LjiUaoXMeb6SvD/vogeHjlyJzHrC7JRFbEJXLA/a7ocXzxYMUGewI6da90XbeFRlpaKA6uHuuWXNpVudmNaiV706W0tlq4JJh53LOapi7Dnm8YBS0ii2JeppTurmQ84ApCn4l4UfAdMKVPRFHOuikjWrWQER3tkVU416OgJEFASpLaZob8RpncwGFiHhl08vj5Yi3zHk53OHP4vzuZF7JMC+uYZdhEIhWz4KIq1Ymolmbwpr5SlwIcIW6ofFx6HgUffTHKAKOqubKiG5dhDxgUCmE8CrG2ZzHy01yamS3ETqnkyUrUDLs2XG76PheVgMKKECFSLc/LRqyh/PmIhLHQtxvyC4WzsqflCMZbEGk6Vg0HRxgDzjG/YA5CwLd0EBAhu4y7O65Zr0ZIrFkqyFd5lwc9hhiNYiIlxuhU8Qb5V4NsBpAJWEPOJK3mlOiEMPalFS5G5q3wFAhC2KIn7wtoZgreUsibEsPRgV3J1vZd0JasUXJsGs18J5rdI4Fthro+ZzHm3cGSHRFHi89ju5koHpwFkS6vZhK6kaGBTilW6+kOQJ2p12Bx2Apcr74FonvjpRm38P9gMWuyCjEACOAG6HzDhQksksa5cLjle9Oxrab250spdpXRuXeuhlokgOqiciCWOEkOQ845eYBvxLzV4yDRhQ8vOmcyANW7e1xrxRZbEmECBgMg4jWPWg1VLxk2LMa6GevZNjd+gfCC8YEkQWRt5qbVXNRVLE20Qn+SkQIMJ/cFS1FpuGIbmhp3b4EaWjg3fG7k7lWg+hO5i2uBS+goHOSA4y8m9WQ0p0HSXSvECXDsBrAWMK9INJqMcVZEFHF7Akp1stifys+QcudvCMcwoIQuyIX+5OquYOmdivdUuTe6ciCAOVgq4HzeOn8W8KLa7WiZPjQORko6vUiXjoGWw1rk3rxCu7Hi61/wFGBsyA4DY0X4cKKWQgpphcBV86CEFkQnAesWtuiqrWKIhh0QwPvgCNe0Qhd7DJcOauBz0GRCtleLMVFHi97vOZ3aWYGjxccXUQ3NMVqTuatxVHN2hSSXQHm/N1KWBAs4ol8b4ki64NhxXB3RVati1tEBIxFOOBGvMJq0M1b3JJh32oIGAAI4S2WYnQuRyjijejOgzGdrQarfh52GQbjAV6Ec7MgrIwbAdsVtSDYr4uRADepTn+IBDimGqtavDxgWBBTG9dqKM6lm7RbMqxUqGSYAocEzbridJyo5uyiWdfaCAlvDLsMg/HGzPanP8iLcKm8uSgsm4XGXOHVCJ24PGUTXhlHEWVP8iMP9wKySYA3UwRsDtDxt8XYgqAIeA4siCkL5/F+RrPPiqvGUl5cq5PdPdeCRrzCMqObfby9OEAR74txYTW43cmwuAbGJRwBt3BDdrEIZ21qVMxXBiNgIb4BbQgRARdJgO3+kGxsp4vibvaAkQc89YhwAUXePjulcsmw8ZhvNQT2eGmIVDI6VkyzdoU1c02M+/G299bVZGA1gHEM9wOeI9pROoubcmZPSLV3UsSwl4SylOauaHRxlDvhhzPERTVoQdgHWYA5AmYLgiNgCWloU4IQN0Jvd74otv5R3t6djEuGRy2+HCB4VkNMWA3mr5q4ZFg262agZBhMBHhbel6ES2nO1WHVuLM+Z3Q3KcZ/JlT7gN/ztOzJP4LBAkziKyyIuMqlyMWLeVdkFGJMZtw8Xq5cEyXDsuhO5jVCD7q4xg2eiiy8wmqIaPaaqNcIHVYDmFB84a7H3p+Se+tiunlOU864ojFn3NWkmM/GVauf08cqYUHEWYBV34Jw7k4qbEGgIftkpWWpWzKc1p2fuVaD2wi9EiXDvDbBWQ28uMYeb1Qx/7eIeLEDBZiItGZKx7TIhePCS41PhWRrXlgxllOU+hz3bhCN2QNEwO+wIDgLQrHubWl3LmxZVpguoRvapEJs/SOsBvNWupGLPN6hWQ3lzpFhDc9qiFHUG9bsF9lqoMcv5x0o5iKPF0wG5izvPSWpWxckdDtPJ/dWilZIgLmCLZgFwbnE7NFR9FsKK5bwgFOq+U3OA4YFMQnwu5MNLRkezOOtQAEF+7t5ZyCsWS+GVevBiFa4nK0GNEIHkwbenTiuOyezANO0bnlSs5+l0S+a6IhMiDIXxzAGX3y8iMcCLPKAZXNHXLVXcjOeZN6aQRcvLIgJjLv1T3GwZLguZ755KIMmmNXAu7L4BRRNmvWQn8eLyjUwKYnmNp0SV5wvJ1RrGUUyz6XaiweGdIoa1XAF2KapY2+pSbEG3AjYuLc571bCIQKemAxthM47ULglw5zHGyziFXm87ZuFgEfdiHdtWHe+yx4vdhkGk5jSNI6AE6r9FRLfdroYttLo54shSATMQwgwXZwU/Q6wB5xQzZVpvXgJC3AGi3ATiNK0lqXuLsN0ntzCVkPN0MW1Mp/9sIcQXoqave5kdA6u4ZLh8HJ0JwNTARLCVs+CoAtiOQ0SYN+CqNgiHGdB7BB5wH5DdlgQE4KQ351MN72S4Up3J6NzTBeN0NeSuF/ZrBdrT0XJMJhKNGuFT8Q1a15Ks9spSn0umXcOuFkQFbAgRB6wOUBTym0xxbi3mUuR73rsNFQpjW/c7mTFubzLsNsInbf+Cb64xusCYgcKinrdiNd+KK6byOMFU5RM5j3sAQsLQhUWxLNJzTwosiAqYEHE6aINKebBsFeK7HvAyAMen7SufGawZDikWBXtTiaElyJeT3jXJPL2lUm2GjIQXjBVIQFmD5giky/ThbKcxHdrUnOEBRE0D5ijnbfnAZt3p9vt/0EX3t+jHeX4grMaeHEtxXm8lexOxsJ7aEF3V1I0Qreu4DxedCcDgOA84JRWnEdRcJ6i4N9zFkRa7I4czILgSrp4++YSXdAHm2TjdzHNvD4qm03Ykn68cKhk2G2E7ncnq2DE2+4trvFml7q75xqsBgA8eG82PwsirhnLKTpxsyB4ES5gKTJfgDE6RqNs7iQRvjOqWue23tr9Ee+lwVHEbYRunE0iu4TTybhkWOTxeh5vEPFlf9ct4nF2cVYD3dSvTKobSXjh+wPwdkpuGhpdNPPo4lnhLsIV3+JeEIEsCIqAOAoi0X09JBf66nPm9aGlm9K8DZL3yuAoIAooVGsuV66JPF7VeUNs/VNBq4Ej3qTmlgxzVgOsBgDehWat7xOJPOcBe1kQui1KkQMJMD2XI6GYZr3cmCtsCstGhvefa812f8B7WTBWcMmwxiXDxtlx1bjN3fqHu5P1UsQbzGpwsxo44i0O0HEo4rXX0OOXJ/I9DbAaADgCbEFEl286hSKir9KFI/KA6SIKVorMFzWLN12UMdV8hSKiTSndXJhUepp5K3zvpcEYkJI7TmrWes+iz2WJ6E4mm26THBbOgCXD7k2a1wlEHu9DnMfrNslB5RoAw4OiI05DowuRLYjlvgUROAtCLMCIY7ycVM1CXLMWN+tOknfh8F4ZVJFWrdvdZXgwj9ctGU7wzKTM5zWcIZ5HN1fObImSgAurQbXWxlW/ZBi9GgAYMRGt8AmRB6yZ7TSeowuLImC3vr/chTiswZ4iiTBdsC9zBEyPLWYLogYWRBU5ZDWwx+t3J6tMAQV3tnO4sRKXle+KK+aa5rxzObIaAAjA0CyIpGaucLMg2ILoE9FOuYvxyMNPQSIB1iy2IHoSWnFBNGemEQFXh5BYXCvO5e3dRcmwbzUEXFzj58Xpc2xSbRrWH6OK4ZYM3/FobWsGi2sABIZLkelCm0eCu4wtiFS+At3QfAHW2YKwenjfubRqpCDAlUV0J9OLX0rwnmuDVsOhdLJyn82RhnieiHh7S2HNKVHE+2JMNdb6ebzoxwtApSiVprEA0wX8Vc6CoAvQjYCFeI5+EY7zQN2OatbL9JiwIHj/udYsFuEqAVsN9HmdRWK5JKRYv/W7k/F7P1rh5cFWA0fNHPGGciS8mrkmJfJ4N9fPQ8kwAJWF20LyIpzbDc1cwR4wXcReFkTARTj2kTXrFV6Eo6nxQkTAweG2kBzx0vsqshrc7mS8uDZ6q8F/Hke8TarD/Zt3xRRrLQtva7tZh+5kAFQRYUG0cymytSzFDdkHu6EFEWBvES7vuItwqpEh8U1hEW50cMQrrAbF3WWYPd6gi2tCeIXVwPutOQMc8cZV66Fmz2pAOhkA1cbrB8yLcCS+7UnNfpa+r4AFQQLMUTQvwqlWTypvL0pohRZEwCODK9e4Oxm9j0vcAoqhVsNoF0lZfN1OdU2qRRGvuSumWg+mvSY5kb6+Y72XBwBUFS5FXuqcTNHQoTxg3QleiswWhOsBkwCbBucBcxpa/G7nQ94rg3dhxtKeEykKnZvQbTerQQ3enexQxOtlNZDw+rsMN99RrJ27Dnm8AIw5UX9XZM4DFlkQzoE0C2gQAWahEFE0e8CchmZen9J60zVYhPvL0GwkRMIbUTaeHfFLhmXTy+Md/eLaIeEVW7sPhHKFF2OavaaZhJetBmQ1AHC04FJkbsiet79CF+MyumCfpa9eN7TyF/QRB4sFZ0GIY5iv0GM9JOyLkvnNzbAgyjNdNk+KKMbZCbnAEe9jNfKhPdfoJhZIfF2rwY1446I7mX0lCy8KKAA46njd0HTnywldCPBWLkUObEFwP2F/EU41DZEH3F5MRbS+D3svDCRp2oyl6z5Up1mt9bK5pD5nPFY/WDJcLKXLvK/DGYMRL73/YZHVYLwYVY21zXnrcvpM6mA1ADCO4GY8woIQDdkN4QELDzeQBcF5wG4amsiC0K1MKud1QyuVpnkvPXXJZN5Tk7Vm1OWMK2qyxsbZ2Z43mvJs2QTPamDxdq0GN483ScJLMxx0JwNgvPH2UmRjOWdBJDkLgu0DupjLXehHHMKCoOkzHSOqmq+SCHTTlPdfSARmoym3JHF/3JpsoWXm7T230tetTbJRSnLaH79v5d7PYQxhNdB77loN1q7oYHey3roZaJIDwPhFdEPjPeFUtxQ52R68FDm5rI+mwMVSTDX/QOKbS2o9redoa/7We8kpCd98KBqdEVGNb9e0FTpqc8ZLcXqvmoXPO/KbnRBret7QkuGoYq3183ghvABMAObkesWuyCnVzid1tx8wR2SjjYCFcNNzScz/lNDMO5LLrM9/4a6O93svNyWZrnV9OKwaX4yqhhqSje0hxRrwU8rKvYdHGn5WA0W8rtWgWg+S6F7xGXUzFtcAmChwKTJbEOwBcylyTLO2hhWrP0pR1WimxINRs2r+FwnCXYm8/YWpLr6z2op/V5ctXNCYKzwYVoxXWHi5UOXw9244Q1gN7UPyeBVjbVIvXpGSe7HLMAATEc4D5lJkiqKWUXT2XEi1D8SESIxsQcjLeiDxtV6g6Dcf180zp7r4Rn7WfUJNtudrtdmedWHZfDXNi2wjXNw8ZDWIkuES5/Gyx9usm9+FxwvARCaTeQ8LsOiGRgJMIrG1UTYOsgBzBFxOEMoN9oxJdPsp8n08rlg3xFQjOtUjMt6VIkTiW0fiGyHxFfunjVh8B62GUkg2d8XZatCtK5LLuYACC5oATGy4GxoJcLNuXUAX9wqaIj8XUqx+3nbmiClRbFGwSOvOQRLfnQnVWJWQjf+RyNt/z9kV3itMSVh8aQbwtYhirqP3dUTiy++5K7y9pSb66loN1loWXuwyDMAkg3dFpgv7Au4HHHIF+AALsJsLTJEwWxFDo2EW3vZiKb28j6Je6y0avXHFmc9pZsjxdcU3rRq8y/QaFl8W0uF4vkJ4Sai9rAbe+udFmk0MdifD4hoAkwy3H3DvKRRxDVoQIbYg/CyIMkO0mnQthz1JxbwvofV+laNe75BTmsZbuz/ibg1k58Oy8Qe2DhJ8I+P37jDBHTr433lxzl9cc0uGuR9vb11NBlYDAJMTilhb9cdPdi0Ic0VTrvA0icB/kXj8uUk29kZU82CSIt3Uit+4YqHbe5O6s5MEojuuWfPjy5zG1hXbMCUmZixd976YXjw9odrfiVDkGlasXSyqzfTeiZsW37xYbL2R9m5m8WV9YnHN7U5mreUmOWJ7d5QMAzD5SWXNU1mAKQL+aUgu/N+6XM8v67OFR0Ky+fuY7ryRyDtvUjS2g6bBv+a8Xvr+qqhmptO/fBqNdYYwgwSTZgINdKO6nO2HpGbu4qKWmGoNxNla0ElshcXgNtmJ0+N0sztAMw6xyzCXDMNqAGAKMW916b3p9t/8t0S20NKkFs4NKeaXQ7mef47Ipk4CUaCptMmLc0nVuCIlm+fEsoVa7GpRnrlLt76PsxNSeftKEt/7KJp9vEEu7GzIGQdCnD6m0qCv9PNb/DhFyI/HFOM+Lhnm53EE7R0KADBViGh9fxvRuj78xZ9bx7cq9icTinF2XDH+VUS6sn1eWDU+1SIXjmvNdB/jPQWUgfdOa1nm1CR14+thxbihIWusbMwWHm9SzD0hxXq1QTb31N5e+F0tPd6UM27g3+Pfx55rAABBMr/l+Hq5dyaJ8ixuDu49DIYB36CSivXxsGqFo6r9jwmlcGNCNe6nGcT6UM64v66tcGNtzv7H+jYr3Khs+DhuaACAt0OiAGEYLaVpvJFly9J1JybUnkRELsyjSPcb9fS1gX4O0eOezYB2nAAAUA1OXvLzv/nYz7pPmP7TjpNOp68n//znf+P9EwAAAAAAAAAAAAAAAAAAAAAAAAAAAAAAAAAAAAAAAAAAAAAAAAAAAAAAAAAAAAAAAAAAAAAAAAAAAAAAAAAAAAAAAAAAAAAAAAAAAAAAAAAAAAAAAAAAAAAAAAAAAAAAAAAAAAAAAAAAAAAAAAAAAAAAAAAAAAAAAAAAAAAAAAAAAAAAAAAAAAAAAAAAAAAAAAAAAAAAAAAAAAAAAAAAAAAAAAAAAAAAAAAAAAAAAAAAAAAAAAAAAAAAAAAAAAAAAAAAAAAAAAAAAAAAAAAAAAAAAAAAAAAAAAAAAAAAAAAAAAAAAAAAAAAAAAAAAAAAAAAAAAAAAAAAAMYnkvT/A4x00fIY24wRAAAAAElFTkSuQmCC;fontColor=#000000;container=0;movable=1;resizable=1;rotatable=1;deletable=1;editable=1;connectable=1;" vertex="1" parent="17">
                    <mxGeometry x="10.859824561403522" y="2" width="50.65928648097949" height="50.65928648097949" as="geometry"/>
                </mxCell>
                <mxCell id="16" value="" style="aspect=fixed;html=1;points=[];align=center;image;fontSize=12;image=img/lib/azure2/compute/VM_Scale_Sets.svg;fontColor=#000000;movable=1;resizable=1;rotatable=1;deletable=1;editable=1;connectable=1;" vertex="1" parent="17">
                    <mxGeometry x="88.71969696969697" y="52.66" width="61.56060606060606" height="61.56060606060606" as="geometry"/>
                </mxCell>
                <mxCell id="122" value="&lt;div style=&quot;&quot;&gt;&lt;span style=&quot;background-color: initial;&quot;&gt;&lt;b&gt;Name: &lt;/b&gt;App&amp;nbsp;Pool&lt;/span&gt;&lt;/div&gt;&lt;div style=&quot;&quot;&gt;&lt;span style=&quot;background-color: initial;&quot;&gt;&lt;b&gt;Sku: &lt;/b&gt;Standard_B2s&lt;/span&gt;&lt;/div&gt;&lt;div style=&quot;&quot;&gt;&lt;span style=&quot;background-color: initial;&quot;&gt;&lt;b&gt;OS: &lt;/b&gt;CBLMariner&lt;/span&gt;&lt;/div&gt;" style="text;html=1;strokeColor=none;fillColor=none;align=center;verticalAlign=middle;whiteSpace=wrap;rounded=0;dashed=1;dashPattern=1 4;labelBackgroundColor=none;fillStyle=auto;strokeWidth=1;fontFamily=Helvetica;fontSize=12;fontColor=#000000;" vertex="1" parent="17">
                    <mxGeometry x="39" y="114.22" width="161" height="62" as="geometry"/>
                </mxCell>
                <mxCell id="18" value="" style="group;movable=1;resizable=1;rotatable=1;deletable=1;editable=1;connectable=1;" vertex="1" connectable="0" parent="1">
                    <mxGeometry x="1273" y="168" width="240" height="190.06" as="geometry"/>
                </mxCell>
                <mxCell id="19" value="" style="rounded=1;whiteSpace=wrap;html=1;dashed=1;dashPattern=1 1;labelBackgroundColor=none;fillStyle=auto;strokeColor=#333333;fontColor=#000000;fillColor=#E6E6E6;container=0;movable=1;resizable=1;rotatable=1;deletable=1;editable=1;connectable=1;strokeWidth=2;opacity=50;perimeterSpacing=0;" vertex="1" parent="18">
                    <mxGeometry y="30" width="240" height="160.06" as="geometry"/>
                </mxCell>
                <mxCell id="20" value="&lt;font color=&quot;#000000&quot;&gt;&lt;b&gt;SystemPoolSubnet&lt;br&gt;10.1.0.0 /16&lt;/b&gt;&lt;br&gt;&lt;/font&gt;" style="text;html=1;strokeColor=none;fillColor=none;align=center;verticalAlign=middle;whiteSpace=wrap;rounded=0;container=0;movable=1;resizable=1;rotatable=1;deletable=1;editable=1;connectable=1;" vertex="1" parent="18">
                    <mxGeometry x="76" width="68" height="30" as="geometry"/>
                </mxCell>
                <mxCell id="21" value="" style="shape=image;verticalLabelPosition=bottom;labelBackgroundColor=none;verticalAlign=top;aspect=fixed;imageAspect=0;image=data:image/png,iVBORw0KGgoAAAANSUhEUgAAAV8AAAFfCAYAAADptc+BAAAAAXNSR0IArs4c6QAAAARnQU1BAACxjwv8YQUAAAAJcEhZcwAAFxEAABcRAcom8z8AAE19SURBVHhe7b0JeBzlle5fTmAyM1lhgEluIATHwbbWVu/dkiNCNsNlmf/cmCSTsOTeJ5BMgDtz2eJ4aUJCIJMYMOqurWWbzebGN0AwjrEkE9nq2lpWAgSzmczYnmBiMjYBzGIbWf0/56sqWZgOllTdspb39zzfI6mtrpa7q9463/udcz4JAAAAAAAAAAAAAAAAAAAAAAAAAAAAAAAAAAAAAAAAAAAAAAAAAAAAAAAAAAAAAAAAAAAAAAAAAAAAAAAAAAAAAAAAAAAAAAAAAAAAAAAAAAAAAAAAAAAAAAAAAAAAAAAAAAAAAAAAAAAAAAAAAAAAAAAAAAAAAAAAAAAAAAAAAAAAAAAAAAAAAAAAAAAAAAAAAAAAAAAAAAAAAAAAAAAAAAAAAAAAAAAAAAAAAAAAAAAAAAAAAAAAAAAAAAAAAAAAAAAAAAAAAAAAAAAAAAAAAAAAAAAAAAAAAAAAAAAAAAAAAAAAAAAAAAAAAAAAAAAAAAAAAAAAAAAAR5H4UudDoaU9J6Zk86SU3EHDPKllWc+JySXW8TWZ1X/l/RoAAIBKENH6jk1lzVOTmvX5uNLztbhsXhiXey5MaeaFSd34elwxzo8rhUYWZ1eES9O8p4JhMG/16vdeSu+xP/j9PvzneatL7/V+HQAwFchkSu9JZq0ZJK4XJVUjl9DMNQnV7OCR1MzOpGqui6vmPfT491Jy8UspubeOo2N64nu8Q4B3Ib5064eSeWtGIm83xJc5jfx16ODHWuhri148Pblk/fHe0wAAkxqKtuboj50W15wLKepdRYL778l88c8ktHsTmrWXxPe1hGa/St//kf7NTqqWTl+vS+kmibB5EoV0iNbehVat74TmvH0GvW9XNOWMG2qzxo8bcoUb6Wb2o5Bs/mh6W+HG2TnjprRm/XDOMudf0u3OF2Mrih/1ng4AmIy0ZrqPicq905Nq8WIS1JUp3dpGAlxKLe8rpXTn0Mj3llLtxRIJyJsp1dxGkXA3fV2UkJ3IjKXr3ucdDgyFZgWfu/Opv0vpxS8ldOunEcXc2CSbT9bnjGdDucIzcdV4OqQYT3+6rfAMPbY1pllPNammEVbNtrTunB/Ldn9UKsHaAWDykSm9J61u/lRcsS5Kac7dFNluT+rF/nT7ZhJaEts8i64/ikJ8U/RvJLwHSYT/QNHwnQnZPq9eLhznHREMIUIRLwtvSrP/LayYv2nMGa9HNOetuGL2x2jQza4/RoNEuT+uWv1N9G8zcsYbM3PGFvq3tiZ6b0/9NxJgAMDkgSPelmUU8SrORUnF/L8kpjuSuj2QWkbCq9sljn7LDVeEe0tJ3XmTxHpzUrEWh1UrTELzt96hAUWr9H58OJG3z4gqxs+aFOO3IdV5I8o3rmV9pTTdxNJ8c6PBX3k002Nx+vdafXNphmztn5U1nmxSTDmpFs6ty2/4e+/IAICJDK+oR0l4U6r5zYRqraIIdrsQVhZV7S8Lrz9EJEy/S+K7m4T7Pnr+VxO32RAID85qCNOMIqWb36XItrtRpoiXhZffN76x+UO814d+TovvnVKdXixNbyscqFWsJ5pkIzc7a5x/Gr+/WNwEYAIjrAZDWA0J1V6ZUDjiLfb7NkM5sX3HYA+YxCShmfuSmtlDx/nOnNymU+BPurR2dx/TrBdrk7qVSajmFhLggaQ3o0iVez+9wf/GI06fQwMJ8Kdla99pbYUnT28z2ma2GefNUjd9zHsJAMBEwl1cK0xPkvAmVeteEfF6VoMbiZUXhXcMsQBX5Mh3Hw0rqRpXNN/W9QmIrwuLb7LNqg8rxg9jivE0e7tsNQz3PW7W6Su9x7V6b+m0rLn/k7f3bPlU2yZ5Zs469zRYEABMLDiPV3i8nNWg2feIxTXNGnD92xEILw9ffFUSX90y6bHLEfkeIkPim5LNuvq2nhsaZeMpinzfYl93JO+ziJDp9+u1YumTtxcOUAT8xMxsT/b0rHG+uwiH9xqAcU+m5FoNXKnGVgNFvjuS+WK/WFwbrtUwdCDyfVcGxTdb+EF9znhytOKbpgg4rhdLjRQBz5KtfZ9uKzw58/ae7MxbN573iVtgQQAwruEp8Jy7nNOSqnUxieS9Kd3ZltRGYTUMHSTY6WV9LL77fc+3VXdOhvi6sPiG2zbW17T1/LAhV3g6rhj9zaOZYdAQPjDd7MJCgM39p7f1bKnJ9ihRzT4vli0iDxiAcQldmMJqyJPwatbdNNjjPTgqq8Ef9Dw331dkO/wpoRir41pxXkp+7CTvVac87K3Pus2sq20zbmhwbQeROz3a9zzNX+m5TRQFz872HKiXzS303mdpJvMPqIQDYJwxb97q90aXFaan8/Y36EJdlVBJePPOwdSyXhFJlbvIhzOEVSEWj5zddNwNcdW6Jqlurm9dse2vvZee8rD41ubs2SHN/F6TbP4mpBgHYzRTEDeuMu/pkYaIfmkk8sVSmEa9au0jUX+S3vsczWjOnQULAoDxAVsNLXJhekI3LqGLd1XSLRl2rYYhF/WIBgsHXfgi4lXNPQnd7opr5tVRzYw13NXxfu+lAZEpZd4TVjd/jN73C2KKdW+jXNgZ0YtixpEejcfuDSHcXgRcJ5v7Q4r1RFQx5YhinJ/IIw8YgKNKhi5ATvCnyPSihGbeQxftdvpe5PHyQtnhF/Rwhyu8vMhm76GfO0l8r0urxWjy5//5N95LgyFwe8h0e+9MEuBvxzTzvrhq7xQ3MP4cyry/Ixr0OTbpvaWabOFAgyzyiNtYgGfd8jAiYACOBqJyjSJeikj97mQ7XKuBE/xHKbwsGMJqYI9XCO+GuG5dk1xuhc9Zg5Lid2Pu0q3vo4h0dirvXJpUrQfo83ghqtmlWN713EdjQfAQFgRFv010nHrV3leXM56sbyvIDTkuRUalIQBjCvuMc+567LSEYlySUs2VdJG63cmCRFoiUvOtBjfiTWnO1bF2gyJeCxHvMIho2rG+AMdV8xehnPFCk+ocjNNMgt/fd7znwxyDFgQJ8GyKgGuyxhN1bZvk+uym8+u4FBlZEACMAZmMm8fb7lzIBRR0cW5P5nvfCmw1COEVIrGbfu6kyO26RL4QSS6B8I6EmtVb/iqlmbPYgqBZyX1h1X4+pFgUAdP7W+Z9H87g57kRMKehFUs1irlvVrbwZL1cuL1Btc4VaWgAgOrhlwyLRuiq4ZYMe1bDqCMrEfG6WQ2+1UDicTVNndG9bJSwB8wC3KLb34qq5v1NOfOFmO4MpNnSyQeNgB3XglCs/XW5ni112UKuQTbPQTc0AKoEd89qkXunJxT7Ei/idbMaRMQbQHg5IuPm6aoprAaK2K5JtxejiHiD0dpdOoYtCHpPL6Mb2S/oM9vJN8qkO7so/3kMY/gCHGUBzhUOkPg+0ZDryYYUAw3ZAag4Xncyt2RYeLyiEToL76hKhr0hnu+K9+6EanfRuC4hFyKIeCsDWxCcBdGsOZelNPv+mGY/H1btUpzfc37/D/s8hjN8C4JvmryY16BY+xpyBS5rbmvOW+eiEAOACsF5vHHdOY0iUt7s8t4ECW9K5zxeN5G/3AV6xCGsBld46XgviQIKzbyatwmC8FYW34JICwvCuD8kmy+ENWcgzrMN/hzKfT7DGEMj4CbF2h9WzC1JlRuyW+eeiSwIAAIi8niNT9EFdahkuAJWQ9LL46VozLUaNOPamGrAaqgWmdIxKa1vFt08vx3XrPtYgJtUiwSYPoPRfo7e4OezADfmjAMR1XqCZkZiT7hE/ncswLAgABgxpZIQXpHVwDtQ8NY/+d7Rdyfzhoh46WJlqyGlml1JxbiWHmtCxFtdhAUhGzOb89ZlUcV6IKSYO0mAS/E852UHjIBJxKM0mlR7X5NsPEmPZ5vzvciCAGCk8GINb/0jSob9RuhBu5PxBS6sBu7N6y6uJVT7KvZ4Ubk2NkQu7Ts2tcK1ILgSrlE2d4Y15yB7wGLX6HKf2zCGa0G4ETCJ+v6IbG5p1i358+3cDQ39gAEYHry4dsfmTyV0+xKxuOZudul1JxttxOtnNbDVQMKrWh30+LWJvIM83jGG0wUT+Y2z01yKrFq/CCvWzhBHwLqwgcp8diMY7AHTcdiCSOetLV9aUWw7YzlvS48IGIB3hdPJonLv9Hi7c2FSp4hXWA3FCnYns3fTFLdLlAwjj/eoUbN6tciC4Eq4mGI8EBYWhJsFEXwRji2IXhJhZx8J/JOfX+HkPtdu/vdZbcW/814eADAU0QidsxpU6+K4atxLUUzFu5MlNbMzxVYDIt6jDn/enAfcopqXciVcSLZ2NrEFwZ9XBSyIiN5bCsvm/jkUAX/h7r7lX1hRvOSLy3tP8V4eACDw8ng5nYxE8h4v4nW7kwVZXBPC+3argZvkoB/v+OBQGpr17bhi3tekmqIUWQhwmc9zRIMEPKJapbBq7T/jnsf3fOmOov2FFfYlp/+s+wTv5QGY2vjdySgK+gZdNKtoDO4yHNxqENPY3UnNEHm8qTuR1TDeqMmsFr0gRB4wZ0FwMx7NJgF20wmDRMAJGhE6TvO9z5Sa89aBZt26K6H1nkXnGvKAwdRG9GpYVhBb/ySUKnQn44hXdCczr6bIGt3JxinuIpw9u8XrhtbIHnAFLYhofnOpUTYOcCEG74hB58M/tHIlHBqyg6kIN0Jnq4H78aZ4e3eF+/EWRXeyipUM62YXjet4cQ0e7/iG84A/2947ky0IroTjbmgiD5g/zzKf83AGP28wAlatgZBivRlWjKfo37Lpdvu8OepmNGQHUwuOdHjrH/Z4xeKaOjSPd5TCSxEOb1nOg7uTcckwR7zcFhJWw8TA9YD7hAVBEfD9IZn7AduiFDmoBSHS0Og4dLz9Ydl8Mq6YCveC8CrhAJj8iHQyUUDhdycTWQ1+tFr24jnSEOlJNEXlSie6aPckeHFNta6JahtjsBomFr4F0axZl8W4Ibts7gwpLMBsQYw+D9gVYK8UWTYORBRrS1I1cinN+QfhAaMbGpjUeNu78+JaQrVXJsTWP8V+kccbwGrgaJd93rBq7m7I9XRFVLYaNiOPd4LCFkSraMhufJsjYIpWn29S3C2JuBBjNBEwP4cH74rMVkZCd/YlVVNYEMl877lhFbsig0kIZzR84a7H3s+9GkKKdVFU5V2GKeIV3cmClQzTFJWnlP1hxdhTlytsmNm26eqmtu7oORDeCY2wIFa4DdlZgLkUmS0IIcD0mY9GgP3BN3pu7E7n3wH6eQt9lWkWdh4iYDCpaM12fyCmF09PqcXPNCqFyxpy5j0R1SDhtUXl2qiFlwZHu+nlvymFFfOV2lxPJ41rY2KXYVgNkwEuxGABTuady+Kq5VkQXilygPOGh8iiYKtLNYUAJ3gRTvcasgMw0UkusY5P684ciiiupAvn9sZcYT0J5X/GNTtwI3SOeNN3PFqK3f1UqTZr7KjNFhY25eyGc9bsRMQ7ifCzIOgzv4xLkVmAOQuiMhEwiTgHAHlnX1Izn6TjtaV08xyRhgbARKV1xaMfSbc7n40r1k0RxdwYUsx/D8vGn2l6JzzachfDcAZfcG5Gg1WK6PYrdfm+f5+VNZZHlJ7mS/v6jvVeHkwi/C2JhAWhmPe5hRjOwYQQ4NHnAYvBAu5ZEHRuPkHHhwUBJi71cuE4uijOTGnmjRTpOnSxvBbR6WKhk11cLAGmjCJaoUFCvqdWNjvrNGdxWDfmfOGnHe/3Xh5MQtgDbuWG7FyKfLgFEbAbGp+TSRLgmGoeiKrWloRutqX9PeEAmCi0yL87rjlvn0ECScJr9Dap9l5O70ku6wtkM/AQiyR0LJp27q6TjQ2zs5uuacr3NGRoauq9PJjE1GTcPeESqnlpSDYeqMsaL4QUu5RgCyugBcFpigk6vxL5orAgkqqVi+nmOSICBmC803jIarhZRLyKRREvndSVmBqS6LLdQNHJnrpsT9fsXOFq3vrny1hcm1JwHnBtbuNsml1dSuJ7X1228EJIswOXIovhWxAUAQsLggQYFgQY97hWg3kmTQFvDMtmsSFnvB6lC0JUrAWwGXi4VoNbuRbXrE7O4w3LaAs5VeFmPPVy78xa2fhObbbn/pqcubNOMUsxPk/4fDns/BnJEOeaWJOw99PPW+icuz2hGedhEQ6MS1pIeBP5zWfEFeNmEt7NTar9WoSF17sYDj/Bhz28SGSwV4PilgzPUa0w8ninNuwB191uzqrPGt+qaSs8MJMi4DrFEhVsQSNgIcC8O3beYQFmC0LsigwLAowrWm999CO8uJbUrZtiuuWEZPN1IbwVsRpEFDIgupOpVofY3p0bocNqAERrpnRMU86e3ZgtXFaTLfxidq6ws161D3IELM6fcufVcAefv3zjV60DdKwn2AMe3BUZ3dDA0YYX1+Kq81kS3x+R+PYmdOt1XvzgEs7AOZi8iOJt/UM/d9IQuwzDagBD4Tzgutu7ZzUq1mVNsnF/g2w+Xy+bbgTM59Fh59VIBt/8RVrkkDxg9oBRigyOKpzHm1DsM5Kqc1NKs4sUKbzGkUKQHF4xWLSF8JKIq/YeGl2pvL/LMIQXlEHrOzaimbMSuvGtJtW4nxfhGlRrICqCgKAWhF+KzBaEvUVYEKIbGiwIcBRg4WWrIaWbP6aT0aHxulglFqlkARbXSHj5GBxxiD3X2GpQrWvQCB0cke7uY5pyG2dHNOuyiGr+ok4u7KyTTSHA4rwqd74Nd3BAwOc3lyKzBSFKkTe7uyIjCwKMFWJxbYV9Bk2/bkyqRi+djK+l2r1FsXIn7gjGUKuBxLcriV2GwQjgLIhouyFKkcOK8UC9bD4/uAg3ym5o/hB9ROg8dy0I60kKMrKcBYGG7GBMaFzR/RGabp3Bi2si4iXhTYt2kCSYZU7YYY8hVkNSM1+ixzpJfK/iRuiIeMFI4FLklGbOamm3vxWVzfvrcoUXGjRehKPzK6gF4S3C0fm6n87/LQnFVNKafV6M09AQAYNqwRFvTDU/x3m8JL4OTcGE1cAnZFCrgaMK4fFqttjenU7sa7C9OxgtXIjRuqJvVlq1vh1TLWFB1PIiXAW6oYksCA4SvG5oScXK8p5wwoIAoNJwVkOEIt6Ibv44oVq9dALu5YU1N1Itc4KOYAgBZ6sh7+zmrX/oMZHVAKsBBMHvhsabctZnCw98OksCzBYEnbPcES9oFoS7xlHcR4GCKEWmgYbsoLK03tr9EU4nC2vWzWHVLMaFx8tWQ7A+DSLi5ZOYjsWLawnd7uI83lg7+vGCyiC6oeXs2VyIcXq2577ZXIihOQfDXC1J555oxF/u3BzO4POXBViz99OM7QmKhOW4bpyfWGUjDxgEh7Ma4rJ5ZoS7k+mWE1VNkccrhDfg9M0V3qJnNVidJL7XteR/EzkZVgOoIFwJd+rt5qy6nPHtsGzcN1s2d87IWaUmnSLgPAlogPOYrwPXA+Z2lNaWlG62sQDPQQQMgsAeb3JZb2tCN38cV63eWN7Zm+DV3qBWgxcxiIjXFd4Ncc5qWG6Fz1kDqwFUAS8PmIKHS2uzhQdOzxrbamXr5bBiiKb+6QALxoMWRLvfDc30SpGxKzIYBY2e1TA0q4HTyXixodwJOOzBwusvrqluxJvSnKtj7cjjBVWmu/uYT+fs2RGl8L9IhOXaXOHhetl4KqGYr7P4BprNeQEFR8D0/RNJxZLdUmR0QwMjgCNethroRPpRQjOLJL6vizxeER0EtBqE8Lp5vPQzp5NdJ9LJYDWAsSCz5a/iunManXufb5IL/7NJMW+lSJWDi71Bd9D21y/8PGAuReZKOJGGBsCREAUUomTYuikxpGRYnFRlTrhhDxHxulkNvtXA3cnodVBAAcacdPvTH2zVnZP9FqgiyMg7e0XOeoBznQX4baXIupXjPeFQigzeFW6EzicjCy+dNA6dTK7VUKmsBk5y55JhbpKjW9ekOasBES84iogFZd05k8T3RmGvVSJ3fYgFkdAsUYrMi3BiSyJYEOBwWlYWjourBnu8P6KTUJQMu5VrFcjjpUhCRBOiZNjuonEdN8lBxAvGA423PupWbSrGze5sz349aNWmGwHzOe92Q+M94WBBgHcwWDIsrAaafg1aDaM/+cQQVoMrvBQBvMQFFKIfr+xAeMG4gndh4eAjods/pnN3MwcfQfuVsH/sWhD2/oRqbhnMgrgNFgQg3GmXOaQ7mTvtcq2GAItrJLxiFwteYPPyeJOacS3vuQarAYxHRPl8u/m5wSCkEp36vACErqsDdIwnRB6wYpx/ppuGBgtiqtKy8nfHccRLUy32uyrfnYwtCzerQZQMcx4vIl4wnuFZoLDfNMuzIILPAt0sCCHirgWhWdmWZcVzsCfcFIV9Lt5lmKZDP6mUzyXGoNXg9eMV6WR+I/T/RMQLxj1VWf/wuqGlhAVhbQmrplwvG+fNUjd97NQV3X+NcuQpwuAKLzfJYeGtVHcyeq6b1cBWg9sInR6/Ft3JwESjKpk/dH1xP2AKSg6ElMITM7NGdtbtPV+ruX1TvKn9kVO5EZD38mAyIvJ48/YZXm7jZp5Wibt6JawGf3qm27vpDt8lSoaRxwsmKNXIeXctiN5STLP2NeQKz8zKFf5ffc64KZE3vxmVNzZ9DOX1kxO+m4uSYb6bi6oed0EhSFWPGGw1eCeVazWYnSm2GhDxgglOVao96Xrhdqwx1ThYlyu8WK+aT4YU46HGtp7r6nHNTD74JPKmUT8igXStBjoBxEnEmQnlTpJhDld432418OJa64ptf+29PAATlmr0ORHd0GhQBFxq1Jy3ZmcLu2vaNnU1KIWrm5ARNHlwp0+FM1K67TZCzzt7g06f/OEfh469O6kZIo83dScaoYPJBV9Dfoc/EmD3GuIIOMA1xHvKpSloiS/rK9VrTmlWrrBnVtumDfWycU24DXbdhMfdZdg8My6sBs7j5WkTnTAB7tpiiKwGz2rgiFd0JzOvxi7DYLLi97am8/zQNloceLBtF2D2yCIc14uletUuUQS8pzZrdNbleq6rlwvobT1R8a0GEscbRcRb0e5k3iIdlwzrZheN6+j4YUyXwGTG39WFroGbhX0nLAhPgMtcJ8MZvJ0RzRxLMboumygCrhMC3NNVm9t0dV2bET0ZwczEghfXklpvKwniTd6eaxXsTuYKb0Kz93DJMEe83BYS0yQwFaiXveIk34KowH6GQoBp8C4xYRLgesXc3ZArbIgo1rUc1DT8tOP93suD8YzIauA8XrVcyXD5D39Yg6dWvLhGQ2Q16FYHHf+aqLYxBqsBTCV4VlmNnbzZgkjoRSHAjbKxh16jM61Z16ID4ASATwrRIMS3GjRvWhTgruwPcRy2LHTH607GVsNmLAyAKclgQ6ohWRCBu6HxVwpyeHPPCAl5KGe+FFUMml06YnaJIGecwikx4mTQjJtTojuZ16shwMkgxhCrgU4y0Z0spThXc5McCC+YyohMohV+fxSjYv1RWITjdN2yB9ykWrspAu4ikb9mDvqjjD/8ckhhNQyZBrlZDQEW11h46STgk4k93qRqizzetIrt3QFg3IwiZ0hnwAp0Q6PBi3BxOgYLcMi1IDpYgJFRNI7gRiCiZDhvu1ZDBbZD8Ye/SMd5vAnF606GkuGjQqZb+gCNE67qkE7iMb9HOvFIw/9dfh4/3zsUqDAswG4psnNTyi9FDpwHTF+FAPMiXFEIcEQxu+g6v6oFFsTRp9Vvgec3ABm0GoIvrh3K47X3UETdlVLMq1vyv0FWwxiSKUnvIdH868w66eQf/FpqXdwlfWVhh/SNBQ9LF9L3Xz/S4N/j36fvv8LP5+OI49FxvZcAFaJF/t1xnIZGUfCPBlM7OXgJaPuJLAg6Bi/ChRRrd1Q1O+nxa+nabMIi3FGCu+/zdIcX11JDV1xZeEk8D/8QRzKE1UBDWA2iEbrXnQx32zFDiGS39MlFHVLCE9FbF3ZKvyQhXb+oU+qg8fAwRgf/Pj+Pn8/HEcfrkE7j43svBSpE662uBSGCIe6fUqGiJrYgPAEeEBaEYna4KZ64JsccvsvyNCelFQethkoY/TxYwEXeImc1cCN03UF3sjHkqg7p/d9/WPrY90gk56+XvkVCeTONB0g8nyUhfYnEc68YndKrRxze7/Lz+Pl8HD7e4k7pW4u6pBhFwh/yXhZUCLcU2WqlGelNCcXtHMjXZZBrk6Nf1wP2LAjF3B0RWRDYAXxM4cW1NFfZKMbNKTb4OZ2MI95KlAzThytOFN9q0NysBkxvqg9FosewLTB/ndQ6v0P6BgnwTd/vkB6mqPVJEtI/kYgOXP9rqbR4w8gHP4+fL47TJT1FXx9e3CEtWvQrqfknhvRBfm36E7CtTYUQufZciqyaop8KXUtviOtKWBBB8oAtkQd8KAvCbWQ1Z/nmcHLJz3GNVhPXajDPpKj3xoTfCL0CHyoP12rwshq4V4NuXtciWtzhQ602wtt9UJqxeL30dYpMb/3+eunBBeulxylafZnE8wCJZSnziDsOF9bhDP+5fBz6+S0+7qL10iYW4AVd0udveFiaSQJ8QiYDL7hScOqnsCA0i4IkTv30POAAQdJgBCwKMYpuIYZsdvIiHFq4VhGRU+g3dxZWQ3Fv0OmMGBzx8klBxxGLa6Jk2Lma20Keg+lM1Vm9Wnrv97qk6d//lXQRie4qGlsXdkl7SCAPcMT6g25XQFk4gw4+zg82epFwl/RnGja9jrK4S/pXEvu5bHfw3+P9aSAgvE8iL4iTYP74kAURzB4UAkyBlmtBUASsWLsjsluIQcdFR8FKI4x8b2dVN4+3Mka+azWIrIYB0Z2MpjFie3cY+WOCsBpIeL+3Xvrm/HXSqvnrpe0kvqUM2wtd7iCBLCukox58XI6IORLukt6gx/5jYafUTRH3jzLrpfS//lzC515BqrUwziLMEbCbB2yKUmR6/NqWO3DtVozBFBbO49Up4h3cgSJg5RoNFnB/6x/6GSksYwhN8Y8hsZvBGQjf75BWUuS5Y9EGqZ+FV9gLlRbdoYOOza/BETAJ70Eaf6Roe3WmU7qAovC/8/5EUCGqkRLK4svizZVwYRJhPw+4mYInpIRWgKHJ2/ShcVZD5buTqby4ZovkbXeXYQhvtZlHU3teXCPR+yeKOFfS1+0kiAPCYqim6B42Mp4fTJHwfvr5scUd0o2LOqTm61ZLH/b+VFAhqlUMJRbh6BgiD1i1RBZEUnOunYO+K6PnHWWLXsQbtGxRTHXoGBw5J7g7GVsNKsoWx5JMn/S38zul1oWce9shbSXhG7h+jIXXH2xBeB7wK/TzJhqLWYAzqIirONVqAzAkD9izINwsCNENDdf0yKhWww4ebsTrWg2cTkYnAfJ4x5j566QTOZ1scaf0SxK9l1n82G4YKopjOQYjYPpb6OdNi9ZLV2c6pLrMFgnbmVeYajTA8i0ItxtasRTKGS9FZHfhnIMqXNvDpBqt6sQYYjUkNfMleqyTxPcqtKobW37yS+mDHFnSuJki38cp8tzHEe/RiHqHDr4BeB7wi/TznfT3nXtdF+yHalCt1q/CgvAiYM4DjlBwJXaZWQ4L4ojwh1KNJs082NzniNfN4zU7SdivQW7gmDLtGk94SXQXkcBtoq+vUsQ5cLSFlwdnP3D0S9+/RgL8a/o7r1ywTvoU/93unw8qSbU2PXAtCMezILgbmiW6oVGUjU0P/hL/feXvjmumiLeS25P4Q9xV+UPNO/8lSoa9rAbcDceOJZb0NwsfkRoXd0rXkcBtWtQl/Zn9Vk/wjv7wom8S4X4S3x0L1ksrFq6XzslY0vGlEgS4GrAAD93ui4IsmuUGsxc5+nUF2O+GZu4RpcjtjsiCaF3dDS9/KOwDzcwZn21QjJtpOlKkN8+dhgS8C/qDIt4BinZfpu8f4cW1GIz4MSezXjqeBO58ErqVNP7kp5S9TQCP8mDx5YU/Et/9FJUX6et1mQ1STQmVb1WDZ7tiEU4zb4yrZpHGa+52XQEX4WiINDQvCyLGs11ehNON0Iyl697nvfzUhgsowrJ55ifbCjfOkk2H3vzXm/nux28+3cEOf1NHNNiucC2L/QnF/B2nrMVUI4Utqcce7q+b6ZT+iQRuHQnda6KQYpyJLw+R+dApDZDwbqOvaqZL+jwyH6qLm9lkntmkGDeFFNOOkQB7za3eeU2PYAxmQbh5wLujivVQQrcvadb6PpHJlKbwDfVS7dhMx2MnffPnv21Nt5s/rpeN3kbN3pukN53f+HJv5kiHW722mVPK9iZVcx19/Wb4lk0f8/4CMIb8H+6d8IgQX24JuVdUmdHwRW+8DGE9uH/XXhJgY3GndNUNj0i1JMBoQVlFOAKupdlvk2L+W1w2tlDwtY/Fk0e5a3s4Y9CCWNZXCism94J4qkk2fswZEJnuEjdTmlr0lUrH7nx136wXXn39H5/8r1e/c03HM7fHdMsJywbd7fycv/Jv5sgGf3Ccz+scSKrG1qRiLI0o9hnpnxgf9P4UMIaIyHeD9A2azrP4vjpexZcH2yE86G/9I/18J0W/53yvIB3n/VdAlQgt7TkxpdlfTarWLyhQ2p1g24ECqPLX93CHXUrTMeKqxb2AdzXIxuqobH41lu3+6LzVq6dWH4+ntv/pYwf6++e/1X/wiZfeOrj1+o3P/XG2bLwxq80oNXOkGjCrwR+ebXGQ3vwXE6r1QFwpXNSoWB+fN2+KveHjhKvXSZ/iDAISM85yeH1IhDnuBv9dnvjuXdQl/YrtEr55eP8VUCXmLl33vpa81UzX75KIbGwlsRzgBjoijzfAYE1hPUjo1gEK8p6qzxo/JS1obl29ZUrZSdOefv6VmQMHD95TIl6n8QPr+dIstViacXuhlBZvVPk3cKTDTSuz+uku+vukbt0WUXqaZ1wBo32sEe0iLel4msKfTWKmk7j9nsTtgBBfGocL33gYQ6Ly10h8OxZ3ShdCfKsPR6LR5b2n0DV7cShXeLAuZ/wpqjkHg1gP/mA94HqBmGK83CQbD0Rka97n7ixOqT4e05544dXZAwMDd7H4/jup71Udz5bqFLM0u63gejSHvWmjG1xQ4YmvZj7Ljdd5lTNyqXas93eAMULrk46d3yHVLeiSvkcCXCRB2+eV875D9MbL8MWXI18a6+km8XWI79gQ0fqOnaNa4VDO+CFFqI9FFXM/R61BBVgcg6Nf1XyNZsIdCdX4Rsuynqn1mT75p1c+TeK7gsV3695S6V8efqZULxvVE1/VfJYTuRP5ngaI79hzxTrpfYs6pASJ2K0kbNtYdL2MgnE7hoov/fwwxHdsab6z8ImGtp4r6tsKZkQx3hAL50EzH3zx1czX6OfORN6eeuL7zM5XT3j9zQOXv/TG/uJv/vjG81f86qkDs1WnNDtnVtB2OCS+JLzPJVXjZ1HNjEF8xx5ffEnEbqHxHxBfcCTS7Z3/LSoXLm1SCj0xteLiu5d0YX1St74+5cSXAt73FJ7dNX3zjpcu+vVze5Z9e+2WrafnzP4aEuA0p5aUeeNGM7xeEAdp/CGpWnfFFeP8miXW8d6fAcYIth0WbpRmL9wgXUViZpIQvyGa6EwU26ELtsNYc6ZifZxE9ztx1SzENVOIb9AsqLeJr1tyPPXE12PaiuK2jz785B/nffuhJ1Y0UnTaoFj9ycH2cuXfwBENFnLdGUjl7deTqtmXUMzrEzJ6OYw1vC/azX3Sh+evl76wsFPK0niWhHdCLbhxihzEd+xozVozwrJxTUgxnZhqvelGvhXyfDXztfhUtR2Gsun5Padc9sstX07nzfaIajwXzTsHgna4HzrEh9bODdPNl5KKeV9Ctb8S0fpO8F4ejCELHpFOJSH7ZxK0bhLg14T4ugI37oZoskPROUe+izultfTz1yC+Y0MrXZ8tunkOiW97SDb+I6bZb7HwBhZfke1AwZ1qcDC2jgKzr7UsncLiyxbE/3f34yenSRSjmtke1exnSSD7RYVbwDdbDI6iSYBpmrGPxNehO978mF6slaZ0aeHRgcVrIUWQJG4P0xj/RRYbpIGF66Xn6ef2RRukszLd0ke8/wqoEhyJpvPG2XTtLomr1qMUpe6j63fgHdf1iAeJt2hLKyLf5+OKtTyh9Z7VeOujU/0zLU2LL3VOjmjWPBLH5WKBTHfeEt2NAkfALOA08sWDdLfbxZUzNI25OLqsd/qUq245ykyY8mL+m7qkAfr+zxT5bqCvl2e6pNN54dD7r4AqECLhpetzLkW4t4Rl87GIxjsdU7QaVAM4ahad0riAy2INWJtQ7H/+zPLffhoNdjxEcrVuXUB3pnYWYBLeAxVpok7Da1F3MJm3/yOhWau4ucYc3Tmttbt76tV3HyVE5Nsp/dOiDulXJGjcx3dciq+obHM31dy2sEtSFq2XPptZI6H1aNUoTZtxY8+JddmNZzfKxm1NivloSDb3RfTeEl2nwRbgaeYrrv324gBd9y8mNHsNPX55Im83zF23FcLrw5HonNymU+iN+QrdnZbRm/Qsfe0XDZbLvbEjGfwh0p2PIuC3Eqq1g8R9JQn9RWnV+BQsiLGBeyOQmJ2zoEO6kyLKF4Y0Lx8/o8sT3w4hvs8u7pRuuuERqZG3uPf+G6DCcMRblzXOrsttumV21nisVi4I4a3EwrsQXjd425XQzTV03V9JmlLPZczey4NDlKbFdefklO58OUYCHFHMZ+O6vT/NU4agqSZ8FxTZFPYAfQA76LFVvOIZlQvT560uwYKoMtwVbOEjUu38Tumq76+XCiTCe8ddxgP9LbyDMosv/X2/o6+LuJ8vxLc6nK51n5DSi19qUo3bZmcLj8/OWW+GeI2GF8rLXMPDHr7VwMfiiFe11tLjl0fbzTpEvEdgzvLeU8K6dUFjrpBvks3f03ShX2QulHujRzg8C4LHtoRCEXCePeDC9NYMLIhqQyL2gQUPS58nYVNIgLdRdDmuCi74RnD9I9IA/X0vLVgvraXxzUyX9IlSCc3UK0qpNK11Zd8JEcU4O6aYt4YU89Fa2dgXEhFvUKvBneWm8s4Aie6LCc30rIaehprVW7Ah6pEQFgQJMAnvhQ3ZwgNN9CbGNWvANd8rkO/nTkfeIvHdkdLse+KaeSFbEJlMBhdZFeGc3/nrpBoSt2tpFOevlw6QII+L6FcsANLfQTeEN0l0f0Pjhu93SlGO2OlPxzZCFaRl2W9PbNbss+h6XNIgFx6vlc03ueF5gkZKp2u0zHU73MHXtrtQ7+wi8X0opdpXRuXeuhlLEfEOm9WrS++N5sxYSDZubpSNp7kZMjdFDiq+YnjTEjrWQFK1t8dV4172gFtkRMBVpSRN4+2ESODO/n6HpH9vvbR14QbpAG/dQ9P7sqI4VkNsa0SDIvKXSXjvn/8rtJGsBhGt+4Q5y4tfiqvWbXRdP1avWG+GhPBSUFTuWh3mELnAntVAP7/IWQ0p1fkue7wQ3hFSoqlJQrE/mVCMb0UU82H6oF6O5l0DPWjCtRhieuJbEM62BEXAnAVBd0mkoVWXaSRup9D4yvwOKU8ivHVhl9QvthU6ShEwv64Q3g6pn8T3KXrs3xask1oyfchyqBylaVxAkc7bZyc081bOamCroYmEV2QlHH59jmTwtcy6kHezGlK68yCJ7hVJdXM9rIZRwqXAvOVzXLEWR1WzJ67bL4tk6UO+baAhLAg6Hgk6N+DZkVDtlWIRblnvdGRBVA9ewGIBXviwdMH3H5aWswCT4PVzBDzWAsyvJxbZ6PXnUyROf8vyTIf0ZfobP8q9iL0/GQSErYaWvDWXRHZJg2w8XquYb7Dw+otrgaJeL+KlY7DVsDapF6+IymZd64pubP0UhIjW9+GU1ptO5c1FSdUsJHXrFeHrVEiAD1kQ1gDdgSkCtlaxBRFHHnDV+SELMAndgg5pGX19LsMWBE//x8iC4Nfh11tMr0t/w3P8dyzolOb9cK10KhbZKocoGSbhZauhSTYeq6uQ1eDPXnmBjSNeeuyhlGp+lx6Dx1speN+1hFZooTd3Mb3Jm+irEOBkBRbgxPAtCN0+SMffTtOie2jacnGLiICxCFcteAGOIsyTF66TvrqIhI/GVk7zEoJIEWm1omD/2Pw6XlrZ1vkP0w2A/g6+IfDf5f2JICAc8QqrQTdvEVkNuYJnNdA1V+5aHO4Q1yxbDSIFdRcFTg9S0HQFe7zzVq+G1VBJ0u3GB2NqMUVvboZGgYT3ZfeuVyELgu/CvIFnvthPgr6dHhvMA4YFUT14ar/gARK8TumCReulFTT9f44i0f4fbHJ92EoLMB+Pj8vH59fh11tAr0vie4H4OyC8FcO1GoqiZJithjrFrpDV4M5W3cU1kdWwloWX+7bAaqgS6fanP5jMW800tVgkBFi1XnUFmD+ECkTA/ofqWxCqtYpe42JYENWH82nZAyaBbBcC/Ij0+qIuqZ9TwIQV4ZUj8zhcUN9t+M/h53sWAxdT9PPx+XXod9r5dfn1vT8FVIBWrfuEz2j2WXHVWMqLa3UyWw1idhk84uVNNdtFwx3PanCzGrC4VmU4Ak4qVjO92RkSy0ELIsVTmXIf1kiHiID5JHH62YKgr3eT+IpSZOQBVw+OgK9bI30i0yF9lURRJVEssDjSeE2IJ4uoZxf4gyvS/tI4/HfF82nw8TzR5eOr/HrideHxVozIyr4TOI+XgqRbOJ3MtxoCe7w0RLTrXuu7uICCXuNKul7rajKwGsaE+FLnQ8KC0JzFHAGnfAuCMxfKfGAjHYOlyHnnYGKIBcHNeCSUIlcN4QGvk06mKHTuwg7pX2m0kUBuovEHEtQ99PMrJJpvcBT7g42ufcDfv2OwrcD/Tt/z74vn8fPpOOJ4fFw6Pr+OeD1YDRUjtLTnxDntzhfZ421UjMfr1ENWQ6BtwjjiHWI1xFXzV/T45SkZJcNjjm9BJNiC0KweGq8Mfjj0QQ1+aAGGEGDNGkjp1jbRjEctXsx5wCjEqC43rZWOI2E8nTuKsUgu6JDyizulX9D3a0k8HRLSFymK3U9f+0lc3zlcu4L//UX+fX4eP5+Pw8cTncro+Pw63kuCwLh5vBzxch5vSOY8XlNkNQS3Gng2eiiPl7uT0WwUVsPRpHV19wdSmplO6laGPuBNg2lo7gpo4CHygIUFURQWREpz7o4r3A1tM7qhVRnOBf5ph/T+zAZRjvxF+voPi9dLXycxXbBwvXQ/Ceuj9D1vScQ5ws8MDvrZe/xR/j3+fX4eP987To04LprlVJSWpW7JcFp3fuZaDW4BhbAaKlkyrFkPJRTzf3MeL/rxHmV8CyKVtxdRdGpwFgTvhCFEs8wHOdLhly2yBUF32u1J1biXRPhCbsYDC6L6sEj+xJA+SF8/kumQTiJBbaTo9Rs0FpHY/pjE9abFXdKN/uCfxeP07+L36Pf5efx87zgQ3QrDEa+wGijibcy5ebxDsxrKXVfDGr7V4C6ov5j0rYZ2Fl5YDeOCmuwWEQEndHshfTjuIpzfiL0iFgSdBJ6YswfMWRAp1fwmV8LBghhbLu2Tjv3RBunjNzwi1VIU27CQ++3SV3/4P/O/8+/x73tPBZXG6072tpLhwTzegItrLLws3tydzO3V8GBcK1zOVsM8WA3ji5ps9wfSfh6wTgKct91FOGHQl/lwRzjeZkEo3JDdXskWRDLfPYNOQlgQY0iJG/RQBHupJh3L4vqOQY/zv/PveU8BVYD3XBN5vF7JcF3O607Golkhq4GOIawGP493LiLe8QmnoaVVIyUiYFGK7AmwF7UGHr4Fodt0N7a3k9Dfm8wX0A8YTDl4F/BD3clMr2SYg5NgEa+w+cQO5iJoEt3JeHGNsxrg8Y5zalZv+QDnAXMWBInwxqRmiiwIUYpcCQtCnBxCzHk6tD2hmyu5GxqXImewCAcmPaVpvOW6sBpU+xa2GmqGLq6Vu2aGO8S1NTSrwVzDEW9yObqTTRhas1s+QHfLpLAgOA2t0qXIPB0Sgl7sp9fYQSfKqpTfkB0WBJjEhPzuZLrplQxXujsZB0luyTCJ+5XNKBmeeLAFMbgIp5gF+nCHdEOrUATsWRAp3dnGWRAkxBfPuQulyGBy4nYnK86N624j9DqFt/4Jvrjm9lXha5NE3M3jfSium98NI4934iJKkfNWM/cDTgkLwhVgbsheMQHm4+n2QfqZK+Hu5j3hRDe0UgmLPWDS0LryGZHVwCXDIcWqcHcyd3HNE941ibx9pbAaMhDeCY3bDc1I0Qe9WETAFV6Ec0uRWdCdgzRV2s4WBJ2k3+BFuHnzsCMGmPhwVgMvrtFM8laKeCvXncybPXqLa7t4cY09Xs7jhdUwSRi0IDR7QUI1e5Kq6XZD4w+dToB3nBSjGMKCEN3QrG30dVVCNy4Re8LBggATlkMlw24jdL87WQUj3nZvcY03u0TJ8OSEF+FYgOmDX0zjUDc0NvjLnRwjHZ5vRV/76We3IbvuXBRWN6MbGpiQuI3QjbNJZJdwOhmXDLu7DLsebxDxFVVr4trjkmFzDQVFVybVjSS86E42KeEIuFl3ktwP2C9FFgJcjW5oqrmDHlvF29JzQ/Z5KEUGEwhRQKFac0XJMOfxqs4bYuufCloNHPEmNbdkGFkNUwDXguhNcx4wfeg9fh6wm+JSIQuCI2D3+20k9CsTinHJnLseOw2FGGDcwyXDGpcMG2fHVeM2d+sf7k7WSxFvJawGjniLA3QcinjtNfT45Yl8TwOshimC2wuCBFgzr0+qJMCD3dCE8R98+BZEvvct+nk7nWT3pNodkQeMPeHAeCYld5zUrPWeReftEtGdTDbdJjl8TlekZJivMZHH+xDn8fLi2lxUrk0t4nc7H2IPOM6bcrIFIQSYIuBDUWuw4U2vhAUhSpGNe+PcDY0X4RABg3EIb/0jdhkezON1S4YTNCsMHPHy7FLk8dq8uLY2rjrf5baQ6NUwRWELgndFdttRHmrILvKAK2FBiGmWEHPeb2obR8AJxb6kRe6dPm810tDAeOGQ1cAer9+drBIFFOI64j3XhloNeUt0J4PVMMXhbmgiDU0xr0+8rRS5MhaEKEVmAdZ5V2RrO0XZK+n1PAsCpcjg6BMSi2vFubz1jygZ9q2GoItrNMS5L4IZ5480+1tL5/+VzXcUa2n2h8U1wA3Z1wkLgkuR6c7vWhDcD7iiFkQfe2aiGY8oRdati7ArMjjaiO5kevFLFJFyAYVnNXgeb7lzeZjD7U7merwiq0G11qZU87vJto3181aXEPGCQ3AeMJci04mzmMRyE514wgMWuYiVtyDcUmTVuhiLcOBowVYDie5ZdK4vCSnWb/3uZOJcLXcOD3eIc52iZhJw+ll0J+OIN6miZBj8BfxKOBLFDI0CTZWq1g1NlCKrh0qR0Q0NjCXcFpIjXjovRVaD252MF9cq1Z1M2HaiZJiFl/vxnoo8XvBu8J5woh+w15CdpkxuKbLwgCsUAbMAa7a3CGetilEEHBfd0EqwIEDV4YhXWA2Ku8swe7yVWVxz1zfoWhmg85wiXrdkmLuTIZ0MDAt/EY5OqMV0Am2iE0lEwG43tDIn3UiHd5LScQ/GVWtHWDVXhnX7kvAd2BUZVBeuXOPuZHQeLnELKIZaDUGCC3q+yGoQAr6LjiUaoXMeb6SvD/vogeHjlyJzHrC7JRFbEJXLA/a7ocXzxYMUGewI6da90XbeFRlpaKA6uHuuWXNpVudmNaiV706W0tlq4JJh53LOapi7Dnm8YBS0ii2JeppTurmQ84ApCn4l4UfAdMKVPRFHOuikjWrWQER3tkVU416OgJEFASpLaZob8RpncwGFiHhl08vj5Yi3zHk53OHP4vzuZF7JMC+uYZdhEIhWz4KIq1Ymolmbwpr5SlwIcIW6ofFx6HgUffTHKAKOqubKiG5dhDxgUCmE8CrG2ZzHy01yamS3ETqnkyUrUDLs2XG76PheVgMKKECFSLc/LRqyh/PmIhLHQtxvyC4WzsqflCMZbEGk6Vg0HRxgDzjG/YA5CwLd0EBAhu4y7O65Zr0ZIrFkqyFd5lwc9hhiNYiIlxuhU8Qb5V4NsBpAJWEPOJK3mlOiEMPalFS5G5q3wFAhC2KIn7wtoZgreUsibEsPRgV3J1vZd0JasUXJsGs18J5rdI4Fthro+ZzHm3cGSHRFHi89ju5koHpwFkS6vZhK6kaGBTilW6+kOQJ2p12Bx2Apcr74FonvjpRm38P9gMWuyCjEACOAG6HzDhQksksa5cLjle9Oxrab250spdpXRuXeuhlokgOqiciCWOEkOQ845eYBvxLzV4yDRhQ8vOmcyANW7e1xrxRZbEmECBgMg4jWPWg1VLxk2LMa6GevZNjd+gfCC8YEkQWRt5qbVXNRVLE20Qn+SkQIMJ/cFS1FpuGIbmhp3b4EaWjg3fG7k7lWg+hO5i2uBS+goHOSA4y8m9WQ0p0HSXSvECXDsBrAWMK9INJqMcVZEFHF7Akp1stifys+QcudvCMcwoIQuyIX+5OquYOmdivdUuTe6ciCAOVgq4HzeOn8W8KLa7WiZPjQORko6vUiXjoGWw1rk3rxCu7Hi61/wFGBsyA4DY0X4cKKWQgpphcBV86CEFkQnAesWtuiqrWKIhh0QwPvgCNe0Qhd7DJcOauBz0GRCtleLMVFHi97vOZ3aWYGjxccXUQ3NMVqTuatxVHN2hSSXQHm/N1KWBAs4ol8b4ki64NhxXB3RVati1tEBIxFOOBGvMJq0M1b3JJh32oIGAAI4S2WYnQuRyjijejOgzGdrQarfh52GQbjAV6Ec7MgrIwbAdsVtSDYr4uRADepTn+IBDimGqtavDxgWBBTG9dqKM6lm7RbMqxUqGSYAocEzbridJyo5uyiWdfaCAlvDLsMg/HGzPanP8iLcKm8uSgsm4XGXOHVCJ24PGUTXhlHEWVP8iMP9wKySYA3UwRsDtDxt8XYgqAIeA4siCkL5/F+RrPPiqvGUl5cq5PdPdeCRrzCMqObfby9OEAR74txYTW43cmwuAbGJRwBt3BDdrEIZ21qVMxXBiNgIb4BbQgRARdJgO3+kGxsp4vibvaAkQc89YhwAUXePjulcsmw8ZhvNQT2eGmIVDI6VkyzdoU1c02M+/G299bVZGA1gHEM9wOeI9pROoubcmZPSLV3UsSwl4SylOauaHRxlDvhhzPERTVoQdgHWYA5AmYLgiNgCWloU4IQN0Jvd74otv5R3t6djEuGRy2+HCB4VkNMWA3mr5q4ZFg262agZBhMBHhbel6ES2nO1WHVuLM+Z3Q3KcZ/JlT7gN/ztOzJP4LBAkziKyyIuMqlyMWLeVdkFGJMZtw8Xq5cEyXDsuhO5jVCD7q4xg2eiiy8wmqIaPaaqNcIHVYDmFB84a7H3p+Se+tiunlOU864ojFn3NWkmM/GVauf08cqYUHEWYBV34Jw7k4qbEGgIftkpWWpWzKc1p2fuVaD2wi9EiXDvDbBWQ28uMYeb1Qx/7eIeLEDBZiItGZKx7TIhePCS41PhWRrXlgxllOU+hz3bhCN2QNEwO+wIDgLQrHubWl3LmxZVpguoRvapEJs/SOsBvNWupGLPN6hWQ3lzpFhDc9qiFHUG9bsF9lqoMcv5x0o5iKPF0wG5izvPSWpWxckdDtPJ/dWilZIgLmCLZgFwbnE7NFR9FsKK5bwgFOq+U3OA4YFMQnwu5MNLRkezOOtQAEF+7t5ZyCsWS+GVevBiFa4nK0GNEIHkwbenTiuOyezANO0bnlSs5+l0S+a6IhMiDIXxzAGX3y8iMcCLPKAZXNHXLVXcjOeZN6aQRcvLIgJjLv1T3GwZLguZ755KIMmmNXAu7L4BRRNmvWQn8eLyjUwKYnmNp0SV5wvJ1RrGUUyz6XaiweGdIoa1XAF2KapY2+pSbEG3AjYuLc571bCIQKemAxthM47ULglw5zHGyziFXm87ZuFgEfdiHdtWHe+yx4vdhkGk5jSNI6AE6r9FRLfdroYttLo54shSATMQwgwXZwU/Q6wB5xQzZVpvXgJC3AGi3ATiNK0lqXuLsN0ntzCVkPN0MW1Mp/9sIcQXoqave5kdA6u4ZLh8HJ0JwNTARLCVs+CoAtiOQ0SYN+CqNgiHGdB7BB5wH5DdlgQE4KQ351MN72S4Up3J6NzTBeN0NeSuF/ZrBdrT0XJMJhKNGuFT8Q1a15Ks9spSn0umXcOuFkQFbAgRB6wOUBTym0xxbi3mUuR73rsNFQpjW/c7mTFubzLsNsInbf+Cb64xusCYgcKinrdiNd+KK6byOMFU5RM5j3sAQsLQhUWxLNJzTwosiAqYEHE6aINKebBsFeK7HvAyAMen7SufGawZDikWBXtTiaElyJeT3jXJPL2lUm2GjIQXjBVIQFmD5giky/ThbKcxHdrUnOEBRE0D5ijnbfnAZt3p9vt/0EX3t+jHeX4grMaeHEtxXm8lexOxsJ7aEF3V1I0Qreu4DxedCcDgOA84JRWnEdRcJ6i4N9zFkRa7I4czILgSrp4++YSXdAHm2TjdzHNvD4qm03Ykn68cKhk2G2E7ncnq2DE2+4trvFml7q75xqsBgA8eG82PwsirhnLKTpxsyB4ES5gKTJfgDE6RqNs7iQRvjOqWue23tr9Ee+lwVHEbYRunE0iu4TTybhkWOTxeh5vEPFlf9ct4nF2cVYD3dSvTKobSXjh+wPwdkpuGhpdNPPo4lnhLsIV3+JeEIEsCIqAOAoi0X09JBf66nPm9aGlm9K8DZL3yuAoIAooVGsuV66JPF7VeUNs/VNBq4Ej3qTmlgxzVgOsBgDehWat7xOJPOcBe1kQui1KkQMJMD2XI6GYZr3cmCtsCstGhvefa812f8B7WTBWcMmwxiXDxtlx1bjN3fqHu5P1UsQbzGpwsxo44i0O0HEo4rXX0OOXJ/I9DbAaADgCbEFEl286hSKir9KFI/KA6SIKVorMFzWLN12UMdV8hSKiTSndXJhUepp5K3zvpcEYkJI7TmrWes+iz2WJ6E4mm26THBbOgCXD7k2a1wlEHu9DnMfrNslB5RoAw4OiI05DowuRLYjlvgUROAtCLMCIY7ycVM1CXLMWN+tOknfh8F4ZVJFWrdvdZXgwj9ctGU7wzKTM5zWcIZ5HN1fObImSgAurQbXWxlW/ZBi9GgAYMRGt8AmRB6yZ7TSeowuLImC3vr/chTiswZ4iiTBdsC9zBEyPLWYLogYWRBU5ZDWwx+t3J6tMAQV3tnO4sRKXle+KK+aa5rxzObIaAAjA0CyIpGaucLMg2ILoE9FOuYvxyMNPQSIB1iy2IHoSWnFBNGemEQFXh5BYXCvO5e3dRcmwbzUEXFzj58Xpc2xSbRrWH6OK4ZYM3/FobWsGi2sABIZLkelCm0eCu4wtiFS+At3QfAHW2YKwenjfubRqpCDAlUV0J9OLX0rwnmuDVsOhdLJyn82RhnieiHh7S2HNKVHE+2JMNdb6ebzoxwtApSiVprEA0wX8Vc6CoAvQjYCFeI5+EY7zQN2OatbL9JiwIHj/udYsFuEqAVsN9HmdRWK5JKRYv/W7k/F7P1rh5cFWA0fNHPGGciS8mrkmJfJ4N9fPQ8kwAJWF20LyIpzbDc1cwR4wXcReFkTARTj2kTXrFV6Eo6nxQkTAweG2kBzx0vsqshrc7mS8uDZ6q8F/Hke8TarD/Zt3xRRrLQtva7tZh+5kAFQRYUG0cymytSzFDdkHu6EFEWBvES7vuItwqpEh8U1hEW50cMQrrAbF3WWYPd6gi2tCeIXVwPutOQMc8cZV66Fmz2pAOhkA1cbrB8yLcCS+7UnNfpa+r4AFQQLMUTQvwqlWTypvL0pohRZEwCODK9e4Oxm9j0vcAoqhVsNoF0lZfN1OdU2qRRGvuSumWg+mvSY5kb6+Y72XBwBUFS5FXuqcTNHQoTxg3QleiswWhOsBkwCbBucBcxpa/G7nQ94rg3dhxtKeEykKnZvQbTerQQ3enexQxOtlNZDw+rsMN99RrJ27Dnm8AIw5UX9XZM4DFlkQzoE0C2gQAWahEFE0e8CchmZen9J60zVYhPvL0GwkRMIbUTaeHfFLhmXTy+Md/eLaIeEVW7sPhHKFF2OavaaZhJetBmQ1AHC04FJkbsiet79CF+MyumCfpa9eN7TyF/QRB4sFZ0GIY5iv0GM9JOyLkvnNzbAgyjNdNk+KKMbZCbnAEe9jNfKhPdfoJhZIfF2rwY1446I7mX0lCy8KKAA46njd0HTnywldCPBWLkUObEFwP2F/EU41DZEH3F5MRbS+D3svDCRp2oyl6z5Up1mt9bK5pD5nPFY/WDJcLKXLvK/DGYMRL73/YZHVYLwYVY21zXnrcvpM6mA1ADCO4GY8woIQDdkN4QELDzeQBcF5wG4amsiC0K1MKud1QyuVpnkvPXXJZN5Tk7Vm1OWMK2qyxsbZ2Z43mvJs2QTPamDxdq0GN483ScJLMxx0JwNgvPH2UmRjOWdBJDkLgu0DupjLXehHHMKCoOkzHSOqmq+SCHTTlPdfSARmoym3JHF/3JpsoWXm7T230tetTbJRSnLaH79v5d7PYQxhNdB77loN1q7oYHey3roZaJIDwPhFdEPjPeFUtxQ52R68FDm5rI+mwMVSTDX/QOKbS2o9redoa/7We8kpCd98KBqdEVGNb9e0FTpqc8ZLcXqvmoXPO/KbnRBret7QkuGoYq3183ghvABMAObkesWuyCnVzid1tx8wR2SjjYCFcNNzScz/lNDMO5LLrM9/4a6O93svNyWZrnV9OKwaX4yqhhqSje0hxRrwU8rKvYdHGn5WA0W8rtWgWg+S6F7xGXUzFtcAmChwKTJbEOwBcylyTLO2hhWrP0pR1WimxINRs2r+FwnCXYm8/YWpLr6z2op/V5ctXNCYKzwYVoxXWHi5UOXw9244Q1gN7UPyeBVjbVIvXpGSe7HLMAATEc4D5lJkiqKWUXT2XEi1D8SESIxsQcjLeiDxtV6g6Dcf180zp7r4Rn7WfUJNtudrtdmedWHZfDXNi2wjXNw8ZDWIkuES5/Gyx9usm9+FxwvARCaTeQ8LsOiGRgJMIrG1UTYOsgBzBFxOEMoN9oxJdPsp8n08rlg3xFQjOtUjMt6VIkTiW0fiGyHxFfunjVh8B62GUkg2d8XZatCtK5LLuYACC5oATGy4GxoJcLNuXUAX9wqaIj8XUqx+3nbmiClRbFGwSOvOQRLfnQnVWJWQjf+RyNt/z9kV3itMSVh8aQbwtYhirqP3dUTiy++5K7y9pSb66loN1loWXuwyDMAkg3dFpgv7Au4HHHIF+AALsJsLTJEwWxFDo2EW3vZiKb28j6Je6y0avXHFmc9pZsjxdcU3rRq8y/QaFl8W0uF4vkJ4Sai9rAbe+udFmk0MdifD4hoAkwy3H3DvKRRxDVoQIbYg/CyIMkO0mnQthz1JxbwvofV+laNe75BTmsZbuz/ibg1k58Oy8Qe2DhJ8I+P37jDBHTr433lxzl9cc0uGuR9vb11NBlYDAJMTilhb9cdPdi0Ic0VTrvA0icB/kXj8uUk29kZU82CSIt3Uit+4YqHbe5O6s5MEojuuWfPjy5zG1hXbMCUmZixd976YXjw9odrfiVDkGlasXSyqzfTeiZsW37xYbL2R9m5m8WV9YnHN7U5mreUmOWJ7d5QMAzD5SWXNU1mAKQL+aUgu/N+6XM8v67OFR0Ky+fuY7ryRyDtvUjS2g6bBv+a8Xvr+qqhmptO/fBqNdYYwgwSTZgINdKO6nO2HpGbu4qKWmGoNxNla0ElshcXgNtmJ0+N0sztAMw6xyzCXDMNqAGAKMW916b3p9t/8t0S20NKkFs4NKeaXQ7mef47Ipk4CUaCptMmLc0nVuCIlm+fEsoVa7GpRnrlLt76PsxNSeftKEt/7KJp9vEEu7GzIGQdCnD6m0qCv9PNb/DhFyI/HFOM+Lhnm53EE7R0KADBViGh9fxvRuj78xZ9bx7cq9icTinF2XDH+VUS6sn1eWDU+1SIXjmvNdB/jPQWUgfdOa1nm1CR14+thxbihIWusbMwWHm9SzD0hxXq1QTb31N5e+F0tPd6UM27g3+Pfx55rAABBMr/l+Hq5dyaJ8ixuDu49DIYB36CSivXxsGqFo6r9jwmlcGNCNe6nGcT6UM64v66tcGNtzv7H+jYr3Khs+DhuaACAt0OiAGEYLaVpvJFly9J1JybUnkRELsyjSPcb9fS1gX4O0eOezYB2nAAAUA1OXvLzv/nYz7pPmP7TjpNOp68n//znf+P9EwAAAAAAAAAAAAAAAAAAAAAAAAAAAAAAAAAAAAAAAAAAAAAAAAAAAAAAAAAAAAAAAAAAAAAAAAAAAAAAAAAAAAAAAAAAAAAAAAAAAAAAAAAAAAAAAAAAAAAAAAAAAAAAAAAAAAAAAAAAAAAAAAAAAAAAAAAAAAAAAAAAAAAAAAAAAAAAAAAAAAAAAAAAAAAAAAAAAAAAAAAAAAAAAAAAAAAAAAAAAAAAAAAAAAAAAAAAAAAAAAAAAAAAAAAAAAAAAAAAAAAAAAAAAAAAAAAAAAAAAAAAAAAAAAAAAAAAAAAAAAAAAAAAAAAAAAAAAAAAAAAAAAAAAAAAAMYnkvT/A4x00fIY24wRAAAAAElFTkSuQmCC;fontColor=#000000;container=0;movable=0;resizable=0;rotatable=0;deletable=0;editable=0;connectable=0;" vertex="1" parent="18">
                    <mxGeometry x="11.995789473684226" y="2" width="55.958375025015" height="55.958375025015" as="geometry"/>
                </mxCell>
                <mxCell id="22" value="" style="aspect=fixed;html=1;points=[];align=center;image;fontSize=12;image=img/lib/azure2/compute/VM_Scale_Sets.svg;fontColor=#000000;movable=1;resizable=1;rotatable=1;deletable=1;editable=1;connectable=1;" vertex="1" parent="18">
                    <mxGeometry x="86" y="46" width="68" height="68" as="geometry"/>
                </mxCell>
                <mxCell id="121" value="&lt;div style=&quot;&quot;&gt;&lt;span style=&quot;background-color: initial;&quot;&gt;&lt;b&gt;Name: &lt;/b&gt;System Pool&lt;/span&gt;&lt;/div&gt;&lt;div style=&quot;&quot;&gt;&lt;span style=&quot;background-color: initial;&quot;&gt;&lt;b&gt;Sku: &lt;/b&gt;Standard_B2s&lt;/span&gt;&lt;/div&gt;&lt;div style=&quot;&quot;&gt;&lt;span style=&quot;background-color: initial;&quot;&gt;&lt;b&gt;OS: &lt;/b&gt;CBLMariner&lt;/span&gt;&lt;/div&gt;" style="text;html=1;strokeColor=none;fillColor=none;align=center;verticalAlign=middle;whiteSpace=wrap;rounded=0;dashed=1;dashPattern=1 4;labelBackgroundColor=none;fillStyle=auto;strokeWidth=1;fontFamily=Helvetica;fontSize=12;fontColor=#000000;" vertex="1" parent="18">
                    <mxGeometry x="29.5" y="114" width="161" height="62" as="geometry"/>
                </mxCell>
                <mxCell id="38" value="" style="group;movable=1;resizable=1;rotatable=1;deletable=1;editable=1;connectable=1;" vertex="1" connectable="0" parent="1">
                    <mxGeometry x="936" y="284" width="240" height="192" as="geometry"/>
                </mxCell>
                <mxCell id="39" value="" style="rounded=1;whiteSpace=wrap;html=1;dashed=1;dashPattern=1 1;labelBackgroundColor=none;fillStyle=auto;strokeColor=#333333;fontColor=#000000;fillColor=#E6E6E6;container=0;movable=1;resizable=1;rotatable=1;deletable=1;editable=1;connectable=1;strokeWidth=2;perimeterSpacing=0;opacity=50;" vertex="1" parent="38">
                    <mxGeometry y="30" width="240" height="160.06" as="geometry"/>
                </mxCell>
                <mxCell id="40" value="&lt;font color=&quot;#000000&quot;&gt;&lt;b&gt;BastionSubnet&lt;br&gt;10.4.2.0 /24&lt;/b&gt;&lt;br&gt;&lt;/font&gt;" style="text;html=1;strokeColor=none;fillColor=none;align=center;verticalAlign=middle;whiteSpace=wrap;rounded=0;container=0;movable=1;resizable=1;rotatable=1;deletable=1;editable=1;connectable=1;" vertex="1" parent="38">
                    <mxGeometry x="55" width="77" height="30" as="geometry"/>
                </mxCell>
                <mxCell id="41" value="" style="shape=image;verticalLabelPosition=bottom;labelBackgroundColor=none;verticalAlign=top;aspect=fixed;imageAspect=0;image=data:image/png,iVBORw0KGgoAAAANSUhEUgAAAV8AAAFfCAYAAADptc+BAAAAAXNSR0IArs4c6QAAAARnQU1BAACxjwv8YQUAAAAJcEhZcwAAFxEAABcRAcom8z8AAE19SURBVHhe7b0JeBzlle5fTmAyM1lhgEluIATHwbbWVu/dkiNCNsNlmf/cmCSTsOTeJ5BMgDtz2eJ4aUJCIJMYMOqurWWbzebGN0AwjrEkE9nq2lpWAgSzmczYnmBiMjYBzGIbWf0/56sqWZgOllTdspb39zzfI6mtrpa7q9463/udcz4JAAAAAAAAAAAAAAAAAAAAAAAAAAAAAAAAAAAAAAAAAAAAAAAAAAAAAAAAAAAAAAAAAAAAAAAAAAAAAAAAAAAAAAAAAAAAAAAAAAAAAAAAAAAAAAAAAAAAAAAAAAAAAAAAAAAAAAAAAAAAAAAAAAAAAAAAAAAAAAAAAAAAAAAAAAAAAAAAAAAAAAAAAAAAAAAAAAAAAAAAAAAAAAAAAAAAAAAAAAAAAAAAAAAAAAAAAAAAAAAAAAAAAAAAAAAAAAAAAAAAAAAAAAAAAAAAAAAAAAAAAAAAAAAAAAAAAAAAAAAAAAAAAAAAAAAAAAAAAAAAAAAAAAAAAAAAR5H4UudDoaU9J6Zk86SU3EHDPKllWc+JySXW8TWZ1X/l/RoAAIBKENH6jk1lzVOTmvX5uNLztbhsXhiXey5MaeaFSd34elwxzo8rhUYWZ1eES9O8p4JhMG/16vdeSu+xP/j9PvzneatL7/V+HQAwFchkSu9JZq0ZJK4XJVUjl9DMNQnV7OCR1MzOpGqui6vmPfT491Jy8UspubeOo2N64nu8Q4B3Ib5064eSeWtGIm83xJc5jfx16ODHWuhri148Pblk/fHe0wAAkxqKtuboj50W15wLKepdRYL778l88c8ktHsTmrWXxPe1hGa/St//kf7NTqqWTl+vS+kmibB5EoV0iNbehVat74TmvH0GvW9XNOWMG2qzxo8bcoUb6Wb2o5Bs/mh6W+HG2TnjprRm/XDOMudf0u3OF2Mrih/1ng4AmIy0ZrqPicq905Nq8WIS1JUp3dpGAlxKLe8rpXTn0Mj3llLtxRIJyJsp1dxGkXA3fV2UkJ3IjKXr3ucdDgyFZgWfu/Opv0vpxS8ldOunEcXc2CSbT9bnjGdDucIzcdV4OqQYT3+6rfAMPbY1pllPNammEVbNtrTunB/Ldn9UKsHaAWDykSm9J61u/lRcsS5Kac7dFNluT+rF/nT7ZhJaEts8i64/ikJ8U/RvJLwHSYT/QNHwnQnZPq9eLhznHREMIUIRLwtvSrP/LayYv2nMGa9HNOetuGL2x2jQza4/RoNEuT+uWv1N9G8zcsYbM3PGFvq3tiZ6b0/9NxJgAMDkgSPelmUU8SrORUnF/L8kpjuSuj2QWkbCq9sljn7LDVeEe0tJ3XmTxHpzUrEWh1UrTELzt96hAUWr9H58OJG3z4gqxs+aFOO3IdV5I8o3rmV9pTTdxNJ8c6PBX3k002Nx+vdafXNphmztn5U1nmxSTDmpFs6ty2/4e+/IAICJDK+oR0l4U6r5zYRqraIIdrsQVhZV7S8Lrz9EJEy/S+K7m4T7Pnr+VxO32RAID85qCNOMIqWb36XItrtRpoiXhZffN76x+UO814d+TovvnVKdXixNbyscqFWsJ5pkIzc7a5x/Gr+/WNwEYAIjrAZDWA0J1V6ZUDjiLfb7NkM5sX3HYA+YxCShmfuSmtlDx/nOnNymU+BPurR2dx/TrBdrk7qVSajmFhLggaQ3o0iVez+9wf/GI06fQwMJ8Kdla99pbYUnT28z2ma2GefNUjd9zHsJAMBEwl1cK0xPkvAmVeteEfF6VoMbiZUXhXcMsQBX5Mh3Hw0rqRpXNN/W9QmIrwuLb7LNqg8rxg9jivE0e7tsNQz3PW7W6Su9x7V6b+m0rLn/k7f3bPlU2yZ5Zs469zRYEABMLDiPV3i8nNWg2feIxTXNGnD92xEILw9ffFUSX90y6bHLEfkeIkPim5LNuvq2nhsaZeMpinzfYl93JO+ziJDp9+u1YumTtxcOUAT8xMxsT/b0rHG+uwiH9xqAcU+m5FoNXKnGVgNFvjuS+WK/WFwbrtUwdCDyfVcGxTdb+EF9znhytOKbpgg4rhdLjRQBz5KtfZ9uKzw58/ae7MxbN573iVtgQQAwruEp8Jy7nNOSqnUxieS9Kd3ZltRGYTUMHSTY6WV9LL77fc+3VXdOhvi6sPiG2zbW17T1/LAhV3g6rhj9zaOZYdAQPjDd7MJCgM39p7f1bKnJ9ihRzT4vli0iDxiAcQldmMJqyJPwatbdNNjjPTgqq8Ef9Dw331dkO/wpoRir41pxXkp+7CTvVac87K3Pus2sq20zbmhwbQeROz3a9zzNX+m5TRQFz872HKiXzS303mdpJvMPqIQDYJwxb97q90aXFaan8/Y36EJdlVBJePPOwdSyXhFJlbvIhzOEVSEWj5zddNwNcdW6Jqlurm9dse2vvZee8rD41ubs2SHN/F6TbP4mpBgHYzRTEDeuMu/pkYaIfmkk8sVSmEa9au0jUX+S3vsczWjOnQULAoDxAVsNLXJhekI3LqGLd1XSLRl2rYYhF/WIBgsHXfgi4lXNPQnd7opr5tVRzYw13NXxfu+lAZEpZd4TVjd/jN73C2KKdW+jXNgZ0YtixpEejcfuDSHcXgRcJ5v7Q4r1RFQx5YhinJ/IIw8YgKNKhi5ATvCnyPSihGbeQxftdvpe5PHyQtnhF/Rwhyu8vMhm76GfO0l8r0urxWjy5//5N95LgyFwe8h0e+9MEuBvxzTzvrhq7xQ3MP4cyry/Ixr0OTbpvaWabOFAgyzyiNtYgGfd8jAiYACOBqJyjSJeikj97mQ7XKuBE/xHKbwsGMJqYI9XCO+GuG5dk1xuhc9Zg5Lid2Pu0q3vo4h0dirvXJpUrQfo83ghqtmlWN713EdjQfAQFgRFv010nHrV3leXM56sbyvIDTkuRUalIQBjCvuMc+567LSEYlySUs2VdJG63cmCRFoiUvOtBjfiTWnO1bF2gyJeCxHvMIho2rG+AMdV8xehnPFCk+ocjNNMgt/fd7znwxyDFgQJ8GyKgGuyxhN1bZvk+uym8+u4FBlZEACMAZmMm8fb7lzIBRR0cW5P5nvfCmw1COEVIrGbfu6kyO26RL4QSS6B8I6EmtVb/iqlmbPYgqBZyX1h1X4+pFgUAdP7W+Z9H87g57kRMKehFUs1irlvVrbwZL1cuL1Btc4VaWgAgOrhlwyLRuiq4ZYMe1bDqCMrEfG6WQ2+1UDicTVNndG9bJSwB8wC3KLb34qq5v1NOfOFmO4MpNnSyQeNgB3XglCs/XW5ni112UKuQTbPQTc0AKoEd89qkXunJxT7Ei/idbMaRMQbQHg5IuPm6aoprAaK2K5JtxejiHiD0dpdOoYtCHpPL6Mb2S/oM9vJN8qkO7so/3kMY/gCHGUBzhUOkPg+0ZDryYYUAw3ZAag4Xncyt2RYeLyiEToL76hKhr0hnu+K9+6EanfRuC4hFyKIeCsDWxCcBdGsOZelNPv+mGY/H1btUpzfc37/D/s8hjN8C4JvmryY16BY+xpyBS5rbmvOW+eiEAOACsF5vHHdOY0iUt7s8t4ECW9K5zxeN5G/3AV6xCGsBld46XgviQIKzbyatwmC8FYW34JICwvCuD8kmy+ENWcgzrMN/hzKfT7DGEMj4CbF2h9WzC1JlRuyW+eeiSwIAAIi8niNT9EFdahkuAJWQ9LL46VozLUaNOPamGrAaqgWmdIxKa1vFt08vx3XrPtYgJtUiwSYPoPRfo7e4OezADfmjAMR1XqCZkZiT7hE/ncswLAgABgxpZIQXpHVwDtQ8NY/+d7Rdyfzhoh46WJlqyGlml1JxbiWHmtCxFtdhAUhGzOb89ZlUcV6IKSYO0mAS/E852UHjIBJxKM0mlR7X5NsPEmPZ5vzvciCAGCk8GINb/0jSob9RuhBu5PxBS6sBu7N6y6uJVT7KvZ4Ubk2NkQu7Ts2tcK1ILgSrlE2d4Y15yB7wGLX6HKf2zCGa0G4ETCJ+v6IbG5p1i358+3cDQ39gAEYHry4dsfmTyV0+xKxuOZudul1JxttxOtnNbDVQMKrWh30+LWJvIM83jGG0wUT+Y2z01yKrFq/CCvWzhBHwLqwgcp8diMY7AHTcdiCSOetLV9aUWw7YzlvS48IGIB3hdPJonLv9Hi7c2FSp4hXWA3FCnYns3fTFLdLlAwjj/eoUbN6tciC4Eq4mGI8EBYWhJsFEXwRji2IXhJhZx8J/JOfX+HkPtdu/vdZbcW/814eADAU0QidsxpU6+K4atxLUUzFu5MlNbMzxVYDIt6jDn/enAfcopqXciVcSLZ2NrEFwZ9XBSyIiN5bCsvm/jkUAX/h7r7lX1hRvOSLy3tP8V4eACDw8ng5nYxE8h4v4nW7kwVZXBPC+3argZvkoB/v+OBQGpr17bhi3tekmqIUWQhwmc9zRIMEPKJapbBq7T/jnsf3fOmOov2FFfYlp/+s+wTv5QGY2vjdySgK+gZdNKtoDO4yHNxqENPY3UnNEHm8qTuR1TDeqMmsFr0gRB4wZ0FwMx7NJgF20wmDRMAJGhE6TvO9z5Sa89aBZt26K6H1nkXnGvKAwdRG9GpYVhBb/ySUKnQn44hXdCczr6bIGt3JxinuIpw9u8XrhtbIHnAFLYhofnOpUTYOcCEG74hB58M/tHIlHBqyg6kIN0Jnq4H78aZ4e3eF+/EWRXeyipUM62YXjet4cQ0e7/iG84A/2947ky0IroTjbmgiD5g/zzKf83AGP28wAlatgZBivRlWjKfo37Lpdvu8OepmNGQHUwuOdHjrH/Z4xeKaOjSPd5TCSxEOb1nOg7uTcckwR7zcFhJWw8TA9YD7hAVBEfD9IZn7AduiFDmoBSHS0Og4dLz9Ydl8Mq6YCveC8CrhAJj8iHQyUUDhdycTWQ1+tFr24jnSEOlJNEXlSie6aPckeHFNta6JahtjsBomFr4F0axZl8W4Ibts7gwpLMBsQYw+D9gVYK8UWTYORBRrS1I1cinN+QfhAaMbGpjUeNu78+JaQrVXJsTWP8V+kccbwGrgaJd93rBq7m7I9XRFVLYaNiOPd4LCFkSraMhufJsjYIpWn29S3C2JuBBjNBEwP4cH74rMVkZCd/YlVVNYEMl877lhFbsig0kIZzR84a7H3s+9GkKKdVFU5V2GKeIV3cmClQzTFJWnlP1hxdhTlytsmNm26eqmtu7oORDeCY2wIFa4DdlZgLkUmS0IIcD0mY9GgP3BN3pu7E7n3wH6eQt9lWkWdh4iYDCpaM12fyCmF09PqcXPNCqFyxpy5j0R1SDhtUXl2qiFlwZHu+nlvymFFfOV2lxPJ41rY2KXYVgNkwEuxGABTuady+Kq5VkQXilygPOGh8iiYKtLNYUAJ3gRTvcasgMw0UkusY5P684ciiiupAvn9sZcYT0J5X/GNTtwI3SOeNN3PFqK3f1UqTZr7KjNFhY25eyGc9bsRMQ7ifCzIOgzv4xLkVmAOQuiMhEwiTgHAHlnX1Izn6TjtaV08xyRhgbARKV1xaMfSbc7n40r1k0RxdwYUsx/D8vGn2l6JzzachfDcAZfcG5Gg1WK6PYrdfm+f5+VNZZHlJ7mS/v6jvVeHkwi/C2JhAWhmPe5hRjOwYQQ4NHnAYvBAu5ZEHRuPkHHhwUBJi71cuE4uijOTGnmjRTpOnSxvBbR6WKhk11cLAGmjCJaoUFCvqdWNjvrNGdxWDfmfOGnHe/3Xh5MQtgDbuWG7FyKfLgFEbAbGp+TSRLgmGoeiKrWloRutqX9PeEAmCi0yL87rjlvn0ECScJr9Dap9l5O70ku6wtkM/AQiyR0LJp27q6TjQ2zs5uuacr3NGRoauq9PJjE1GTcPeESqnlpSDYeqMsaL4QUu5RgCyugBcFpigk6vxL5orAgkqqVi+nmOSICBmC803jIarhZRLyKRREvndSVmBqS6LLdQNHJnrpsT9fsXOFq3vrny1hcm1JwHnBtbuNsml1dSuJ7X1228EJIswOXIovhWxAUAQsLggQYFgQY97hWg3kmTQFvDMtmsSFnvB6lC0JUrAWwGXi4VoNbuRbXrE7O4w3LaAs5VeFmPPVy78xa2fhObbbn/pqcubNOMUsxPk/4fDns/BnJEOeaWJOw99PPW+icuz2hGedhEQ6MS1pIeBP5zWfEFeNmEt7NTar9WoSF17sYDj/Bhz28SGSwV4PilgzPUa0w8ninNuwB191uzqrPGt+qaSs8MJMi4DrFEhVsQSNgIcC8O3beYQFmC0LsigwLAowrWm999CO8uJbUrZtiuuWEZPN1IbwVsRpEFDIgupOpVofY3p0bocNqAERrpnRMU86e3ZgtXFaTLfxidq6ws161D3IELM6fcufVcAefv3zjV60DdKwn2AMe3BUZ3dDA0YYX1+Kq81kS3x+R+PYmdOt1XvzgEs7AOZi8iOJt/UM/d9IQuwzDagBD4Tzgutu7ZzUq1mVNsnF/g2w+Xy+bbgTM59Fh59VIBt/8RVrkkDxg9oBRigyOKpzHm1DsM5Kqc1NKs4sUKbzGkUKQHF4xWLSF8JKIq/YeGl2pvL/LMIQXlEHrOzaimbMSuvGtJtW4nxfhGlRrICqCgKAWhF+KzBaEvUVYEKIbGiwIcBRg4WWrIaWbP6aT0aHxulglFqlkARbXSHj5GBxxiD3X2GpQrWvQCB0cke7uY5pyG2dHNOuyiGr+ok4u7KyTTSHA4rwqd74Nd3BAwOc3lyKzBSFKkTe7uyIjCwKMFWJxbYV9Bk2/bkyqRi+djK+l2r1FsXIn7gjGUKuBxLcriV2GwQjgLIhouyFKkcOK8UC9bD4/uAg3ym5o/hB9ROg8dy0I60kKMrKcBYGG7GBMaFzR/RGabp3Bi2si4iXhTYt2kCSYZU7YYY8hVkNSM1+ixzpJfK/iRuiIeMFI4FLklGbOamm3vxWVzfvrcoUXGjRehKPzK6gF4S3C0fm6n87/LQnFVNKafV6M09AQAYNqwRFvTDU/x3m8JL4OTcGE1cAnZFCrgaMK4fFqttjenU7sa7C9OxgtXIjRuqJvVlq1vh1TLWFB1PIiXAW6oYksCA4SvG5oScXK8p5wwoIAoNJwVkOEIt6Ibv44oVq9dALu5YU1N1Itc4KOYAgBZ6sh7+zmrX/oMZHVAKsBBMHvhsabctZnCw98OksCzBYEnbPcES9oFoS7xlHcR4GCKEWmgYbsoLK03tr9EU4nC2vWzWHVLMaFx8tWQ7A+DSLi5ZOYjsWLawnd7uI83lg7+vGCyiC6oeXs2VyIcXq2577ZXIihOQfDXC1J555oxF/u3BzO4POXBViz99OM7QmKhOW4bpyfWGUjDxgEh7Ma4rJ5ZoS7k+mWE1VNkccrhDfg9M0V3qJnNVidJL7XteR/EzkZVgOoIFwJd+rt5qy6nPHtsGzcN1s2d87IWaUmnSLgPAlogPOYrwPXA+Z2lNaWlG62sQDPQQQMgsAeb3JZb2tCN38cV63eWN7Zm+DV3qBWgxcxiIjXFd4Ncc5qWG6Fz1kDqwFUAS8PmIKHS2uzhQdOzxrbamXr5bBiiKb+6QALxoMWRLvfDc30SpGxKzIYBY2e1TA0q4HTyXixodwJOOzBwusvrqluxJvSnKtj7cjjBVWmu/uYT+fs2RGl8L9IhOXaXOHhetl4KqGYr7P4BprNeQEFR8D0/RNJxZLdUmR0QwMjgCNethroRPpRQjOLJL6vizxeER0EtBqE8Lp5vPQzp5NdJ9LJYDWAsSCz5a/iunManXufb5IL/7NJMW+lSJWDi71Bd9D21y/8PGAuReZKOJGGBsCREAUUomTYuikxpGRYnFRlTrhhDxHxulkNvtXA3cnodVBAAcacdPvTH2zVnZP9FqgiyMg7e0XOeoBznQX4baXIupXjPeFQigzeFW6EzicjCy+dNA6dTK7VUKmsBk5y55JhbpKjW9ekOasBES84iogFZd05k8T3RmGvVSJ3fYgFkdAsUYrMi3BiSyJYEOBwWlYWjourBnu8P6KTUJQMu5VrFcjjpUhCRBOiZNjuonEdN8lBxAvGA423PupWbSrGze5sz349aNWmGwHzOe92Q+M94WBBgHcwWDIsrAaafg1aDaM/+cQQVoMrvBQBvMQFFKIfr+xAeMG4gndh4eAjods/pnN3MwcfQfuVsH/sWhD2/oRqbhnMgrgNFgQg3GmXOaQ7mTvtcq2GAItrJLxiFwteYPPyeJOacS3vuQarAYxHRPl8u/m5wSCkEp36vACErqsDdIwnRB6wYpx/ppuGBgtiqtKy8nfHccRLUy32uyrfnYwtCzerQZQMcx4vIl4wnuFZoLDfNMuzIILPAt0sCCHirgWhWdmWZcVzsCfcFIV9Lt5lmKZDP6mUzyXGoNXg9eMV6WR+I/T/RMQLxj1VWf/wuqGlhAVhbQmrplwvG+fNUjd97NQV3X+NcuQpwuAKLzfJYeGtVHcyeq6b1cBWg9sInR6/Ft3JwESjKpk/dH1xP2AKSg6ElMITM7NGdtbtPV+ruX1TvKn9kVO5EZD38mAyIvJ48/YZXm7jZp5Wibt6JawGf3qm27vpDt8lSoaRxwsmKNXIeXctiN5STLP2NeQKz8zKFf5ffc64KZE3vxmVNzZ9DOX1kxO+m4uSYb6bi6oed0EhSFWPGGw1eCeVazWYnSm2GhDxgglOVao96Xrhdqwx1ThYlyu8WK+aT4YU46HGtp7r6nHNTD74JPKmUT8igXStBjoBxEnEmQnlTpJhDld432418OJa64ptf+29PAATlmr0ORHd0GhQBFxq1Jy3ZmcLu2vaNnU1KIWrm5ARNHlwp0+FM1K67TZCzzt7g06f/OEfh469O6kZIo83dScaoYPJBV9Dfoc/EmD3GuIIOMA1xHvKpSloiS/rK9VrTmlWrrBnVtumDfWycU24DXbdhMfdZdg8My6sBs7j5WkTnTAB7tpiiKwGz2rgiFd0JzOvxi7DYLLi97am8/zQNloceLBtF2D2yCIc14uletUuUQS8pzZrdNbleq6rlwvobT1R8a0GEscbRcRb0e5k3iIdlwzrZheN6+j4YUyXwGTG39WFroGbhX0nLAhPgMtcJ8MZvJ0RzRxLMboumygCrhMC3NNVm9t0dV2bET0ZwczEghfXklpvKwniTd6eaxXsTuYKb0Kz93DJMEe83BYS0yQwFaiXveIk34KowH6GQoBp8C4xYRLgesXc3ZArbIgo1rUc1DT8tOP93suD8YzIauA8XrVcyXD5D39Yg6dWvLhGQ2Q16FYHHf+aqLYxBqsBTCV4VlmNnbzZgkjoRSHAjbKxh16jM61Z16ID4ASATwrRIMS3GjRvWhTgruwPcRy2LHTH607GVsNmLAyAKclgQ6ohWRCBu6HxVwpyeHPPCAl5KGe+FFUMml06YnaJIGecwikx4mTQjJtTojuZ16shwMkgxhCrgU4y0Z0spThXc5McCC+YyohMohV+fxSjYv1RWITjdN2yB9ykWrspAu4ikb9mDvqjjD/8ckhhNQyZBrlZDQEW11h46STgk4k93qRqizzetIrt3QFg3IwiZ0hnwAp0Q6PBi3BxOgYLcMi1IDpYgJFRNI7gRiCiZDhvu1ZDBbZD8Ye/SMd5vAnF606GkuGjQqZb+gCNE67qkE7iMb9HOvFIw/9dfh4/3zsUqDAswG4psnNTyi9FDpwHTF+FAPMiXFEIcEQxu+g6v6oFFsTRp9Vvgec3ABm0GoIvrh3K47X3UETdlVLMq1vyv0FWwxiSKUnvIdH868w66eQf/FpqXdwlfWVhh/SNBQ9LF9L3Xz/S4N/j36fvv8LP5+OI49FxvZcAFaJF/t1xnIZGUfCPBlM7OXgJaPuJLAg6Bi/ChRRrd1Q1O+nxa+nabMIi3FGCu+/zdIcX11JDV1xZeEk8D/8QRzKE1UBDWA2iEbrXnQx32zFDiGS39MlFHVLCE9FbF3ZKvyQhXb+oU+qg8fAwRgf/Pj+Pn8/HEcfrkE7j43svBSpE662uBSGCIe6fUqGiJrYgPAEeEBaEYna4KZ64JsccvsvyNCelFQethkoY/TxYwEXeImc1cCN03UF3sjHkqg7p/d9/WPrY90gk56+XvkVCeTONB0g8nyUhfYnEc68YndKrRxze7/Lz+Pl8HD7e4k7pW4u6pBhFwh/yXhZUCLcU2WqlGelNCcXtHMjXZZBrk6Nf1wP2LAjF3B0RWRDYAXxM4cW1NFfZKMbNKTb4OZ2MI95KlAzThytOFN9q0NysBkxvqg9FosewLTB/ndQ6v0P6BgnwTd/vkB6mqPVJEtI/kYgOXP9rqbR4w8gHP4+fL47TJT1FXx9e3CEtWvQrqfknhvRBfm36E7CtTYUQufZciqyaop8KXUtviOtKWBBB8oAtkQd8KAvCbWQ1Z/nmcHLJz3GNVhPXajDPpKj3xoTfCL0CHyoP12rwshq4V4NuXtciWtzhQ602wtt9UJqxeL30dYpMb/3+eunBBeulxylafZnE8wCJZSnziDsOF9bhDP+5fBz6+S0+7qL10iYW4AVd0udveFiaSQJ8QiYDL7hScOqnsCA0i4IkTv30POAAQdJgBCwKMYpuIYZsdvIiHFq4VhGRU+g3dxZWQ3Fv0OmMGBzx8klBxxGLa6Jk2Lma20Keg+lM1Vm9Wnrv97qk6d//lXQRie4qGlsXdkl7SCAPcMT6g25XQFk4gw4+zg82epFwl/RnGja9jrK4S/pXEvu5bHfw3+P9aSAgvE8iL4iTYP74kAURzB4UAkyBlmtBUASsWLsjsluIQcdFR8FKI4x8b2dVN4+3Mka+azWIrIYB0Z2MpjFie3cY+WOCsBpIeL+3Xvrm/HXSqvnrpe0kvqUM2wtd7iCBLCukox58XI6IORLukt6gx/5jYafUTRH3jzLrpfS//lzC515BqrUwziLMEbCbB2yKUmR6/NqWO3DtVozBFBbO49Up4h3cgSJg5RoNFnB/6x/6GSksYwhN8Y8hsZvBGQjf75BWUuS5Y9EGqZ+FV9gLlRbdoYOOza/BETAJ70Eaf6Roe3WmU7qAovC/8/5EUCGqkRLK4svizZVwYRJhPw+4mYInpIRWgKHJ2/ShcVZD5buTqby4ZovkbXeXYQhvtZlHU3teXCPR+yeKOFfS1+0kiAPCYqim6B42Mp4fTJHwfvr5scUd0o2LOqTm61ZLH/b+VFAhqlUMJRbh6BgiD1i1RBZEUnOunYO+K6PnHWWLXsQbtGxRTHXoGBw5J7g7GVsNKsoWx5JMn/S38zul1oWce9shbSXhG7h+jIXXH2xBeB7wK/TzJhqLWYAzqIirONVqAzAkD9izINwsCNENDdf0yKhWww4ebsTrWg2cTkYnAfJ4x5j566QTOZ1scaf0SxK9l1n82G4YKopjOQYjYPpb6OdNi9ZLV2c6pLrMFgnbmVeYajTA8i0ItxtasRTKGS9FZHfhnIMqXNvDpBqt6sQYYjUkNfMleqyTxPcqtKobW37yS+mDHFnSuJki38cp8tzHEe/RiHqHDr4BeB7wi/TznfT3nXtdF+yHalCt1q/CgvAiYM4DjlBwJXaZWQ4L4ojwh1KNJs082NzniNfN4zU7SdivQW7gmDLtGk94SXQXkcBtoq+vUsQ5cLSFlwdnP3D0S9+/RgL8a/o7r1ywTvoU/93unw8qSbU2PXAtCMezILgbmiW6oVGUjU0P/hL/feXvjmumiLeS25P4Q9xV+UPNO/8lSoa9rAbcDceOJZb0NwsfkRoXd0rXkcBtWtQl/Zn9Vk/wjv7wom8S4X4S3x0L1ksrFq6XzslY0vGlEgS4GrAAD93ui4IsmuUGsxc5+nUF2O+GZu4RpcjtjsiCaF3dDS9/KOwDzcwZn21QjJtpOlKkN8+dhgS8C/qDIt4BinZfpu8f4cW1GIz4MSezXjqeBO58ErqVNP7kp5S9TQCP8mDx5YU/Et/9FJUX6et1mQ1STQmVb1WDZ7tiEU4zb4yrZpHGa+52XQEX4WiINDQvCyLGs11ehNON0Iyl697nvfzUhgsowrJ55ifbCjfOkk2H3vzXm/nux28+3cEOf1NHNNiucC2L/QnF/B2nrMVUI4Utqcce7q+b6ZT+iQRuHQnda6KQYpyJLw+R+dApDZDwbqOvaqZL+jwyH6qLm9lkntmkGDeFFNOOkQB7za3eeU2PYAxmQbh5wLujivVQQrcvadb6PpHJlKbwDfVS7dhMx2MnffPnv21Nt5s/rpeN3kbN3pukN53f+HJv5kiHW722mVPK9iZVcx19/Wb4lk0f8/4CMIb8H+6d8IgQX24JuVdUmdHwRW+8DGE9uH/XXhJgY3GndNUNj0i1JMBoQVlFOAKupdlvk2L+W1w2tlDwtY/Fk0e5a3s4Y9CCWNZXCism94J4qkk2fswZEJnuEjdTmlr0lUrH7nx136wXXn39H5/8r1e/c03HM7fHdMsJywbd7fycv/Jv5sgGf3Ccz+scSKrG1qRiLI0o9hnpnxgf9P4UMIaIyHeD9A2azrP4vjpexZcH2yE86G/9I/18J0W/53yvIB3n/VdAlQgt7TkxpdlfTarWLyhQ2p1g24ECqPLX93CHXUrTMeKqxb2AdzXIxuqobH41lu3+6LzVq6dWH4+ntv/pYwf6++e/1X/wiZfeOrj1+o3P/XG2bLwxq80oNXOkGjCrwR+ebXGQ3vwXE6r1QFwpXNSoWB+fN2+KveHjhKvXSZ/iDAISM85yeH1IhDnuBv9dnvjuXdQl/YrtEr55eP8VUCXmLl33vpa81UzX75KIbGwlsRzgBjoijzfAYE1hPUjo1gEK8p6qzxo/JS1obl29ZUrZSdOefv6VmQMHD95TIl6n8QPr+dIstViacXuhlBZvVPk3cKTDTSuz+uku+vukbt0WUXqaZ1wBo32sEe0iLel4msKfTWKmk7j9nsTtgBBfGocL33gYQ6Ly10h8OxZ3ShdCfKsPR6LR5b2n0DV7cShXeLAuZ/wpqjkHg1gP/mA94HqBmGK83CQbD0Rka97n7ixOqT4e05544dXZAwMDd7H4/jup71Udz5bqFLM0u63gejSHvWmjG1xQ4YmvZj7Ljdd5lTNyqXas93eAMULrk46d3yHVLeiSvkcCXCRB2+eV875D9MbL8MWXI18a6+km8XWI79gQ0fqOnaNa4VDO+CFFqI9FFXM/R61BBVgcg6Nf1XyNZsIdCdX4Rsuynqn1mT75p1c+TeK7gsV3695S6V8efqZULxvVE1/VfJYTuRP5ngaI79hzxTrpfYs6pASJ2K0kbNtYdL2MgnE7hoov/fwwxHdsab6z8ImGtp4r6tsKZkQx3hAL50EzH3zx1czX6OfORN6eeuL7zM5XT3j9zQOXv/TG/uJv/vjG81f86qkDs1WnNDtnVtB2OCS+JLzPJVXjZ1HNjEF8xx5ffEnEbqHxHxBfcCTS7Z3/LSoXLm1SCj0xteLiu5d0YX1St74+5cSXAt73FJ7dNX3zjpcu+vVze5Z9e+2WrafnzP4aEuA0p5aUeeNGM7xeEAdp/CGpWnfFFeP8miXW8d6fAcYIth0WbpRmL9wgXUViZpIQvyGa6EwU26ELtsNYc6ZifZxE9ztx1SzENVOIb9AsqLeJr1tyPPXE12PaiuK2jz785B/nffuhJ1Y0UnTaoFj9ycH2cuXfwBENFnLdGUjl7deTqtmXUMzrEzJ6OYw1vC/azX3Sh+evl76wsFPK0niWhHdCLbhxihzEd+xozVozwrJxTUgxnZhqvelGvhXyfDXztfhUtR2Gsun5Padc9sstX07nzfaIajwXzTsHgna4HzrEh9bODdPNl5KKeV9Ctb8S0fpO8F4ejCELHpFOJSH7ZxK0bhLg14T4ugI37oZoskPROUe+izultfTz1yC+Y0MrXZ8tunkOiW97SDb+I6bZb7HwBhZfke1AwZ1qcDC2jgKzr7UsncLiyxbE/3f34yenSRSjmtke1exnSSD7RYVbwDdbDI6iSYBpmrGPxNehO978mF6slaZ0aeHRgcVrIUWQJG4P0xj/RRYbpIGF66Xn6ef2RRukszLd0ke8/wqoEhyJpvPG2XTtLomr1qMUpe6j63fgHdf1iAeJt2hLKyLf5+OKtTyh9Z7VeOujU/0zLU2LL3VOjmjWPBLH5WKBTHfeEt2NAkfALOA08sWDdLfbxZUzNI25OLqsd/qUq245ykyY8mL+m7qkAfr+zxT5bqCvl2e6pNN54dD7r4AqECLhpetzLkW4t4Rl87GIxjsdU7QaVAM4ahad0riAy2INWJtQ7H/+zPLffhoNdjxEcrVuXUB3pnYWYBLeAxVpok7Da1F3MJm3/yOhWau4ucYc3Tmttbt76tV3HyVE5Nsp/dOiDulXJGjcx3dciq+obHM31dy2sEtSFq2XPptZI6H1aNUoTZtxY8+JddmNZzfKxm1NivloSDb3RfTeEl2nwRbgaeYrrv324gBd9y8mNHsNPX55Im83zF23FcLrw5HonNymU+iN+QrdnZbRm/Qsfe0XDZbLvbEjGfwh0p2PIuC3Eqq1g8R9JQn9RWnV+BQsiLGBeyOQmJ2zoEO6kyLKF4Y0Lx8/o8sT3w4hvs8u7pRuuuERqZG3uPf+G6DCcMRblzXOrsttumV21nisVi4I4a3EwrsQXjd425XQzTV03V9JmlLPZczey4NDlKbFdefklO58OUYCHFHMZ+O6vT/NU4agqSZ8FxTZFPYAfQA76LFVvOIZlQvT560uwYKoMtwVbOEjUu38Tumq76+XCiTCe8ddxgP9LbyDMosv/X2/o6+LuJ8vxLc6nK51n5DSi19qUo3bZmcLj8/OWW+GeI2GF8rLXMPDHr7VwMfiiFe11tLjl0fbzTpEvEdgzvLeU8K6dUFjrpBvks3f03ShX2QulHujRzg8C4LHtoRCEXCePeDC9NYMLIhqQyL2gQUPS58nYVNIgLdRdDmuCi74RnD9I9IA/X0vLVgvraXxzUyX9IlSCc3UK0qpNK11Zd8JEcU4O6aYt4YU89Fa2dgXEhFvUKvBneWm8s4Aie6LCc30rIaehprVW7Ah6pEQFgQJMAnvhQ3ZwgNN9CbGNWvANd8rkO/nTkfeIvHdkdLse+KaeSFbEJlMBhdZFeGc3/nrpBoSt2tpFOevlw6QII+L6FcsANLfQTeEN0l0f0Pjhu93SlGO2OlPxzZCFaRl2W9PbNbss+h6XNIgFx6vlc03ueF5gkZKp2u0zHU73MHXtrtQ7+wi8X0opdpXRuXeuhlLEfEOm9WrS++N5sxYSDZubpSNp7kZMjdFDiq+YnjTEjrWQFK1t8dV4172gFtkRMBVpSRN4+2ESODO/n6HpH9vvbR14QbpAG/dQ9P7sqI4VkNsa0SDIvKXSXjvn/8rtJGsBhGt+4Q5y4tfiqvWbXRdP1avWG+GhPBSUFTuWh3mELnAntVAP7/IWQ0p1fkue7wQ3hFSoqlJQrE/mVCMb0UU82H6oF6O5l0DPWjCtRhieuJbEM62BEXAnAVBd0mkoVWXaSRup9D4yvwOKU8ivHVhl9QvthU6ShEwv64Q3g6pn8T3KXrs3xask1oyfchyqBylaVxAkc7bZyc081bOamCroYmEV2QlHH59jmTwtcy6kHezGlK68yCJ7hVJdXM9rIZRwqXAvOVzXLEWR1WzJ67bL4tk6UO+baAhLAg6Hgk6N+DZkVDtlWIRblnvdGRBVA9ewGIBXviwdMH3H5aWswCT4PVzBDzWAsyvJxbZ6PXnUyROf8vyTIf0ZfobP8q9iL0/GQSErYaWvDWXRHZJg2w8XquYb7Dw+otrgaJeL+KlY7DVsDapF6+IymZd64pubP0UhIjW9+GU1ptO5c1FSdUsJHXrFeHrVEiAD1kQ1gDdgSkCtlaxBRFHHnDV+SELMAndgg5pGX19LsMWBE//x8iC4Nfh11tMr0t/w3P8dyzolOb9cK10KhbZKocoGSbhZauhSTYeq6uQ1eDPXnmBjSNeeuyhlGp+lx6Dx1speN+1hFZooTd3Mb3Jm+irEOBkBRbgxPAtCN0+SMffTtOie2jacnGLiICxCFcteAGOIsyTF66TvrqIhI/GVk7zEoJIEWm1omD/2Pw6XlrZ1vkP0w2A/g6+IfDf5f2JICAc8QqrQTdvEVkNuYJnNdA1V+5aHO4Q1yxbDSIFdRcFTg9S0HQFe7zzVq+G1VBJ0u3GB2NqMUVvboZGgYT3ZfeuVyELgu/CvIFnvthPgr6dHhvMA4YFUT14ar/gARK8TumCReulFTT9f44i0f4fbHJ92EoLMB+Pj8vH59fh11tAr0vie4H4OyC8FcO1GoqiZJithjrFrpDV4M5W3cU1kdWwloWX+7bAaqgS6fanP5jMW800tVgkBFi1XnUFmD+ECkTA/ofqWxCqtYpe42JYENWH82nZAyaBbBcC/Ij0+qIuqZ9TwIQV4ZUj8zhcUN9t+M/h53sWAxdT9PPx+XXod9r5dfn1vT8FVIBWrfuEz2j2WXHVWMqLa3UyWw1idhk84uVNNdtFwx3PanCzGrC4VmU4Ak4qVjO92RkSy0ELIsVTmXIf1kiHiID5JHH62YKgr3eT+IpSZOQBVw+OgK9bI30i0yF9lURRJVEssDjSeE2IJ4uoZxf4gyvS/tI4/HfF82nw8TzR5eOr/HrideHxVozIyr4TOI+XgqRbOJ3MtxoCe7w0RLTrXuu7uICCXuNKul7rajKwGsaE+FLnQ8KC0JzFHAGnfAuCMxfKfGAjHYOlyHnnYGKIBcHNeCSUIlcN4QGvk06mKHTuwg7pX2m0kUBuovEHEtQ99PMrJJpvcBT7g42ufcDfv2OwrcD/Tt/z74vn8fPpOOJ4fFw6Pr+OeD1YDRUjtLTnxDntzhfZ421UjMfr1ENWQ6BtwjjiHWI1xFXzV/T45SkZJcNjjm9BJNiC0KweGq8Mfjj0QQ1+aAGGEGDNGkjp1jbRjEctXsx5wCjEqC43rZWOI2E8nTuKsUgu6JDyizulX9D3a0k8HRLSFymK3U9f+0lc3zlcu4L//UX+fX4eP5+Pw8cTncro+Pw63kuCwLh5vBzxch5vSOY8XlNkNQS3Gng2eiiPl7uT0WwUVsPRpHV19wdSmplO6laGPuBNg2lo7gpo4CHygIUFURQWREpz7o4r3A1tM7qhVRnOBf5ph/T+zAZRjvxF+voPi9dLXycxXbBwvXQ/Ceuj9D1vScQ5ws8MDvrZe/xR/j3+fX4eP987To04LprlVJSWpW7JcFp3fuZaDW4BhbAaKlkyrFkPJRTzf3MeL/rxHmV8CyKVtxdRdGpwFgTvhCFEs8wHOdLhly2yBUF32u1J1biXRPhCbsYDC6L6sEj+xJA+SF8/kumQTiJBbaTo9Rs0FpHY/pjE9abFXdKN/uCfxeP07+L36Pf5efx87zgQ3QrDEa+wGijibcy5ebxDsxrKXVfDGr7V4C6ov5j0rYZ2Fl5YDeOCmuwWEQEndHshfTjuIpzfiL0iFgSdBJ6YswfMWRAp1fwmV8LBghhbLu2Tjv3RBunjNzwi1VIU27CQ++3SV3/4P/O/8+/x73tPBZXG6072tpLhwTzegItrLLws3tydzO3V8GBcK1zOVsM8WA3ji5ps9wfSfh6wTgKct91FOGHQl/lwRzjeZkEo3JDdXskWRDLfPYNOQlgQY0iJG/RQBHupJh3L4vqOQY/zv/PveU8BVYD3XBN5vF7JcF3O607Golkhq4GOIawGP493LiLe8QmnoaVVIyUiYFGK7AmwF7UGHr4Fodt0N7a3k9Dfm8wX0A8YTDl4F/BD3clMr2SYg5NgEa+w+cQO5iJoEt3JeHGNsxrg8Y5zalZv+QDnAXMWBInwxqRmiiwIUYpcCQtCnBxCzHk6tD2hmyu5GxqXImewCAcmPaVpvOW6sBpU+xa2GmqGLq6Vu2aGO8S1NTSrwVzDEW9yObqTTRhas1s+QHfLpLAgOA2t0qXIPB0Sgl7sp9fYQSfKqpTfkB0WBJjEhPzuZLrplQxXujsZB0luyTCJ+5XNKBmeeLAFMbgIp5gF+nCHdEOrUATsWRAp3dnGWRAkxBfPuQulyGBy4nYnK86N624j9DqFt/4Jvrjm9lXha5NE3M3jfSium98NI4934iJKkfNWM/cDTgkLwhVgbsheMQHm4+n2QfqZK+Hu5j3hRDe0UgmLPWDS0LryGZHVwCXDIcWqcHcyd3HNE941ibx9pbAaMhDeCY3bDc1I0Qe9WETAFV6Ec0uRWdCdgzRV2s4WBJ2k3+BFuHnzsCMGmPhwVgMvrtFM8laKeCvXncybPXqLa7t4cY09Xs7jhdUwSRi0IDR7QUI1e5Kq6XZD4w+dToB3nBSjGMKCEN3QrG30dVVCNy4Re8LBggATlkMlw24jdL87WQUj3nZvcY03u0TJ8OSEF+FYgOmDX0zjUDc0NvjLnRwjHZ5vRV/76We3IbvuXBRWN6MbGpiQuI3QjbNJZJdwOhmXDLu7DLsebxDxFVVr4trjkmFzDQVFVybVjSS86E42KeEIuFl3ktwP2C9FFgJcjW5oqrmDHlvF29JzQ/Z5KEUGEwhRQKFac0XJMOfxqs4bYuufCloNHPEmNbdkGFkNUwDXguhNcx4wfeg9fh6wm+JSIQuCI2D3+20k9CsTinHJnLseOw2FGGDcwyXDGpcMG2fHVeM2d+sf7k7WSxFvJawGjniLA3QcinjtNfT45Yl8TwOshimC2wuCBFgzr0+qJMCD3dCE8R98+BZEvvct+nk7nWT3pNodkQeMPeHAeCYld5zUrPWeReftEtGdTDbdJjl8TlekZJivMZHH+xDn8fLi2lxUrk0t4nc7H2IPOM6bcrIFIQSYIuBDUWuw4U2vhAUhSpGNe+PcDY0X4RABg3EIb/0jdhkezON1S4YTNCsMHPHy7FLk8dq8uLY2rjrf5baQ6NUwRWELgndFdttRHmrILvKAK2FBiGmWEHPeb2obR8AJxb6kRe6dPm810tDAeOGQ1cAer9+drBIFFOI64j3XhloNeUt0J4PVMMXhbmgiDU0xr0+8rRS5MhaEKEVmAdZ5V2RrO0XZK+n1PAsCpcjg6BMSi2vFubz1jygZ9q2GoItrNMS5L4IZ5480+1tL5/+VzXcUa2n2h8U1wA3Z1wkLgkuR6c7vWhDcD7iiFkQfe2aiGY8oRdati7ArMjjaiO5kevFLFJFyAYVnNXgeb7lzeZjD7U7merwiq0G11qZU87vJto3181aXEPGCQ3AeMJci04mzmMRyE514wgMWuYiVtyDcUmTVuhiLcOBowVYDie5ZdK4vCSnWb/3uZOJcLXcOD3eIc52iZhJw+ll0J+OIN6miZBj8BfxKOBLFDI0CTZWq1g1NlCKrh0qR0Q0NjCXcFpIjXjovRVaD252MF9cq1Z1M2HaiZJiFl/vxnoo8XvBu8J5woh+w15CdpkxuKbLwgCsUAbMAa7a3CGetilEEHBfd0EqwIEDV4YhXWA2Ku8swe7yVWVxz1zfoWhmg85wiXrdkmLuTIZ0MDAt/EY5OqMV0Am2iE0lEwG43tDIn3UiHd5LScQ/GVWtHWDVXhnX7kvAd2BUZVBeuXOPuZHQeLnELKIZaDUGCC3q+yGoQAr6LjiUaoXMeb6SvD/vogeHjlyJzHrC7JRFbEJXLA/a7ocXzxYMUGewI6da90XbeFRlpaKA6uHuuWXNpVudmNaiV706W0tlq4JJh53LOapi7Dnm8YBS0ii2JeppTurmQ84ApCn4l4UfAdMKVPRFHOuikjWrWQER3tkVU416OgJEFASpLaZob8RpncwGFiHhl08vj5Yi3zHk53OHP4vzuZF7JMC+uYZdhEIhWz4KIq1Ymolmbwpr5SlwIcIW6ofFx6HgUffTHKAKOqubKiG5dhDxgUCmE8CrG2ZzHy01yamS3ETqnkyUrUDLs2XG76PheVgMKKECFSLc/LRqyh/PmIhLHQtxvyC4WzsqflCMZbEGk6Vg0HRxgDzjG/YA5CwLd0EBAhu4y7O65Zr0ZIrFkqyFd5lwc9hhiNYiIlxuhU8Qb5V4NsBpAJWEPOJK3mlOiEMPalFS5G5q3wFAhC2KIn7wtoZgreUsibEsPRgV3J1vZd0JasUXJsGs18J5rdI4Fthro+ZzHm3cGSHRFHi89ju5koHpwFkS6vZhK6kaGBTilW6+kOQJ2p12Bx2Apcr74FonvjpRm38P9gMWuyCjEACOAG6HzDhQksksa5cLjle9Oxrab250spdpXRuXeuhlokgOqiciCWOEkOQ845eYBvxLzV4yDRhQ8vOmcyANW7e1xrxRZbEmECBgMg4jWPWg1VLxk2LMa6GevZNjd+gfCC8YEkQWRt5qbVXNRVLE20Qn+SkQIMJ/cFS1FpuGIbmhp3b4EaWjg3fG7k7lWg+hO5i2uBS+goHOSA4y8m9WQ0p0HSXSvECXDsBrAWMK9INJqMcVZEFHF7Akp1stifys+QcudvCMcwoIQuyIX+5OquYOmdivdUuTe6ciCAOVgq4HzeOn8W8KLa7WiZPjQORko6vUiXjoGWw1rk3rxCu7Hi61/wFGBsyA4DY0X4cKKWQgpphcBV86CEFkQnAesWtuiqrWKIhh0QwPvgCNe0Qhd7DJcOauBz0GRCtleLMVFHi97vOZ3aWYGjxccXUQ3NMVqTuatxVHN2hSSXQHm/N1KWBAs4ol8b4ki64NhxXB3RVati1tEBIxFOOBGvMJq0M1b3JJh32oIGAAI4S2WYnQuRyjijejOgzGdrQarfh52GQbjAV6Ec7MgrIwbAdsVtSDYr4uRADepTn+IBDimGqtavDxgWBBTG9dqKM6lm7RbMqxUqGSYAocEzbridJyo5uyiWdfaCAlvDLsMg/HGzPanP8iLcKm8uSgsm4XGXOHVCJ24PGUTXhlHEWVP8iMP9wKySYA3UwRsDtDxt8XYgqAIeA4siCkL5/F+RrPPiqvGUl5cq5PdPdeCRrzCMqObfby9OEAR74txYTW43cmwuAbGJRwBt3BDdrEIZ21qVMxXBiNgIb4BbQgRARdJgO3+kGxsp4vibvaAkQc89YhwAUXePjulcsmw8ZhvNQT2eGmIVDI6VkyzdoU1c02M+/G299bVZGA1gHEM9wOeI9pROoubcmZPSLV3UsSwl4SylOauaHRxlDvhhzPERTVoQdgHWYA5AmYLgiNgCWloU4IQN0Jvd74otv5R3t6djEuGRy2+HCB4VkNMWA3mr5q4ZFg262agZBhMBHhbel6ES2nO1WHVuLM+Z3Q3KcZ/JlT7gN/ztOzJP4LBAkziKyyIuMqlyMWLeVdkFGJMZtw8Xq5cEyXDsuhO5jVCD7q4xg2eiiy8wmqIaPaaqNcIHVYDmFB84a7H3p+Se+tiunlOU864ojFn3NWkmM/GVauf08cqYUHEWYBV34Jw7k4qbEGgIftkpWWpWzKc1p2fuVaD2wi9EiXDvDbBWQ28uMYeb1Qx/7eIeLEDBZiItGZKx7TIhePCS41PhWRrXlgxllOU+hz3bhCN2QNEwO+wIDgLQrHubWl3LmxZVpguoRvapEJs/SOsBvNWupGLPN6hWQ3lzpFhDc9qiFHUG9bsF9lqoMcv5x0o5iKPF0wG5izvPSWpWxckdDtPJ/dWilZIgLmCLZgFwbnE7NFR9FsKK5bwgFOq+U3OA4YFMQnwu5MNLRkezOOtQAEF+7t5ZyCsWS+GVevBiFa4nK0GNEIHkwbenTiuOyezANO0bnlSs5+l0S+a6IhMiDIXxzAGX3y8iMcCLPKAZXNHXLVXcjOeZN6aQRcvLIgJjLv1T3GwZLguZ755KIMmmNXAu7L4BRRNmvWQn8eLyjUwKYnmNp0SV5wvJ1RrGUUyz6XaiweGdIoa1XAF2KapY2+pSbEG3AjYuLc571bCIQKemAxthM47ULglw5zHGyziFXm87ZuFgEfdiHdtWHe+yx4vdhkGk5jSNI6AE6r9FRLfdroYttLo54shSATMQwgwXZwU/Q6wB5xQzZVpvXgJC3AGi3ATiNK0lqXuLsN0ntzCVkPN0MW1Mp/9sIcQXoqave5kdA6u4ZLh8HJ0JwNTARLCVs+CoAtiOQ0SYN+CqNgiHGdB7BB5wH5DdlgQE4KQ351MN72S4Up3J6NzTBeN0NeSuF/ZrBdrT0XJMJhKNGuFT8Q1a15Ks9spSn0umXcOuFkQFbAgRB6wOUBTym0xxbi3mUuR73rsNFQpjW/c7mTFubzLsNsInbf+Cb64xusCYgcKinrdiNd+KK6byOMFU5RM5j3sAQsLQhUWxLNJzTwosiAqYEHE6aINKebBsFeK7HvAyAMen7SufGawZDikWBXtTiaElyJeT3jXJPL2lUm2GjIQXjBVIQFmD5giky/ThbKcxHdrUnOEBRE0D5ijnbfnAZt3p9vt/0EX3t+jHeX4grMaeHEtxXm8lexOxsJ7aEF3V1I0Qreu4DxedCcDgOA84JRWnEdRcJ6i4N9zFkRa7I4czILgSrp4++YSXdAHm2TjdzHNvD4qm03Ykn68cKhk2G2E7ncnq2DE2+4trvFml7q75xqsBgA8eG82PwsirhnLKTpxsyB4ES5gKTJfgDE6RqNs7iQRvjOqWue23tr9Ee+lwVHEbYRunE0iu4TTybhkWOTxeh5vEPFlf9ct4nF2cVYD3dSvTKobSXjh+wPwdkpuGhpdNPPo4lnhLsIV3+JeEIEsCIqAOAoi0X09JBf66nPm9aGlm9K8DZL3yuAoIAooVGsuV66JPF7VeUNs/VNBq4Ej3qTmlgxzVgOsBgDehWat7xOJPOcBe1kQui1KkQMJMD2XI6GYZr3cmCtsCstGhvefa812f8B7WTBWcMmwxiXDxtlx1bjN3fqHu5P1UsQbzGpwsxo44i0O0HEo4rXX0OOXJ/I9DbAaADgCbEFEl286hSKir9KFI/KA6SIKVorMFzWLN12UMdV8hSKiTSndXJhUepp5K3zvpcEYkJI7TmrWes+iz2WJ6E4mm26THBbOgCXD7k2a1wlEHu9DnMfrNslB5RoAw4OiI05DowuRLYjlvgUROAtCLMCIY7ycVM1CXLMWN+tOknfh8F4ZVJFWrdvdZXgwj9ctGU7wzKTM5zWcIZ5HN1fObImSgAurQbXWxlW/ZBi9GgAYMRGt8AmRB6yZ7TSeowuLImC3vr/chTiswZ4iiTBdsC9zBEyPLWYLogYWRBU5ZDWwx+t3J6tMAQV3tnO4sRKXle+KK+aa5rxzObIaAAjA0CyIpGaucLMg2ILoE9FOuYvxyMNPQSIB1iy2IHoSWnFBNGemEQFXh5BYXCvO5e3dRcmwbzUEXFzj58Xpc2xSbRrWH6OK4ZYM3/FobWsGi2sABIZLkelCm0eCu4wtiFS+At3QfAHW2YKwenjfubRqpCDAlUV0J9OLX0rwnmuDVsOhdLJyn82RhnieiHh7S2HNKVHE+2JMNdb6ebzoxwtApSiVprEA0wX8Vc6CoAvQjYCFeI5+EY7zQN2OatbL9JiwIHj/udYsFuEqAVsN9HmdRWK5JKRYv/W7k/F7P1rh5cFWA0fNHPGGciS8mrkmJfJ4N9fPQ8kwAJWF20LyIpzbDc1cwR4wXcReFkTARTj2kTXrFV6Eo6nxQkTAweG2kBzx0vsqshrc7mS8uDZ6q8F/Hke8TarD/Zt3xRRrLQtva7tZh+5kAFQRYUG0cymytSzFDdkHu6EFEWBvES7vuItwqpEh8U1hEW50cMQrrAbF3WWYPd6gi2tCeIXVwPutOQMc8cZV66Fmz2pAOhkA1cbrB8yLcCS+7UnNfpa+r4AFQQLMUTQvwqlWTypvL0pohRZEwCODK9e4Oxm9j0vcAoqhVsNoF0lZfN1OdU2qRRGvuSumWg+mvSY5kb6+Y72XBwBUFS5FXuqcTNHQoTxg3QleiswWhOsBkwCbBucBcxpa/G7nQ94rg3dhxtKeEykKnZvQbTerQQ3enexQxOtlNZDw+rsMN99RrJ27Dnm8AIw5UX9XZM4DFlkQzoE0C2gQAWahEFE0e8CchmZen9J60zVYhPvL0GwkRMIbUTaeHfFLhmXTy+Md/eLaIeEVW7sPhHKFF2OavaaZhJetBmQ1AHC04FJkbsiet79CF+MyumCfpa9eN7TyF/QRB4sFZ0GIY5iv0GM9JOyLkvnNzbAgyjNdNk+KKMbZCbnAEe9jNfKhPdfoJhZIfF2rwY1446I7mX0lCy8KKAA46njd0HTnywldCPBWLkUObEFwP2F/EU41DZEH3F5MRbS+D3svDCRp2oyl6z5Up1mt9bK5pD5nPFY/WDJcLKXLvK/DGYMRL73/YZHVYLwYVY21zXnrcvpM6mA1ADCO4GY8woIQDdkN4QELDzeQBcF5wG4amsiC0K1MKud1QyuVpnkvPXXJZN5Tk7Vm1OWMK2qyxsbZ2Z43mvJs2QTPamDxdq0GN483ScJLMxx0JwNgvPH2UmRjOWdBJDkLgu0DupjLXehHHMKCoOkzHSOqmq+SCHTTlPdfSARmoym3JHF/3JpsoWXm7T230tetTbJRSnLaH79v5d7PYQxhNdB77loN1q7oYHey3roZaJIDwPhFdEPjPeFUtxQ52R68FDm5rI+mwMVSTDX/QOKbS2o9redoa/7We8kpCd98KBqdEVGNb9e0FTpqc8ZLcXqvmoXPO/KbnRBret7QkuGoYq3183ghvABMAObkesWuyCnVzid1tx8wR2SjjYCFcNNzScz/lNDMO5LLrM9/4a6O93svNyWZrnV9OKwaX4yqhhqSje0hxRrwU8rKvYdHGn5WA0W8rtWgWg+S6F7xGXUzFtcAmChwKTJbEOwBcylyTLO2hhWrP0pR1WimxINRs2r+FwnCXYm8/YWpLr6z2op/V5ctXNCYKzwYVoxXWHi5UOXw9244Q1gN7UPyeBVjbVIvXpGSe7HLMAATEc4D5lJkiqKWUXT2XEi1D8SESIxsQcjLeiDxtV6g6Dcf180zp7r4Rn7WfUJNtudrtdmedWHZfDXNi2wjXNw8ZDWIkuES5/Gyx9usm9+FxwvARCaTeQ8LsOiGRgJMIrG1UTYOsgBzBFxOEMoN9oxJdPsp8n08rlg3xFQjOtUjMt6VIkTiW0fiGyHxFfunjVh8B62GUkg2d8XZatCtK5LLuYACC5oATGy4GxoJcLNuXUAX9wqaIj8XUqx+3nbmiClRbFGwSOvOQRLfnQnVWJWQjf+RyNt/z9kV3itMSVh8aQbwtYhirqP3dUTiy++5K7y9pSb66loN1loWXuwyDMAkg3dFpgv7Au4HHHIF+AALsJsLTJEwWxFDo2EW3vZiKb28j6Je6y0avXHFmc9pZsjxdcU3rRq8y/QaFl8W0uF4vkJ4Sai9rAbe+udFmk0MdifD4hoAkwy3H3DvKRRxDVoQIbYg/CyIMkO0mnQthz1JxbwvofV+laNe75BTmsZbuz/ibg1k58Oy8Qe2DhJ8I+P37jDBHTr433lxzl9cc0uGuR9vb11NBlYDAJMTilhb9cdPdi0Ic0VTrvA0icB/kXj8uUk29kZU82CSIt3Uit+4YqHbe5O6s5MEojuuWfPjy5zG1hXbMCUmZixd976YXjw9odrfiVDkGlasXSyqzfTeiZsW37xYbL2R9m5m8WV9YnHN7U5mreUmOWJ7d5QMAzD5SWXNU1mAKQL+aUgu/N+6XM8v67OFR0Ky+fuY7ryRyDtvUjS2g6bBv+a8Xvr+qqhmptO/fBqNdYYwgwSTZgINdKO6nO2HpGbu4qKWmGoNxNla0ElshcXgNtmJ0+N0sztAMw6xyzCXDMNqAGAKMW916b3p9t/8t0S20NKkFs4NKeaXQ7mef47Ipk4CUaCptMmLc0nVuCIlm+fEsoVa7GpRnrlLt76PsxNSeftKEt/7KJp9vEEu7GzIGQdCnD6m0qCv9PNb/DhFyI/HFOM+Lhnm53EE7R0KADBViGh9fxvRuj78xZ9bx7cq9icTinF2XDH+VUS6sn1eWDU+1SIXjmvNdB/jPQWUgfdOa1nm1CR14+thxbihIWusbMwWHm9SzD0hxXq1QTb31N5e+F0tPd6UM27g3+Pfx55rAABBMr/l+Hq5dyaJ8ixuDu49DIYB36CSivXxsGqFo6r9jwmlcGNCNe6nGcT6UM64v66tcGNtzv7H+jYr3Khs+DhuaACAt0OiAGEYLaVpvJFly9J1JybUnkRELsyjSPcb9fS1gX4O0eOezYB2nAAAUA1OXvLzv/nYz7pPmP7TjpNOp68n//znf+P9EwAAAAAAAAAAAAAAAAAAAAAAAAAAAAAAAAAAAAAAAAAAAAAAAAAAAAAAAAAAAAAAAAAAAAAAAAAAAAAAAAAAAAAAAAAAAAAAAAAAAAAAAAAAAAAAAAAAAAAAAAAAAAAAAAAAAAAAAAAAAAAAAAAAAAAAAAAAAAAAAAAAAAAAAAAAAAAAAAAAAAAAAAAAAAAAAAAAAAAAAAAAAAAAAAAAAAAAAAAAAAAAAAAAAAAAAAAAAAAAAAAAAAAAAAAAAAAAAAAAAAAAAAAAAAAAAAAAAAAAAAAAAAAAAAAAAAAAAAAAAAAAAAAAAAAAAAAAAAAAAAAAAAAAAAAAAMYnkvT/A4x00fIY24wRAAAAAElFTkSuQmCC;fontColor=#000000;container=0;movable=1;resizable=1;rotatable=1;deletable=1;editable=1;connectable=1;" vertex="1" parent="38">
                    <mxGeometry x="11.995789473684226" y="2" width="55.958375025015" height="55.958375025015" as="geometry"/>
                </mxCell>
                <mxCell id="4" value="&lt;b&gt;Azure Bastion&lt;/b&gt;" style="aspect=fixed;html=1;points=[];align=center;image;fontSize=12;image=img/lib/azure2/networking/Bastions.svg;fontColor=#000000;labelBackgroundColor=none;movable=1;resizable=1;rotatable=1;deletable=1;editable=1;connectable=1;" vertex="1" parent="38">
                    <mxGeometry x="91" y="76.03000000000003" width="57.99999999999999" height="68" as="geometry"/>
                </mxCell>
                <mxCell id="72" value="" style="endArrow=classic;html=1;dashed=1;dashPattern=1 1;strokeColor=#0000FF;fontFamily=Helvetica;fontSize=12;fontColor=#000000;rounded=0;entryX=-0.008;entryY=0.629;entryDx=0;entryDy=0;entryPerimeter=0;" edge="1" parent="38" target="17">
                    <mxGeometry width="50" height="50" relative="1" as="geometry">
                        <mxPoint x="168" y="194.02999999999997" as="sourcePoint"/>
                        <mxPoint x="336" y="208" as="targetPoint"/>
                        <Array as="points">
                            <mxPoint x="168" y="220"/>
                        </Array>
                    </mxGeometry>
                </mxCell>
                <mxCell id="5" value="&lt;b&gt;AksVnet&lt;br&gt;10.0.0.0 /8&lt;/b&gt;" style="aspect=fixed;html=1;points=[];align=center;image;fontSize=12;image=img/lib/azure2/networking/Virtual_Networks.svg;labelBackgroundColor=none;fontColor=#000000;movable=1;resizable=1;rotatable=1;deletable=1;editable=1;connectable=1;" vertex="1" parent="1">
                    <mxGeometry x="775" y="15" width="83.75" height="50" as="geometry"/>
                </mxCell>
                <mxCell id="115" value="" style="edgeStyle=none;rounded=0;html=1;dashed=1;dashPattern=1 1;strokeColor=#0000FF;fontFamily=Helvetica;fontSize=12;fontColor=#000000;entryX=0.001;entryY=0.535;entryDx=0;entryDy=0;entryPerimeter=0;" edge="1" parent="1" source="28" target="64">
                    <mxGeometry relative="1" as="geometry">
                        <mxPoint x="1507" y="114" as="targetPoint"/>
                    </mxGeometry>
                </mxCell>
                <mxCell id="28" value="" style="aspect=fixed;html=1;points=[];align=center;image;fontSize=12;image=img/lib/azure2/compute/Kubernetes_Services.svg;fontColor=#000000;" vertex="1" parent="1">
                    <mxGeometry x="1359" y="84.00000000000001" width="68" height="60" as="geometry"/>
                </mxCell>
                <mxCell id="43" value="" style="endArrow=classic;html=1;fontColor=#000000;strokeColor=#0000FF;dashed=1;dashPattern=1 1;rounded=0;" edge="1" parent="1">
                    <mxGeometry width="50" height="50" relative="1" as="geometry">
                        <mxPoint x="864" y="396" as="sourcePoint"/>
                        <mxPoint x="936" y="396" as="targetPoint"/>
                        <Array as="points">
                            <mxPoint x="864" y="396"/>
                        </Array>
                    </mxGeometry>
                </mxCell>
                <mxCell id="49" value="" style="group;movable=1;resizable=1;rotatable=1;deletable=1;editable=1;connectable=1;fillColor=none;" vertex="1" connectable="0" parent="1">
                    <mxGeometry x="938" y="600" width="240" height="190.06" as="geometry"/>
                </mxCell>
                <mxCell id="50" value="" style="rounded=1;whiteSpace=wrap;html=1;dashed=1;dashPattern=1 1;labelBackgroundColor=none;fillStyle=auto;strokeColor=#333333;fontColor=#000000;fillColor=#E6E6E6;container=0;movable=1;resizable=1;rotatable=1;deletable=1;editable=1;connectable=1;strokeWidth=2;opacity=50;" vertex="1" parent="49">
                    <mxGeometry y="30" width="240" height="160.06" as="geometry"/>
                </mxCell>
                <mxCell id="51" value="&lt;font color=&quot;#000000&quot;&gt;&lt;b&gt;appGWSubnet&lt;br&gt;10.4.1.0 /24&lt;/b&gt;&lt;br&gt;&lt;/font&gt;" style="text;html=1;strokeColor=none;fillColor=none;align=center;verticalAlign=middle;whiteSpace=wrap;rounded=0;container=0;movable=1;resizable=1;rotatable=1;deletable=1;editable=1;connectable=1;" vertex="1" parent="49">
                    <mxGeometry x="55" y="2" width="90" height="30" as="geometry"/>
                </mxCell>
                <mxCell id="52" value="" style="shape=image;verticalLabelPosition=bottom;labelBackgroundColor=none;verticalAlign=top;aspect=fixed;imageAspect=0;image=data:image/png,iVBORw0KGgoAAAANSUhEUgAAAV8AAAFfCAYAAADptc+BAAAAAXNSR0IArs4c6QAAAARnQU1BAACxjwv8YQUAAAAJcEhZcwAAFxEAABcRAcom8z8AAE19SURBVHhe7b0JeBzlle5fTmAyM1lhgEluIATHwbbWVu/dkiNCNsNlmf/cmCSTsOTeJ5BMgDtz2eJ4aUJCIJMYMOqurWWbzebGN0AwjrEkE9nq2lpWAgSzmczYnmBiMjYBzGIbWf0/56sqWZgOllTdspb39zzfI6mtrpa7q9463/udcz4JAAAAAAAAAAAAAAAAAAAAAAAAAAAAAAAAAAAAAAAAAAAAAAAAAAAAAAAAAAAAAAAAAAAAAAAAAAAAAAAAAAAAAAAAAAAAAAAAAAAAAAAAAAAAAAAAAAAAAAAAAAAAAAAAAAAAAAAAAAAAAAAAAAAAAAAAAAAAAAAAAAAAAAAAAAAAAAAAAAAAAAAAAAAAAAAAAAAAAAAAAAAAAAAAAAAAAAAAAAAAAAAAAAAAAAAAAAAAAAAAAAAAAAAAAAAAAAAAAAAAAAAAAAAAAAAAAAAAAAAAAAAAAAAAAAAAAAAAAAAAAAAAAAAAAAAAAAAAAAAAAAAAAAAAAAAAR5H4UudDoaU9J6Zk86SU3EHDPKllWc+JySXW8TWZ1X/l/RoAAIBKENH6jk1lzVOTmvX5uNLztbhsXhiXey5MaeaFSd34elwxzo8rhUYWZ1eES9O8p4JhMG/16vdeSu+xP/j9PvzneatL7/V+HQAwFchkSu9JZq0ZJK4XJVUjl9DMNQnV7OCR1MzOpGqui6vmPfT491Jy8UspubeOo2N64nu8Q4B3Ib5064eSeWtGIm83xJc5jfx16ODHWuhri148Pblk/fHe0wAAkxqKtuboj50W15wLKepdRYL778l88c8ktHsTmrWXxPe1hGa/St//kf7NTqqWTl+vS+kmibB5EoV0iNbehVat74TmvH0GvW9XNOWMG2qzxo8bcoUb6Wb2o5Bs/mh6W+HG2TnjprRm/XDOMudf0u3OF2Mrih/1ng4AmIy0ZrqPicq905Nq8WIS1JUp3dpGAlxKLe8rpXTn0Mj3llLtxRIJyJsp1dxGkXA3fV2UkJ3IjKXr3ucdDgyFZgWfu/Opv0vpxS8ldOunEcXc2CSbT9bnjGdDucIzcdV4OqQYT3+6rfAMPbY1pllPNammEVbNtrTunB/Ldn9UKsHaAWDykSm9J61u/lRcsS5Kac7dFNluT+rF/nT7ZhJaEts8i64/ikJ8U/RvJLwHSYT/QNHwnQnZPq9eLhznHREMIUIRLwtvSrP/LayYv2nMGa9HNOetuGL2x2jQza4/RoNEuT+uWv1N9G8zcsYbM3PGFvq3tiZ6b0/9NxJgAMDkgSPelmUU8SrORUnF/L8kpjuSuj2QWkbCq9sljn7LDVeEe0tJ3XmTxHpzUrEWh1UrTELzt96hAUWr9H58OJG3z4gqxs+aFOO3IdV5I8o3rmV9pTTdxNJ8c6PBX3k002Nx+vdafXNphmztn5U1nmxSTDmpFs6ty2/4e+/IAICJDK+oR0l4U6r5zYRqraIIdrsQVhZV7S8Lrz9EJEy/S+K7m4T7Pnr+VxO32RAID85qCNOMIqWb36XItrtRpoiXhZffN76x+UO814d+TovvnVKdXixNbyscqFWsJ5pkIzc7a5x/Gr+/WNwEYAIjrAZDWA0J1V6ZUDjiLfb7NkM5sX3HYA+YxCShmfuSmtlDx/nOnNymU+BPurR2dx/TrBdrk7qVSajmFhLggaQ3o0iVez+9wf/GI06fQwMJ8Kdla99pbYUnT28z2ma2GefNUjd9zHsJAMBEwl1cK0xPkvAmVeteEfF6VoMbiZUXhXcMsQBX5Mh3Hw0rqRpXNN/W9QmIrwuLb7LNqg8rxg9jivE0e7tsNQz3PW7W6Su9x7V6b+m0rLn/k7f3bPlU2yZ5Zs469zRYEABMLDiPV3i8nNWg2feIxTXNGnD92xEILw9ffFUSX90y6bHLEfkeIkPim5LNuvq2nhsaZeMpinzfYl93JO+ziJDp9+u1YumTtxcOUAT8xMxsT/b0rHG+uwiH9xqAcU+m5FoNXKnGVgNFvjuS+WK/WFwbrtUwdCDyfVcGxTdb+EF9znhytOKbpgg4rhdLjRQBz5KtfZ9uKzw58/ae7MxbN573iVtgQQAwruEp8Jy7nNOSqnUxieS9Kd3ZltRGYTUMHSTY6WV9LL77fc+3VXdOhvi6sPiG2zbW17T1/LAhV3g6rhj9zaOZYdAQPjDd7MJCgM39p7f1bKnJ9ihRzT4vli0iDxiAcQldmMJqyJPwatbdNNjjPTgqq8Ef9Dw331dkO/wpoRir41pxXkp+7CTvVac87K3Pus2sq20zbmhwbQeROz3a9zzNX+m5TRQFz872HKiXzS303mdpJvMPqIQDYJwxb97q90aXFaan8/Y36EJdlVBJePPOwdSyXhFJlbvIhzOEVSEWj5zddNwNcdW6Jqlurm9dse2vvZee8rD41ubs2SHN/F6TbP4mpBgHYzRTEDeuMu/pkYaIfmkk8sVSmEa9au0jUX+S3vsczWjOnQULAoDxAVsNLXJhekI3LqGLd1XSLRl2rYYhF/WIBgsHXfgi4lXNPQnd7opr5tVRzYw13NXxfu+lAZEpZd4TVjd/jN73C2KKdW+jXNgZ0YtixpEejcfuDSHcXgRcJ5v7Q4r1RFQx5YhinJ/IIw8YgKNKhi5ATvCnyPSihGbeQxftdvpe5PHyQtnhF/Rwhyu8vMhm76GfO0l8r0urxWjy5//5N95LgyFwe8h0e+9MEuBvxzTzvrhq7xQ3MP4cyry/Ixr0OTbpvaWabOFAgyzyiNtYgGfd8jAiYACOBqJyjSJeikj97mQ7XKuBE/xHKbwsGMJqYI9XCO+GuG5dk1xuhc9Zg5Lid2Pu0q3vo4h0dirvXJpUrQfo83ghqtmlWN713EdjQfAQFgRFv010nHrV3leXM56sbyvIDTkuRUalIQBjCvuMc+567LSEYlySUs2VdJG63cmCRFoiUvOtBjfiTWnO1bF2gyJeCxHvMIho2rG+AMdV8xehnPFCk+ocjNNMgt/fd7znwxyDFgQJ8GyKgGuyxhN1bZvk+uym8+u4FBlZEACMAZmMm8fb7lzIBRR0cW5P5nvfCmw1COEVIrGbfu6kyO26RL4QSS6B8I6EmtVb/iqlmbPYgqBZyX1h1X4+pFgUAdP7W+Z9H87g57kRMKehFUs1irlvVrbwZL1cuL1Btc4VaWgAgOrhlwyLRuiq4ZYMe1bDqCMrEfG6WQ2+1UDicTVNndG9bJSwB8wC3KLb34qq5v1NOfOFmO4MpNnSyQeNgB3XglCs/XW5ni112UKuQTbPQTc0AKoEd89qkXunJxT7Ei/idbMaRMQbQHg5IuPm6aoprAaK2K5JtxejiHiD0dpdOoYtCHpPL6Mb2S/oM9vJN8qkO7so/3kMY/gCHGUBzhUOkPg+0ZDryYYUAw3ZAag4Xncyt2RYeLyiEToL76hKhr0hnu+K9+6EanfRuC4hFyKIeCsDWxCcBdGsOZelNPv+mGY/H1btUpzfc37/D/s8hjN8C4JvmryY16BY+xpyBS5rbmvOW+eiEAOACsF5vHHdOY0iUt7s8t4ECW9K5zxeN5G/3AV6xCGsBld46XgviQIKzbyatwmC8FYW34JICwvCuD8kmy+ENWcgzrMN/hzKfT7DGEMj4CbF2h9WzC1JlRuyW+eeiSwIAAIi8niNT9EFdahkuAJWQ9LL46VozLUaNOPamGrAaqgWmdIxKa1vFt08vx3XrPtYgJtUiwSYPoPRfo7e4OezADfmjAMR1XqCZkZiT7hE/ncswLAgABgxpZIQXpHVwDtQ8NY/+d7Rdyfzhoh46WJlqyGlml1JxbiWHmtCxFtdhAUhGzOb89ZlUcV6IKSYO0mAS/E852UHjIBJxKM0mlR7X5NsPEmPZ5vzvciCAGCk8GINb/0jSob9RuhBu5PxBS6sBu7N6y6uJVT7KvZ4Ubk2NkQu7Ts2tcK1ILgSrlE2d4Y15yB7wGLX6HKf2zCGa0G4ETCJ+v6IbG5p1i358+3cDQ39gAEYHry4dsfmTyV0+xKxuOZudul1JxttxOtnNbDVQMKrWh30+LWJvIM83jGG0wUT+Y2z01yKrFq/CCvWzhBHwLqwgcp8diMY7AHTcdiCSOetLV9aUWw7YzlvS48IGIB3hdPJonLv9Hi7c2FSp4hXWA3FCnYns3fTFLdLlAwjj/eoUbN6tciC4Eq4mGI8EBYWhJsFEXwRji2IXhJhZx8J/JOfX+HkPtdu/vdZbcW/814eADAU0QidsxpU6+K4atxLUUzFu5MlNbMzxVYDIt6jDn/enAfcopqXciVcSLZ2NrEFwZ9XBSyIiN5bCsvm/jkUAX/h7r7lX1hRvOSLy3tP8V4eACDw8ng5nYxE8h4v4nW7kwVZXBPC+3argZvkoB/v+OBQGpr17bhi3tekmqIUWQhwmc9zRIMEPKJapbBq7T/jnsf3fOmOov2FFfYlp/+s+wTv5QGY2vjdySgK+gZdNKtoDO4yHNxqENPY3UnNEHm8qTuR1TDeqMmsFr0gRB4wZ0FwMx7NJgF20wmDRMAJGhE6TvO9z5Sa89aBZt26K6H1nkXnGvKAwdRG9GpYVhBb/ySUKnQn44hXdCczr6bIGt3JxinuIpw9u8XrhtbIHnAFLYhofnOpUTYOcCEG74hB58M/tHIlHBqyg6kIN0Jnq4H78aZ4e3eF+/EWRXeyipUM62YXjet4cQ0e7/iG84A/2947ky0IroTjbmgiD5g/zzKf83AGP28wAlatgZBivRlWjKfo37Lpdvu8OepmNGQHUwuOdHjrH/Z4xeKaOjSPd5TCSxEOb1nOg7uTcckwR7zcFhJWw8TA9YD7hAVBEfD9IZn7AduiFDmoBSHS0Og4dLz9Ydl8Mq6YCveC8CrhAJj8iHQyUUDhdycTWQ1+tFr24jnSEOlJNEXlSie6aPckeHFNta6JahtjsBomFr4F0axZl8W4Ibts7gwpLMBsQYw+D9gVYK8UWTYORBRrS1I1cinN+QfhAaMbGpjUeNu78+JaQrVXJsTWP8V+kccbwGrgaJd93rBq7m7I9XRFVLYaNiOPd4LCFkSraMhufJsjYIpWn29S3C2JuBBjNBEwP4cH74rMVkZCd/YlVVNYEMl877lhFbsig0kIZzR84a7H3s+9GkKKdVFU5V2GKeIV3cmClQzTFJWnlP1hxdhTlytsmNm26eqmtu7oORDeCY2wIFa4DdlZgLkUmS0IIcD0mY9GgP3BN3pu7E7n3wH6eQt9lWkWdh4iYDCpaM12fyCmF09PqcXPNCqFyxpy5j0R1SDhtUXl2qiFlwZHu+nlvymFFfOV2lxPJ41rY2KXYVgNkwEuxGABTuady+Kq5VkQXilygPOGh8iiYKtLNYUAJ3gRTvcasgMw0UkusY5P684ciiiupAvn9sZcYT0J5X/GNTtwI3SOeNN3PFqK3f1UqTZr7KjNFhY25eyGc9bsRMQ7ifCzIOgzv4xLkVmAOQuiMhEwiTgHAHlnX1Izn6TjtaV08xyRhgbARKV1xaMfSbc7n40r1k0RxdwYUsx/D8vGn2l6JzzachfDcAZfcG5Gg1WK6PYrdfm+f5+VNZZHlJ7mS/v6jvVeHkwi/C2JhAWhmPe5hRjOwYQQ4NHnAYvBAu5ZEHRuPkHHhwUBJi71cuE4uijOTGnmjRTpOnSxvBbR6WKhk11cLAGmjCJaoUFCvqdWNjvrNGdxWDfmfOGnHe/3Xh5MQtgDbuWG7FyKfLgFEbAbGp+TSRLgmGoeiKrWloRutqX9PeEAmCi0yL87rjlvn0ECScJr9Dap9l5O70ku6wtkM/AQiyR0LJp27q6TjQ2zs5uuacr3NGRoauq9PJjE1GTcPeESqnlpSDYeqMsaL4QUu5RgCyugBcFpigk6vxL5orAgkqqVi+nmOSICBmC803jIarhZRLyKRREvndSVmBqS6LLdQNHJnrpsT9fsXOFq3vrny1hcm1JwHnBtbuNsml1dSuJ7X1228EJIswOXIovhWxAUAQsLggQYFgQY97hWg3kmTQFvDMtmsSFnvB6lC0JUrAWwGXi4VoNbuRbXrE7O4w3LaAs5VeFmPPVy78xa2fhObbbn/pqcubNOMUsxPk/4fDns/BnJEOeaWJOw99PPW+icuz2hGedhEQ6MS1pIeBP5zWfEFeNmEt7NTar9WoSF17sYDj/Bhz28SGSwV4PilgzPUa0w8ninNuwB191uzqrPGt+qaSs8MJMi4DrFEhVsQSNgIcC8O3beYQFmC0LsigwLAowrWm999CO8uJbUrZtiuuWEZPN1IbwVsRpEFDIgupOpVofY3p0bocNqAERrpnRMU86e3ZgtXFaTLfxidq6ws161D3IELM6fcufVcAefv3zjV60DdKwn2AMe3BUZ3dDA0YYX1+Kq81kS3x+R+PYmdOt1XvzgEs7AOZi8iOJt/UM/d9IQuwzDagBD4Tzgutu7ZzUq1mVNsnF/g2w+Xy+bbgTM59Fh59VIBt/8RVrkkDxg9oBRigyOKpzHm1DsM5Kqc1NKs4sUKbzGkUKQHF4xWLSF8JKIq/YeGl2pvL/LMIQXlEHrOzaimbMSuvGtJtW4nxfhGlRrICqCgKAWhF+KzBaEvUVYEKIbGiwIcBRg4WWrIaWbP6aT0aHxulglFqlkARbXSHj5GBxxiD3X2GpQrWvQCB0cke7uY5pyG2dHNOuyiGr+ok4u7KyTTSHA4rwqd74Nd3BAwOc3lyKzBSFKkTe7uyIjCwKMFWJxbYV9Bk2/bkyqRi+djK+l2r1FsXIn7gjGUKuBxLcriV2GwQjgLIhouyFKkcOK8UC9bD4/uAg3ym5o/hB9ROg8dy0I60kKMrKcBYGG7GBMaFzR/RGabp3Bi2si4iXhTYt2kCSYZU7YYY8hVkNSM1+ixzpJfK/iRuiIeMFI4FLklGbOamm3vxWVzfvrcoUXGjRehKPzK6gF4S3C0fm6n87/LQnFVNKafV6M09AQAYNqwRFvTDU/x3m8JL4OTcGE1cAnZFCrgaMK4fFqttjenU7sa7C9OxgtXIjRuqJvVlq1vh1TLWFB1PIiXAW6oYksCA4SvG5oScXK8p5wwoIAoNJwVkOEIt6Ibv44oVq9dALu5YU1N1Itc4KOYAgBZ6sh7+zmrX/oMZHVAKsBBMHvhsabctZnCw98OksCzBYEnbPcES9oFoS7xlHcR4GCKEWmgYbsoLK03tr9EU4nC2vWzWHVLMaFx8tWQ7A+DSLi5ZOYjsWLawnd7uI83lg7+vGCyiC6oeXs2VyIcXq2577ZXIihOQfDXC1J555oxF/u3BzO4POXBViz99OM7QmKhOW4bpyfWGUjDxgEh7Ma4rJ5ZoS7k+mWE1VNkccrhDfg9M0V3qJnNVidJL7XteR/EzkZVgOoIFwJd+rt5qy6nPHtsGzcN1s2d87IWaUmnSLgPAlogPOYrwPXA+Z2lNaWlG62sQDPQQQMgsAeb3JZb2tCN38cV63eWN7Zm+DV3qBWgxcxiIjXFd4Ncc5qWG6Fz1kDqwFUAS8PmIKHS2uzhQdOzxrbamXr5bBiiKb+6QALxoMWRLvfDc30SpGxKzIYBY2e1TA0q4HTyXixodwJOOzBwusvrqluxJvSnKtj7cjjBVWmu/uYT+fs2RGl8L9IhOXaXOHhetl4KqGYr7P4BprNeQEFR8D0/RNJxZLdUmR0QwMjgCNethroRPpRQjOLJL6vizxeER0EtBqE8Lp5vPQzp5NdJ9LJYDWAsSCz5a/iunManXufb5IL/7NJMW+lSJWDi71Bd9D21y/8PGAuReZKOJGGBsCREAUUomTYuikxpGRYnFRlTrhhDxHxulkNvtXA3cnodVBAAcacdPvTH2zVnZP9FqgiyMg7e0XOeoBznQX4baXIupXjPeFQigzeFW6EzicjCy+dNA6dTK7VUKmsBk5y55JhbpKjW9ekOasBES84iogFZd05k8T3RmGvVSJ3fYgFkdAsUYrMi3BiSyJYEOBwWlYWjourBnu8P6KTUJQMu5VrFcjjpUhCRBOiZNjuonEdN8lBxAvGA423PupWbSrGze5sz349aNWmGwHzOe92Q+M94WBBgHcwWDIsrAaafg1aDaM/+cQQVoMrvBQBvMQFFKIfr+xAeMG4gndh4eAjods/pnN3MwcfQfuVsH/sWhD2/oRqbhnMgrgNFgQg3GmXOaQ7mTvtcq2GAItrJLxiFwteYPPyeJOacS3vuQarAYxHRPl8u/m5wSCkEp36vACErqsDdIwnRB6wYpx/ppuGBgtiqtKy8nfHccRLUy32uyrfnYwtCzerQZQMcx4vIl4wnuFZoLDfNMuzIILPAt0sCCHirgWhWdmWZcVzsCfcFIV9Lt5lmKZDP6mUzyXGoNXg9eMV6WR+I/T/RMQLxj1VWf/wuqGlhAVhbQmrplwvG+fNUjd97NQV3X+NcuQpwuAKLzfJYeGtVHcyeq6b1cBWg9sInR6/Ft3JwESjKpk/dH1xP2AKSg6ElMITM7NGdtbtPV+ruX1TvKn9kVO5EZD38mAyIvJ48/YZXm7jZp5Wibt6JawGf3qm27vpDt8lSoaRxwsmKNXIeXctiN5STLP2NeQKz8zKFf5ffc64KZE3vxmVNzZ9DOX1kxO+m4uSYb6bi6oed0EhSFWPGGw1eCeVazWYnSm2GhDxgglOVao96Xrhdqwx1ThYlyu8WK+aT4YU46HGtp7r6nHNTD74JPKmUT8igXStBjoBxEnEmQnlTpJhDld432418OJa64ptf+29PAATlmr0ORHd0GhQBFxq1Jy3ZmcLu2vaNnU1KIWrm5ARNHlwp0+FM1K67TZCzzt7g06f/OEfh469O6kZIo83dScaoYPJBV9Dfoc/EmD3GuIIOMA1xHvKpSloiS/rK9VrTmlWrrBnVtumDfWycU24DXbdhMfdZdg8My6sBs7j5WkTnTAB7tpiiKwGz2rgiFd0JzOvxi7DYLLi97am8/zQNloceLBtF2D2yCIc14uletUuUQS8pzZrdNbleq6rlwvobT1R8a0GEscbRcRb0e5k3iIdlwzrZheN6+j4YUyXwGTG39WFroGbhX0nLAhPgMtcJ8MZvJ0RzRxLMboumygCrhMC3NNVm9t0dV2bET0ZwczEghfXklpvKwniTd6eaxXsTuYKb0Kz93DJMEe83BYS0yQwFaiXveIk34KowH6GQoBp8C4xYRLgesXc3ZArbIgo1rUc1DT8tOP93suD8YzIauA8XrVcyXD5D39Yg6dWvLhGQ2Q16FYHHf+aqLYxBqsBTCV4VlmNnbzZgkjoRSHAjbKxh16jM61Z16ID4ASATwrRIMS3GjRvWhTgruwPcRy2LHTH607GVsNmLAyAKclgQ6ohWRCBu6HxVwpyeHPPCAl5KGe+FFUMml06YnaJIGecwikx4mTQjJtTojuZ16shwMkgxhCrgU4y0Z0spThXc5McCC+YyohMohV+fxSjYv1RWITjdN2yB9ykWrspAu4ikb9mDvqjjD/8ckhhNQyZBrlZDQEW11h46STgk4k93qRqizzetIrt3QFg3IwiZ0hnwAp0Q6PBi3BxOgYLcMi1IDpYgJFRNI7gRiCiZDhvu1ZDBbZD8Ye/SMd5vAnF606GkuGjQqZb+gCNE67qkE7iMb9HOvFIw/9dfh4/3zsUqDAswG4psnNTyi9FDpwHTF+FAPMiXFEIcEQxu+g6v6oFFsTRp9Vvgec3ABm0GoIvrh3K47X3UETdlVLMq1vyv0FWwxiSKUnvIdH868w66eQf/FpqXdwlfWVhh/SNBQ9LF9L3Xz/S4N/j36fvv8LP5+OI49FxvZcAFaJF/t1xnIZGUfCPBlM7OXgJaPuJLAg6Bi/ChRRrd1Q1O+nxa+nabMIi3FGCu+/zdIcX11JDV1xZeEk8D/8QRzKE1UBDWA2iEbrXnQx32zFDiGS39MlFHVLCE9FbF3ZKvyQhXb+oU+qg8fAwRgf/Pj+Pn8/HEcfrkE7j43svBSpE662uBSGCIe6fUqGiJrYgPAEeEBaEYna4KZ64JsccvsvyNCelFQethkoY/TxYwEXeImc1cCN03UF3sjHkqg7p/d9/WPrY90gk56+XvkVCeTONB0g8nyUhfYnEc68YndKrRxze7/Lz+Pl8HD7e4k7pW4u6pBhFwh/yXhZUCLcU2WqlGelNCcXtHMjXZZBrk6Nf1wP2LAjF3B0RWRDYAXxM4cW1NFfZKMbNKTb4OZ2MI95KlAzThytOFN9q0NysBkxvqg9FosewLTB/ndQ6v0P6BgnwTd/vkB6mqPVJEtI/kYgOXP9rqbR4w8gHP4+fL47TJT1FXx9e3CEtWvQrqfknhvRBfm36E7CtTYUQufZciqyaop8KXUtviOtKWBBB8oAtkQd8KAvCbWQ1Z/nmcHLJz3GNVhPXajDPpKj3xoTfCL0CHyoP12rwshq4V4NuXtciWtzhQ602wtt9UJqxeL30dYpMb/3+eunBBeulxylafZnE8wCJZSnziDsOF9bhDP+5fBz6+S0+7qL10iYW4AVd0udveFiaSQJ8QiYDL7hScOqnsCA0i4IkTv30POAAQdJgBCwKMYpuIYZsdvIiHFq4VhGRU+g3dxZWQ3Fv0OmMGBzx8klBxxGLa6Jk2Lma20Keg+lM1Vm9Wnrv97qk6d//lXQRie4qGlsXdkl7SCAPcMT6g25XQFk4gw4+zg82epFwl/RnGja9jrK4S/pXEvu5bHfw3+P9aSAgvE8iL4iTYP74kAURzB4UAkyBlmtBUASsWLsjsluIQcdFR8FKI4x8b2dVN4+3Mka+azWIrIYB0Z2MpjFie3cY+WOCsBpIeL+3Xvrm/HXSqvnrpe0kvqUM2wtd7iCBLCukox58XI6IORLukt6gx/5jYafUTRH3jzLrpfS//lzC515BqrUwziLMEbCbB2yKUmR6/NqWO3DtVozBFBbO49Up4h3cgSJg5RoNFnB/6x/6GSksYwhN8Y8hsZvBGQjf75BWUuS5Y9EGqZ+FV9gLlRbdoYOOza/BETAJ70Eaf6Roe3WmU7qAovC/8/5EUCGqkRLK4svizZVwYRJhPw+4mYInpIRWgKHJ2/ShcVZD5buTqby4ZovkbXeXYQhvtZlHU3teXCPR+yeKOFfS1+0kiAPCYqim6B42Mp4fTJHwfvr5scUd0o2LOqTm61ZLH/b+VFAhqlUMJRbh6BgiD1i1RBZEUnOunYO+K6PnHWWLXsQbtGxRTHXoGBw5J7g7GVsNKsoWx5JMn/S38zul1oWce9shbSXhG7h+jIXXH2xBeB7wK/TzJhqLWYAzqIirONVqAzAkD9izINwsCNENDdf0yKhWww4ebsTrWg2cTkYnAfJ4x5j566QTOZ1scaf0SxK9l1n82G4YKopjOQYjYPpb6OdNi9ZLV2c6pLrMFgnbmVeYajTA8i0ItxtasRTKGS9FZHfhnIMqXNvDpBqt6sQYYjUkNfMleqyTxPcqtKobW37yS+mDHFnSuJki38cp8tzHEe/RiHqHDr4BeB7wi/TznfT3nXtdF+yHalCt1q/CgvAiYM4DjlBwJXaZWQ4L4ojwh1KNJs082NzniNfN4zU7SdivQW7gmDLtGk94SXQXkcBtoq+vUsQ5cLSFlwdnP3D0S9+/RgL8a/o7r1ywTvoU/93unw8qSbU2PXAtCMezILgbmiW6oVGUjU0P/hL/feXvjmumiLeS25P4Q9xV+UPNO/8lSoa9rAbcDceOJZb0NwsfkRoXd0rXkcBtWtQl/Zn9Vk/wjv7wom8S4X4S3x0L1ksrFq6XzslY0vGlEgS4GrAAD93ui4IsmuUGsxc5+nUF2O+GZu4RpcjtjsiCaF3dDS9/KOwDzcwZn21QjJtpOlKkN8+dhgS8C/qDIt4BinZfpu8f4cW1GIz4MSezXjqeBO58ErqVNP7kp5S9TQCP8mDx5YU/Et/9FJUX6et1mQ1STQmVb1WDZ7tiEU4zb4yrZpHGa+52XQEX4WiINDQvCyLGs11ehNON0Iyl697nvfzUhgsowrJ55ifbCjfOkk2H3vzXm/nux28+3cEOf1NHNNiucC2L/QnF/B2nrMVUI4Utqcce7q+b6ZT+iQRuHQnda6KQYpyJLw+R+dApDZDwbqOvaqZL+jwyH6qLm9lkntmkGDeFFNOOkQB7za3eeU2PYAxmQbh5wLujivVQQrcvadb6PpHJlKbwDfVS7dhMx2MnffPnv21Nt5s/rpeN3kbN3pukN53f+HJv5kiHW722mVPK9iZVcx19/Wb4lk0f8/4CMIb8H+6d8IgQX24JuVdUmdHwRW+8DGE9uH/XXhJgY3GndNUNj0i1JMBoQVlFOAKupdlvk2L+W1w2tlDwtY/Fk0e5a3s4Y9CCWNZXCism94J4qkk2fswZEJnuEjdTmlr0lUrH7nx136wXXn39H5/8r1e/c03HM7fHdMsJywbd7fycv/Jv5sgGf3Ccz+scSKrG1qRiLI0o9hnpnxgf9P4UMIaIyHeD9A2azrP4vjpexZcH2yE86G/9I/18J0W/53yvIB3n/VdAlQgt7TkxpdlfTarWLyhQ2p1g24ECqPLX93CHXUrTMeKqxb2AdzXIxuqobH41lu3+6LzVq6dWH4+ntv/pYwf6++e/1X/wiZfeOrj1+o3P/XG2bLwxq80oNXOkGjCrwR+ebXGQ3vwXE6r1QFwpXNSoWB+fN2+KveHjhKvXSZ/iDAISM85yeH1IhDnuBv9dnvjuXdQl/YrtEr55eP8VUCXmLl33vpa81UzX75KIbGwlsRzgBjoijzfAYE1hPUjo1gEK8p6qzxo/JS1obl29ZUrZSdOefv6VmQMHD95TIl6n8QPr+dIstViacXuhlBZvVPk3cKTDTSuz+uku+vukbt0WUXqaZ1wBo32sEe0iLel4msKfTWKmk7j9nsTtgBBfGocL33gYQ6Ly10h8OxZ3ShdCfKsPR6LR5b2n0DV7cShXeLAuZ/wpqjkHg1gP/mA94HqBmGK83CQbD0Rka97n7ixOqT4e05544dXZAwMDd7H4/jup71Udz5bqFLM0u63gejSHvWmjG1xQ4YmvZj7Ljdd5lTNyqXas93eAMULrk46d3yHVLeiSvkcCXCRB2+eV875D9MbL8MWXI18a6+km8XWI79gQ0fqOnaNa4VDO+CFFqI9FFXM/R61BBVgcg6Nf1XyNZsIdCdX4Rsuynqn1mT75p1c+TeK7gsV3695S6V8efqZULxvVE1/VfJYTuRP5ngaI79hzxTrpfYs6pASJ2K0kbNtYdL2MgnE7hoov/fwwxHdsab6z8ImGtp4r6tsKZkQx3hAL50EzH3zx1czX6OfORN6eeuL7zM5XT3j9zQOXv/TG/uJv/vjG81f86qkDs1WnNDtnVtB2OCS+JLzPJVXjZ1HNjEF8xx5ffEnEbqHxHxBfcCTS7Z3/LSoXLm1SCj0xteLiu5d0YX1St74+5cSXAt73FJ7dNX3zjpcu+vVze5Z9e+2WrafnzP4aEuA0p5aUeeNGM7xeEAdp/CGpWnfFFeP8miXW8d6fAcYIth0WbpRmL9wgXUViZpIQvyGa6EwU26ELtsNYc6ZifZxE9ztx1SzENVOIb9AsqLeJr1tyPPXE12PaiuK2jz785B/nffuhJ1Y0UnTaoFj9ycH2cuXfwBENFnLdGUjl7deTqtmXUMzrEzJ6OYw1vC/azX3Sh+evl76wsFPK0niWhHdCLbhxihzEd+xozVozwrJxTUgxnZhqvelGvhXyfDXztfhUtR2Gsun5Padc9sstX07nzfaIajwXzTsHgna4HzrEh9bODdPNl5KKeV9Ctb8S0fpO8F4ejCELHpFOJSH7ZxK0bhLg14T4ugI37oZoskPROUe+izultfTz1yC+Y0MrXZ8tunkOiW97SDb+I6bZb7HwBhZfke1AwZ1qcDC2jgKzr7UsncLiyxbE/3f34yenSRSjmtke1exnSSD7RYVbwDdbDI6iSYBpmrGPxNehO978mF6slaZ0aeHRgcVrIUWQJG4P0xj/RRYbpIGF66Xn6ef2RRukszLd0ke8/wqoEhyJpvPG2XTtLomr1qMUpe6j63fgHdf1iAeJt2hLKyLf5+OKtTyh9Z7VeOujU/0zLU2LL3VOjmjWPBLH5WKBTHfeEt2NAkfALOA08sWDdLfbxZUzNI25OLqsd/qUq245ykyY8mL+m7qkAfr+zxT5bqCvl2e6pNN54dD7r4AqECLhpetzLkW4t4Rl87GIxjsdU7QaVAM4ahad0riAy2INWJtQ7H/+zPLffhoNdjxEcrVuXUB3pnYWYBLeAxVpok7Da1F3MJm3/yOhWau4ucYc3Tmttbt76tV3HyVE5Nsp/dOiDulXJGjcx3dciq+obHM31dy2sEtSFq2XPptZI6H1aNUoTZtxY8+JddmNZzfKxm1NivloSDb3RfTeEl2nwRbgaeYrrv324gBd9y8mNHsNPX55Im83zF23FcLrw5HonNymU+iN+QrdnZbRm/Qsfe0XDZbLvbEjGfwh0p2PIuC3Eqq1g8R9JQn9RWnV+BQsiLGBeyOQmJ2zoEO6kyLKF4Y0Lx8/o8sT3w4hvs8u7pRuuuERqZG3uPf+G6DCcMRblzXOrsttumV21nisVi4I4a3EwrsQXjd425XQzTV03V9JmlLPZczey4NDlKbFdefklO58OUYCHFHMZ+O6vT/NU4agqSZ8FxTZFPYAfQA76LFVvOIZlQvT560uwYKoMtwVbOEjUu38Tumq76+XCiTCe8ddxgP9LbyDMosv/X2/o6+LuJ8vxLc6nK51n5DSi19qUo3bZmcLj8/OWW+GeI2GF8rLXMPDHr7VwMfiiFe11tLjl0fbzTpEvEdgzvLeU8K6dUFjrpBvks3f03ShX2QulHujRzg8C4LHtoRCEXCePeDC9NYMLIhqQyL2gQUPS58nYVNIgLdRdDmuCi74RnD9I9IA/X0vLVgvraXxzUyX9IlSCc3UK0qpNK11Zd8JEcU4O6aYt4YU89Fa2dgXEhFvUKvBneWm8s4Aie6LCc30rIaehprVW7Ah6pEQFgQJMAnvhQ3ZwgNN9CbGNWvANd8rkO/nTkfeIvHdkdLse+KaeSFbEJlMBhdZFeGc3/nrpBoSt2tpFOevlw6QII+L6FcsANLfQTeEN0l0f0Pjhu93SlGO2OlPxzZCFaRl2W9PbNbss+h6XNIgFx6vlc03ueF5gkZKp2u0zHU73MHXtrtQ7+wi8X0opdpXRuXeuhlLEfEOm9WrS++N5sxYSDZubpSNp7kZMjdFDiq+YnjTEjrWQFK1t8dV4172gFtkRMBVpSRN4+2ESODO/n6HpH9vvbR14QbpAG/dQ9P7sqI4VkNsa0SDIvKXSXjvn/8rtJGsBhGt+4Q5y4tfiqvWbXRdP1avWG+GhPBSUFTuWh3mELnAntVAP7/IWQ0p1fkue7wQ3hFSoqlJQrE/mVCMb0UU82H6oF6O5l0DPWjCtRhieuJbEM62BEXAnAVBd0mkoVWXaSRup9D4yvwOKU8ivHVhl9QvthU6ShEwv64Q3g6pn8T3KXrs3xask1oyfchyqBylaVxAkc7bZyc081bOamCroYmEV2QlHH59jmTwtcy6kHezGlK68yCJ7hVJdXM9rIZRwqXAvOVzXLEWR1WzJ67bL4tk6UO+baAhLAg6Hgk6N+DZkVDtlWIRblnvdGRBVA9ewGIBXviwdMH3H5aWswCT4PVzBDzWAsyvJxbZ6PXnUyROf8vyTIf0ZfobP8q9iL0/GQSErYaWvDWXRHZJg2w8XquYb7Dw+otrgaJeL+KlY7DVsDapF6+IymZd64pubP0UhIjW9+GU1ptO5c1FSdUsJHXrFeHrVEiAD1kQ1gDdgSkCtlaxBRFHHnDV+SELMAndgg5pGX19LsMWBE//x8iC4Nfh11tMr0t/w3P8dyzolOb9cK10KhbZKocoGSbhZauhSTYeq6uQ1eDPXnmBjSNeeuyhlGp+lx6Dx1speN+1hFZooTd3Mb3Jm+irEOBkBRbgxPAtCN0+SMffTtOie2jacnGLiICxCFcteAGOIsyTF66TvrqIhI/GVk7zEoJIEWm1omD/2Pw6XlrZ1vkP0w2A/g6+IfDf5f2JICAc8QqrQTdvEVkNuYJnNdA1V+5aHO4Q1yxbDSIFdRcFTg9S0HQFe7zzVq+G1VBJ0u3GB2NqMUVvboZGgYT3ZfeuVyELgu/CvIFnvthPgr6dHhvMA4YFUT14ar/gARK8TumCReulFTT9f44i0f4fbHJ92EoLMB+Pj8vH59fh11tAr0vie4H4OyC8FcO1GoqiZJithjrFrpDV4M5W3cU1kdWwloWX+7bAaqgS6fanP5jMW800tVgkBFi1XnUFmD+ECkTA/ofqWxCqtYpe42JYENWH82nZAyaBbBcC/Ij0+qIuqZ9TwIQV4ZUj8zhcUN9t+M/h53sWAxdT9PPx+XXod9r5dfn1vT8FVIBWrfuEz2j2WXHVWMqLa3UyWw1idhk84uVNNdtFwx3PanCzGrC4VmU4Ak4qVjO92RkSy0ELIsVTmXIf1kiHiID5JHH62YKgr3eT+IpSZOQBVw+OgK9bI30i0yF9lURRJVEssDjSeE2IJ4uoZxf4gyvS/tI4/HfF82nw8TzR5eOr/HrideHxVozIyr4TOI+XgqRbOJ3MtxoCe7w0RLTrXuu7uICCXuNKul7rajKwGsaE+FLnQ8KC0JzFHAGnfAuCMxfKfGAjHYOlyHnnYGKIBcHNeCSUIlcN4QGvk06mKHTuwg7pX2m0kUBuovEHEtQ99PMrJJpvcBT7g42ufcDfv2OwrcD/Tt/z74vn8fPpOOJ4fFw6Pr+OeD1YDRUjtLTnxDntzhfZ421UjMfr1ENWQ6BtwjjiHWI1xFXzV/T45SkZJcNjjm9BJNiC0KweGq8Mfjj0QQ1+aAGGEGDNGkjp1jbRjEctXsx5wCjEqC43rZWOI2E8nTuKsUgu6JDyizulX9D3a0k8HRLSFymK3U9f+0lc3zlcu4L//UX+fX4eP5+Pw8cTncro+Pw63kuCwLh5vBzxch5vSOY8XlNkNQS3Gng2eiiPl7uT0WwUVsPRpHV19wdSmplO6laGPuBNg2lo7gpo4CHygIUFURQWREpz7o4r3A1tM7qhVRnOBf5ph/T+zAZRjvxF+voPi9dLXycxXbBwvXQ/Ceuj9D1vScQ5ws8MDvrZe/xR/j3+fX4eP987To04LprlVJSWpW7JcFp3fuZaDW4BhbAaKlkyrFkPJRTzf3MeL/rxHmV8CyKVtxdRdGpwFgTvhCFEs8wHOdLhly2yBUF32u1J1biXRPhCbsYDC6L6sEj+xJA+SF8/kumQTiJBbaTo9Rs0FpHY/pjE9abFXdKN/uCfxeP07+L36Pf5efx87zgQ3QrDEa+wGijibcy5ebxDsxrKXVfDGr7V4C6ov5j0rYZ2Fl5YDeOCmuwWEQEndHshfTjuIpzfiL0iFgSdBJ6YswfMWRAp1fwmV8LBghhbLu2Tjv3RBunjNzwi1VIU27CQ++3SV3/4P/O/8+/x73tPBZXG6072tpLhwTzegItrLLws3tydzO3V8GBcK1zOVsM8WA3ji5ps9wfSfh6wTgKct91FOGHQl/lwRzjeZkEo3JDdXskWRDLfPYNOQlgQY0iJG/RQBHupJh3L4vqOQY/zv/PveU8BVYD3XBN5vF7JcF3O607Golkhq4GOIawGP493LiLe8QmnoaVVIyUiYFGK7AmwF7UGHr4Fodt0N7a3k9Dfm8wX0A8YTDl4F/BD3clMr2SYg5NgEa+w+cQO5iJoEt3JeHGNsxrg8Y5zalZv+QDnAXMWBInwxqRmiiwIUYpcCQtCnBxCzHk6tD2hmyu5GxqXImewCAcmPaVpvOW6sBpU+xa2GmqGLq6Vu2aGO8S1NTSrwVzDEW9yObqTTRhas1s+QHfLpLAgOA2t0qXIPB0Sgl7sp9fYQSfKqpTfkB0WBJjEhPzuZLrplQxXujsZB0luyTCJ+5XNKBmeeLAFMbgIp5gF+nCHdEOrUATsWRAp3dnGWRAkxBfPuQulyGBy4nYnK86N624j9DqFt/4Jvrjm9lXha5NE3M3jfSium98NI4934iJKkfNWM/cDTgkLwhVgbsheMQHm4+n2QfqZK+Hu5j3hRDe0UgmLPWDS0LryGZHVwCXDIcWqcHcyd3HNE941ibx9pbAaMhDeCY3bDc1I0Qe9WETAFV6Ec0uRWdCdgzRV2s4WBJ2k3+BFuHnzsCMGmPhwVgMvrtFM8laKeCvXncybPXqLa7t4cY09Xs7jhdUwSRi0IDR7QUI1e5Kq6XZD4w+dToB3nBSjGMKCEN3QrG30dVVCNy4Re8LBggATlkMlw24jdL87WQUj3nZvcY03u0TJ8OSEF+FYgOmDX0zjUDc0NvjLnRwjHZ5vRV/76We3IbvuXBRWN6MbGpiQuI3QjbNJZJdwOhmXDLu7DLsebxDxFVVr4trjkmFzDQVFVybVjSS86E42KeEIuFl3ktwP2C9FFgJcjW5oqrmDHlvF29JzQ/Z5KEUGEwhRQKFac0XJMOfxqs4bYuufCloNHPEmNbdkGFkNUwDXguhNcx4wfeg9fh6wm+JSIQuCI2D3+20k9CsTinHJnLseOw2FGGDcwyXDGpcMG2fHVeM2d+sf7k7WSxFvJawGjniLA3QcinjtNfT45Yl8TwOshimC2wuCBFgzr0+qJMCD3dCE8R98+BZEvvct+nk7nWT3pNodkQeMPeHAeCYld5zUrPWeReftEtGdTDbdJjl8TlekZJivMZHH+xDn8fLi2lxUrk0t4nc7H2IPOM6bcrIFIQSYIuBDUWuw4U2vhAUhSpGNe+PcDY0X4RABg3EIb/0jdhkezON1S4YTNCsMHPHy7FLk8dq8uLY2rjrf5baQ6NUwRWELgndFdttRHmrILvKAK2FBiGmWEHPeb2obR8AJxb6kRe6dPm810tDAeOGQ1cAer9+drBIFFOI64j3XhloNeUt0J4PVMMXhbmgiDU0xr0+8rRS5MhaEKEVmAdZ5V2RrO0XZK+n1PAsCpcjg6BMSi2vFubz1jygZ9q2GoItrNMS5L4IZ5480+1tL5/+VzXcUa2n2h8U1wA3Z1wkLgkuR6c7vWhDcD7iiFkQfe2aiGY8oRdati7ArMjjaiO5kevFLFJFyAYVnNXgeb7lzeZjD7U7merwiq0G11qZU87vJto3181aXEPGCQ3AeMJci04mzmMRyE514wgMWuYiVtyDcUmTVuhiLcOBowVYDie5ZdK4vCSnWb/3uZOJcLXcOD3eIc52iZhJw+ll0J+OIN6miZBj8BfxKOBLFDI0CTZWq1g1NlCKrh0qR0Q0NjCXcFpIjXjovRVaD252MF9cq1Z1M2HaiZJiFl/vxnoo8XvBu8J5woh+w15CdpkxuKbLwgCsUAbMAa7a3CGetilEEHBfd0EqwIEDV4YhXWA2Ku8swe7yVWVxz1zfoWhmg85wiXrdkmLuTIZ0MDAt/EY5OqMV0Am2iE0lEwG43tDIn3UiHd5LScQ/GVWtHWDVXhnX7kvAd2BUZVBeuXOPuZHQeLnELKIZaDUGCC3q+yGoQAr6LjiUaoXMeb6SvD/vogeHjlyJzHrC7JRFbEJXLA/a7ocXzxYMUGewI6da90XbeFRlpaKA6uHuuWXNpVudmNaiV706W0tlq4JJh53LOapi7Dnm8YBS0ii2JeppTurmQ84ApCn4l4UfAdMKVPRFHOuikjWrWQER3tkVU416OgJEFASpLaZob8RpncwGFiHhl08vj5Yi3zHk53OHP4vzuZF7JMC+uYZdhEIhWz4KIq1Ymolmbwpr5SlwIcIW6ofFx6HgUffTHKAKOqubKiG5dhDxgUCmE8CrG2ZzHy01yamS3ETqnkyUrUDLs2XG76PheVgMKKECFSLc/LRqyh/PmIhLHQtxvyC4WzsqflCMZbEGk6Vg0HRxgDzjG/YA5CwLd0EBAhu4y7O65Zr0ZIrFkqyFd5lwc9hhiNYiIlxuhU8Qb5V4NsBpAJWEPOJK3mlOiEMPalFS5G5q3wFAhC2KIn7wtoZgreUsibEsPRgV3J1vZd0JasUXJsGs18J5rdI4Fthro+ZzHm3cGSHRFHi89ju5koHpwFkS6vZhK6kaGBTilW6+kOQJ2p12Bx2Apcr74FonvjpRm38P9gMWuyCjEACOAG6HzDhQksksa5cLjle9Oxrab250spdpXRuXeuhlokgOqiciCWOEkOQ845eYBvxLzV4yDRhQ8vOmcyANW7e1xrxRZbEmECBgMg4jWPWg1VLxk2LMa6GevZNjd+gfCC8YEkQWRt5qbVXNRVLE20Qn+SkQIMJ/cFS1FpuGIbmhp3b4EaWjg3fG7k7lWg+hO5i2uBS+goHOSA4y8m9WQ0p0HSXSvECXDsBrAWMK9INJqMcVZEFHF7Akp1stifys+QcudvCMcwoIQuyIX+5OquYOmdivdUuTe6ciCAOVgq4HzeOn8W8KLa7WiZPjQORko6vUiXjoGWw1rk3rxCu7Hi61/wFGBsyA4DY0X4cKKWQgpphcBV86CEFkQnAesWtuiqrWKIhh0QwPvgCNe0Qhd7DJcOauBz0GRCtleLMVFHi97vOZ3aWYGjxccXUQ3NMVqTuatxVHN2hSSXQHm/N1KWBAs4ol8b4ki64NhxXB3RVati1tEBIxFOOBGvMJq0M1b3JJh32oIGAAI4S2WYnQuRyjijejOgzGdrQarfh52GQbjAV6Ec7MgrIwbAdsVtSDYr4uRADepTn+IBDimGqtavDxgWBBTG9dqKM6lm7RbMqxUqGSYAocEzbridJyo5uyiWdfaCAlvDLsMg/HGzPanP8iLcKm8uSgsm4XGXOHVCJ24PGUTXhlHEWVP8iMP9wKySYA3UwRsDtDxt8XYgqAIeA4siCkL5/F+RrPPiqvGUl5cq5PdPdeCRrzCMqObfby9OEAR74txYTW43cmwuAbGJRwBt3BDdrEIZ21qVMxXBiNgIb4BbQgRARdJgO3+kGxsp4vibvaAkQc89YhwAUXePjulcsmw8ZhvNQT2eGmIVDI6VkyzdoU1c02M+/G299bVZGA1gHEM9wOeI9pROoubcmZPSLV3UsSwl4SylOauaHRxlDvhhzPERTVoQdgHWYA5AmYLgiNgCWloU4IQN0Jvd74otv5R3t6djEuGRy2+HCB4VkNMWA3mr5q4ZFg262agZBhMBHhbel6ES2nO1WHVuLM+Z3Q3KcZ/JlT7gN/ztOzJP4LBAkziKyyIuMqlyMWLeVdkFGJMZtw8Xq5cEyXDsuhO5jVCD7q4xg2eiiy8wmqIaPaaqNcIHVYDmFB84a7H3p+Se+tiunlOU864ojFn3NWkmM/GVauf08cqYUHEWYBV34Jw7k4qbEGgIftkpWWpWzKc1p2fuVaD2wi9EiXDvDbBWQ28uMYeb1Qx/7eIeLEDBZiItGZKx7TIhePCS41PhWRrXlgxllOU+hz3bhCN2QNEwO+wIDgLQrHubWl3LmxZVpguoRvapEJs/SOsBvNWupGLPN6hWQ3lzpFhDc9qiFHUG9bsF9lqoMcv5x0o5iKPF0wG5izvPSWpWxckdDtPJ/dWilZIgLmCLZgFwbnE7NFR9FsKK5bwgFOq+U3OA4YFMQnwu5MNLRkezOOtQAEF+7t5ZyCsWS+GVevBiFa4nK0GNEIHkwbenTiuOyezANO0bnlSs5+l0S+a6IhMiDIXxzAGX3y8iMcCLPKAZXNHXLVXcjOeZN6aQRcvLIgJjLv1T3GwZLguZ755KIMmmNXAu7L4BRRNmvWQn8eLyjUwKYnmNp0SV5wvJ1RrGUUyz6XaiweGdIoa1XAF2KapY2+pSbEG3AjYuLc571bCIQKemAxthM47ULglw5zHGyziFXm87ZuFgEfdiHdtWHe+yx4vdhkGk5jSNI6AE6r9FRLfdroYttLo54shSATMQwgwXZwU/Q6wB5xQzZVpvXgJC3AGi3ATiNK0lqXuLsN0ntzCVkPN0MW1Mp/9sIcQXoqave5kdA6u4ZLh8HJ0JwNTARLCVs+CoAtiOQ0SYN+CqNgiHGdB7BB5wH5DdlgQE4KQ351MN72S4Up3J6NzTBeN0NeSuF/ZrBdrT0XJMJhKNGuFT8Q1a15Ks9spSn0umXcOuFkQFbAgRB6wOUBTym0xxbi3mUuR73rsNFQpjW/c7mTFubzLsNsInbf+Cb64xusCYgcKinrdiNd+KK6byOMFU5RM5j3sAQsLQhUWxLNJzTwosiAqYEHE6aINKebBsFeK7HvAyAMen7SufGawZDikWBXtTiaElyJeT3jXJPL2lUm2GjIQXjBVIQFmD5giky/ThbKcxHdrUnOEBRE0D5ijnbfnAZt3p9vt/0EX3t+jHeX4grMaeHEtxXm8lexOxsJ7aEF3V1I0Qreu4DxedCcDgOA84JRWnEdRcJ6i4N9zFkRa7I4czILgSrp4++YSXdAHm2TjdzHNvD4qm03Ykn68cKhk2G2E7ncnq2DE2+4trvFml7q75xqsBgA8eG82PwsirhnLKTpxsyB4ES5gKTJfgDE6RqNs7iQRvjOqWue23tr9Ee+lwVHEbYRunE0iu4TTybhkWOTxeh5vEPFlf9ct4nF2cVYD3dSvTKobSXjh+wPwdkpuGhpdNPPo4lnhLsIV3+JeEIEsCIqAOAoi0X09JBf66nPm9aGlm9K8DZL3yuAoIAooVGsuV66JPF7VeUNs/VNBq4Ej3qTmlgxzVgOsBgDehWat7xOJPOcBe1kQui1KkQMJMD2XI6GYZr3cmCtsCstGhvefa812f8B7WTBWcMmwxiXDxtlx1bjN3fqHu5P1UsQbzGpwsxo44i0O0HEo4rXX0OOXJ/I9DbAaADgCbEFEl286hSKir9KFI/KA6SIKVorMFzWLN12UMdV8hSKiTSndXJhUepp5K3zvpcEYkJI7TmrWes+iz2WJ6E4mm26THBbOgCXD7k2a1wlEHu9DnMfrNslB5RoAw4OiI05DowuRLYjlvgUROAtCLMCIY7ycVM1CXLMWN+tOknfh8F4ZVJFWrdvdZXgwj9ctGU7wzKTM5zWcIZ5HN1fObImSgAurQbXWxlW/ZBi9GgAYMRGt8AmRB6yZ7TSeowuLImC3vr/chTiswZ4iiTBdsC9zBEyPLWYLogYWRBU5ZDWwx+t3J6tMAQV3tnO4sRKXle+KK+aa5rxzObIaAAjA0CyIpGaucLMg2ILoE9FOuYvxyMNPQSIB1iy2IHoSWnFBNGemEQFXh5BYXCvO5e3dRcmwbzUEXFzj58Xpc2xSbRrWH6OK4ZYM3/FobWsGi2sABIZLkelCm0eCu4wtiFS+At3QfAHW2YKwenjfubRqpCDAlUV0J9OLX0rwnmuDVsOhdLJyn82RhnieiHh7S2HNKVHE+2JMNdb6ebzoxwtApSiVprEA0wX8Vc6CoAvQjYCFeI5+EY7zQN2OatbL9JiwIHj/udYsFuEqAVsN9HmdRWK5JKRYv/W7k/F7P1rh5cFWA0fNHPGGciS8mrkmJfJ4N9fPQ8kwAJWF20LyIpzbDc1cwR4wXcReFkTARTj2kTXrFV6Eo6nxQkTAweG2kBzx0vsqshrc7mS8uDZ6q8F/Hke8TarD/Zt3xRRrLQtva7tZh+5kAFQRYUG0cymytSzFDdkHu6EFEWBvES7vuItwqpEh8U1hEW50cMQrrAbF3WWYPd6gi2tCeIXVwPutOQMc8cZV66Fmz2pAOhkA1cbrB8yLcCS+7UnNfpa+r4AFQQLMUTQvwqlWTypvL0pohRZEwCODK9e4Oxm9j0vcAoqhVsNoF0lZfN1OdU2qRRGvuSumWg+mvSY5kb6+Y72XBwBUFS5FXuqcTNHQoTxg3QleiswWhOsBkwCbBucBcxpa/G7nQ94rg3dhxtKeEykKnZvQbTerQQ3enexQxOtlNZDw+rsMN99RrJ27Dnm8AIw5UX9XZM4DFlkQzoE0C2gQAWahEFE0e8CchmZen9J60zVYhPvL0GwkRMIbUTaeHfFLhmXTy+Md/eLaIeEVW7sPhHKFF2OavaaZhJetBmQ1AHC04FJkbsiet79CF+MyumCfpa9eN7TyF/QRB4sFZ0GIY5iv0GM9JOyLkvnNzbAgyjNdNk+KKMbZCbnAEe9jNfKhPdfoJhZIfF2rwY1446I7mX0lCy8KKAA46njd0HTnywldCPBWLkUObEFwP2F/EU41DZEH3F5MRbS+D3svDCRp2oyl6z5Up1mt9bK5pD5nPFY/WDJcLKXLvK/DGYMRL73/YZHVYLwYVY21zXnrcvpM6mA1ADCO4GY8woIQDdkN4QELDzeQBcF5wG4amsiC0K1MKud1QyuVpnkvPXXJZN5Tk7Vm1OWMK2qyxsbZ2Z43mvJs2QTPamDxdq0GN483ScJLMxx0JwNgvPH2UmRjOWdBJDkLgu0DupjLXehHHMKCoOkzHSOqmq+SCHTTlPdfSARmoym3JHF/3JpsoWXm7T230tetTbJRSnLaH79v5d7PYQxhNdB77loN1q7oYHey3roZaJIDwPhFdEPjPeFUtxQ52R68FDm5rI+mwMVSTDX/QOKbS2o9redoa/7We8kpCd98KBqdEVGNb9e0FTpqc8ZLcXqvmoXPO/KbnRBret7QkuGoYq3183ghvABMAObkesWuyCnVzid1tx8wR2SjjYCFcNNzScz/lNDMO5LLrM9/4a6O93svNyWZrnV9OKwaX4yqhhqSje0hxRrwU8rKvYdHGn5WA0W8rtWgWg+S6F7xGXUzFtcAmChwKTJbEOwBcylyTLO2hhWrP0pR1WimxINRs2r+FwnCXYm8/YWpLr6z2op/V5ctXNCYKzwYVoxXWHi5UOXw9244Q1gN7UPyeBVjbVIvXpGSe7HLMAATEc4D5lJkiqKWUXT2XEi1D8SESIxsQcjLeiDxtV6g6Dcf180zp7r4Rn7WfUJNtudrtdmedWHZfDXNi2wjXNw8ZDWIkuES5/Gyx9usm9+FxwvARCaTeQ8LsOiGRgJMIrG1UTYOsgBzBFxOEMoN9oxJdPsp8n08rlg3xFQjOtUjMt6VIkTiW0fiGyHxFfunjVh8B62GUkg2d8XZatCtK5LLuYACC5oATGy4GxoJcLNuXUAX9wqaIj8XUqx+3nbmiClRbFGwSOvOQRLfnQnVWJWQjf+RyNt/z9kV3itMSVh8aQbwtYhirqP3dUTiy++5K7y9pSb66loN1loWXuwyDMAkg3dFpgv7Au4HHHIF+AALsJsLTJEwWxFDo2EW3vZiKb28j6Je6y0avXHFmc9pZsjxdcU3rRq8y/QaFl8W0uF4vkJ4Sai9rAbe+udFmk0MdifD4hoAkwy3H3DvKRRxDVoQIbYg/CyIMkO0mnQthz1JxbwvofV+laNe75BTmsZbuz/ibg1k58Oy8Qe2DhJ8I+P37jDBHTr433lxzl9cc0uGuR9vb11NBlYDAJMTilhb9cdPdi0Ic0VTrvA0icB/kXj8uUk29kZU82CSIt3Uit+4YqHbe5O6s5MEojuuWfPjy5zG1hXbMCUmZixd976YXjw9odrfiVDkGlasXSyqzfTeiZsW37xYbL2R9m5m8WV9YnHN7U5mreUmOWJ7d5QMAzD5SWXNU1mAKQL+aUgu/N+6XM8v67OFR0Ky+fuY7ryRyDtvUjS2g6bBv+a8Xvr+qqhmptO/fBqNdYYwgwSTZgINdKO6nO2HpGbu4qKWmGoNxNla0ElshcXgNtmJ0+N0sztAMw6xyzCXDMNqAGAKMW916b3p9t/8t0S20NKkFs4NKeaXQ7mef47Ipk4CUaCptMmLc0nVuCIlm+fEsoVa7GpRnrlLt76PsxNSeftKEt/7KJp9vEEu7GzIGQdCnD6m0qCv9PNb/DhFyI/HFOM+Lhnm53EE7R0KADBViGh9fxvRuj78xZ9bx7cq9icTinF2XDH+VUS6sn1eWDU+1SIXjmvNdB/jPQWUgfdOa1nm1CR14+thxbihIWusbMwWHm9SzD0hxXq1QTb31N5e+F0tPd6UM27g3+Pfx55rAABBMr/l+Hq5dyaJ8ixuDu49DIYB36CSivXxsGqFo6r9jwmlcGNCNe6nGcT6UM64v66tcGNtzv7H+jYr3Khs+DhuaACAt0OiAGEYLaVpvJFly9J1JybUnkRELsyjSPcb9fS1gX4O0eOezYB2nAAAUA1OXvLzv/nYz7pPmP7TjpNOp68n//znf+P9EwAAAAAAAAAAAAAAAAAAAAAAAAAAAAAAAAAAAAAAAAAAAAAAAAAAAAAAAAAAAAAAAAAAAAAAAAAAAAAAAAAAAAAAAAAAAAAAAAAAAAAAAAAAAAAAAAAAAAAAAAAAAAAAAAAAAAAAAAAAAAAAAAAAAAAAAAAAAAAAAAAAAAAAAAAAAAAAAAAAAAAAAAAAAAAAAAAAAAAAAAAAAAAAAAAAAAAAAAAAAAAAAAAAAAAAAAAAAAAAAAAAAAAAAAAAAAAAAAAAAAAAAAAAAAAAAAAAAAAAAAAAAAAAAAAAAAAAAAAAAAAAAAAAAAAAAAAAAAAAAAAAAAAAAAAAAMYnkvT/A4x00fIY24wRAAAAAElFTkSuQmCC;fontColor=#000000;container=0;movable=1;resizable=1;rotatable=1;deletable=1;editable=1;connectable=1;" vertex="1" parent="49">
                    <mxGeometry x="11.995789473684226" y="2" width="55.958375025015" height="55.958375025015" as="geometry"/>
                </mxCell>
                <mxCell id="55" value="&lt;b&gt;Application Gateway&lt;/b&gt;" style="sketch=0;aspect=fixed;html=1;points=[];align=center;image;fontSize=12;image=img/lib/mscae/Application_Gateway.svg;fontColor=#000000;labelBackgroundColor=none;" vertex="1" parent="49">
                    <mxGeometry x="95" y="85.03" width="50" height="50" as="geometry"/>
                </mxCell>
                <mxCell id="78" value="" style="edgeStyle=none;rounded=0;html=1;dashed=1;dashPattern=1 1;strokeColor=#0000FF;fontFamily=Helvetica;fontSize=12;fontColor=#000000;" edge="1" parent="1" source="56" target="57">
                    <mxGeometry relative="1" as="geometry"/>
                </mxCell>
                <mxCell id="56" value="" style="aspect=fixed;html=1;points=[];align=center;image;fontSize=12;image=img/lib/azure2/networking/NAT.svg;fontColor=#000000;" vertex="1" parent="1">
                    <mxGeometry x="1644" y="445.03" width="68" height="68" as="geometry"/>
                </mxCell>
                <mxCell id="79" value="" style="edgeStyle=none;rounded=0;html=1;dashed=1;dashPattern=1 1;strokeColor=#0000FF;fontFamily=Helvetica;fontSize=12;fontColor=#000000;" edge="1" parent="1" source="57" target="58">
                    <mxGeometry relative="1" as="geometry"/>
                </mxCell>
                <mxCell id="57" value="" style="aspect=fixed;html=1;points=[];align=center;image;fontSize=12;image=img/lib/azure2/networking/Public_IP_Addresses.svg;fontColor=#000000;" vertex="1" parent="1">
                    <mxGeometry x="1770" y="455.03" width="60" height="48" as="geometry"/>
                </mxCell>
                <mxCell id="58" value="" style="aspect=fixed;perimeter=ellipsePerimeter;html=1;align=center;shadow=0;dashed=0;spacingTop=3;image;image=img/lib/active_directory/internet_cloud.svg;fontColor=#000000;" vertex="1" parent="1">
                    <mxGeometry x="1890" y="450.05" width="92" height="57.96" as="geometry"/>
                </mxCell>
                <mxCell id="59" value="&lt;b&gt;Log Analytics&lt;/b&gt;" style="aspect=fixed;html=1;points=[];align=center;image;fontSize=12;image=img/lib/azure2/analytics/Log_Analytics_Workspaces.svg;fontColor=#000000;labelBackgroundColor=none;" vertex="1" parent="1">
                    <mxGeometry x="1644" y="168" width="64" height="64" as="geometry"/>
                </mxCell>
                <mxCell id="61" value="&lt;b&gt;Key Vault&lt;/b&gt;" style="aspect=fixed;html=1;points=[];align=center;image;fontSize=12;image=img/lib/azure2/security/Key_Vaults.svg;fontColor=#000000;labelBackgroundColor=none;" vertex="1" parent="1">
                    <mxGeometry x="1644" y="746" width="68" height="68" as="geometry"/>
                </mxCell>
                <mxCell id="116" value="" style="edgeStyle=none;rounded=0;html=1;dashed=1;dashPattern=1 1;strokeColor=#0000FF;fontFamily=Helvetica;fontSize=12;fontColor=#000000;entryX=0.498;entryY=-0.003;entryDx=0;entryDy=0;entryPerimeter=0;" edge="1" parent="1" source="62" target="28">
                    <mxGeometry relative="1" as="geometry"/>
                </mxCell>
                <mxCell id="62" value="" style="aspect=fixed;html=1;points=[];align=center;image;fontSize=12;image=img/lib/azure2/containers/Container_Registries.svg;fontColor=#000000;" vertex="1" parent="1">
                    <mxGeometry x="1361" y="-46" width="68" height="61" as="geometry"/>
                </mxCell>
                <mxCell id="110" value="" style="edgeStyle=none;rounded=0;html=1;dashed=1;dashPattern=1 1;strokeColor=#0000FF;fontFamily=Helvetica;fontSize=12;fontColor=#000000;" edge="1" parent="1" source="64">
                    <mxGeometry relative="1" as="geometry">
                        <mxPoint x="1768" y="110.62950819672142" as="targetPoint"/>
                    </mxGeometry>
                </mxCell>
                <mxCell id="64" value="" style="aspect=fixed;html=1;points=[];align=center;image;fontSize=12;image=img/lib/azure2/other/Azure_Monitor_Dashboard.svg;fontColor=#000000;" vertex="1" parent="1">
                    <mxGeometry x="1644" y="80.80000000000001" width="68" height="63.2" as="geometry"/>
                </mxCell>
                <mxCell id="65" value="" style="aspect=fixed;html=1;points=[];align=center;image;fontSize=12;image=img/lib/azure2/other/Grafana.svg;fontColor=#000000;" vertex="1" parent="1">
                    <mxGeometry x="1888" y="83.60000000000002" width="68" height="52.800000000000004" as="geometry"/>
                </mxCell>
                <mxCell id="111" value="" style="edgeStyle=none;rounded=0;html=1;dashed=1;dashPattern=1 1;strokeColor=#0000FF;fontFamily=Helvetica;fontSize=12;fontColor=#000000;" edge="1" parent="1" target="65">
                    <mxGeometry relative="1" as="geometry">
                        <mxPoint x="1832" y="110" as="sourcePoint"/>
                    </mxGeometry>
                </mxCell>
                <mxCell id="83" value="" style="edgeStyle=none;rounded=0;html=1;dashed=1;dashPattern=1 1;strokeColor=#0000FF;fontFamily=Helvetica;fontSize=12;fontColor=#000000;" edge="1" parent="1" source="67" target="50">
                    <mxGeometry relative="1" as="geometry">
                        <Array as="points">
                            <mxPoint x="936" y="708"/>
                        </Array>
                    </mxGeometry>
                </mxCell>
                <mxCell id="67" value="" style="aspect=fixed;html=1;points=[];align=center;image;fontSize=12;image=img/lib/azure2/networking/Public_IP_Addresses.svg;fontColor=#000000;" vertex="1" parent="1">
                    <mxGeometry x="808" y="684" width="60" height="48" as="geometry"/>
                </mxCell>
                <mxCell id="24" value="" style="rounded=1;whiteSpace=wrap;html=1;dashed=1;dashPattern=1 1;labelBackgroundColor=none;fillStyle=auto;strokeColor=#333333;fontColor=#000000;fillColor=#E6E6E6;container=0;strokeWidth=2;opacity=50;" vertex="1" parent="1">
                    <mxGeometry x="1273" y="630" width="240" height="160.06" as="geometry"/>
                </mxCell>
                <mxCell id="25" value="&lt;font color=&quot;#000000&quot;&gt;&lt;b&gt;PodSubnet&lt;br&gt;10.3.0.0 /16&lt;/b&gt;&lt;br&gt;&lt;/font&gt;" style="text;html=1;strokeColor=none;fillColor=none;align=center;verticalAlign=middle;whiteSpace=wrap;rounded=0;container=0;" vertex="1" parent="1">
                    <mxGeometry x="1334" y="600" width="75" height="30" as="geometry"/>
                </mxCell>
                <mxCell id="26" value="" style="shape=image;verticalLabelPosition=bottom;labelBackgroundColor=none;verticalAlign=top;aspect=fixed;imageAspect=0;image=data:image/png,iVBORw0KGgoAAAANSUhEUgAAAV8AAAFfCAYAAADptc+BAAAAAXNSR0IArs4c6QAAAARnQU1BAACxjwv8YQUAAAAJcEhZcwAAFxEAABcRAcom8z8AAE19SURBVHhe7b0JeBzlle5fTmAyM1lhgEluIATHwbbWVu/dkiNCNsNlmf/cmCSTsOTeJ5BMgDtz2eJ4aUJCIJMYMOqurWWbzebGN0AwjrEkE9nq2lpWAgSzmczYnmBiMjYBzGIbWf0/56sqWZgOllTdspb39zzfI6mtrpa7q9463/udcz4JAAAAAAAAAAAAAAAAAAAAAAAAAAAAAAAAAAAAAAAAAAAAAAAAAAAAAAAAAAAAAAAAAAAAAAAAAAAAAAAAAAAAAAAAAAAAAAAAAAAAAAAAAAAAAAAAAAAAAAAAAAAAAAAAAAAAAAAAAAAAAAAAAAAAAAAAAAAAAAAAAAAAAAAAAAAAAAAAAAAAAAAAAAAAAAAAAAAAAAAAAAAAAAAAAAAAAAAAAAAAAAAAAAAAAAAAAAAAAAAAAAAAAAAAAAAAAAAAAAAAAAAAAAAAAAAAAAAAAAAAAAAAAAAAAAAAAAAAAAAAAAAAAAAAAAAAAAAAAAAAAAAAAAAAAAAAR5H4UudDoaU9J6Zk86SU3EHDPKllWc+JySXW8TWZ1X/l/RoAAIBKENH6jk1lzVOTmvX5uNLztbhsXhiXey5MaeaFSd34elwxzo8rhUYWZ1eES9O8p4JhMG/16vdeSu+xP/j9PvzneatL7/V+HQAwFchkSu9JZq0ZJK4XJVUjl9DMNQnV7OCR1MzOpGqui6vmPfT491Jy8UspubeOo2N64nu8Q4B3Ib5064eSeWtGIm83xJc5jfx16ODHWuhri148Pblk/fHe0wAAkxqKtuboj50W15wLKepdRYL778l88c8ktHsTmrWXxPe1hGa/St//kf7NTqqWTl+vS+kmibB5EoV0iNbehVat74TmvH0GvW9XNOWMG2qzxo8bcoUb6Wb2o5Bs/mh6W+HG2TnjprRm/XDOMudf0u3OF2Mrih/1ng4AmIy0ZrqPicq905Nq8WIS1JUp3dpGAlxKLe8rpXTn0Mj3llLtxRIJyJsp1dxGkXA3fV2UkJ3IjKXr3ucdDgyFZgWfu/Opv0vpxS8ldOunEcXc2CSbT9bnjGdDucIzcdV4OqQYT3+6rfAMPbY1pllPNammEVbNtrTunB/Ldn9UKsHaAWDykSm9J61u/lRcsS5Kac7dFNluT+rF/nT7ZhJaEts8i64/ikJ8U/RvJLwHSYT/QNHwnQnZPq9eLhznHREMIUIRLwtvSrP/LayYv2nMGa9HNOetuGL2x2jQza4/RoNEuT+uWv1N9G8zcsYbM3PGFvq3tiZ6b0/9NxJgAMDkgSPelmUU8SrORUnF/L8kpjuSuj2QWkbCq9sljn7LDVeEe0tJ3XmTxHpzUrEWh1UrTELzt96hAUWr9H58OJG3z4gqxs+aFOO3IdV5I8o3rmV9pTTdxNJ8c6PBX3k002Nx+vdafXNphmztn5U1nmxSTDmpFs6ty2/4e+/IAICJDK+oR0l4U6r5zYRqraIIdrsQVhZV7S8Lrz9EJEy/S+K7m4T7Pnr+VxO32RAID85qCNOMIqWb36XItrtRpoiXhZffN76x+UO814d+TovvnVKdXixNbyscqFWsJ5pkIzc7a5x/Gr+/WNwEYAIjrAZDWA0J1V6ZUDjiLfb7NkM5sX3HYA+YxCShmfuSmtlDx/nOnNymU+BPurR2dx/TrBdrk7qVSajmFhLggaQ3o0iVez+9wf/GI06fQwMJ8Kdla99pbYUnT28z2ma2GefNUjd9zHsJAMBEwl1cK0xPkvAmVeteEfF6VoMbiZUXhXcMsQBX5Mh3Hw0rqRpXNN/W9QmIrwuLb7LNqg8rxg9jivE0e7tsNQz3PW7W6Su9x7V6b+m0rLn/k7f3bPlU2yZ5Zs469zRYEABMLDiPV3i8nNWg2feIxTXNGnD92xEILw9ffFUSX90y6bHLEfkeIkPim5LNuvq2nhsaZeMpinzfYl93JO+ziJDp9+u1YumTtxcOUAT8xMxsT/b0rHG+uwiH9xqAcU+m5FoNXKnGVgNFvjuS+WK/WFwbrtUwdCDyfVcGxTdb+EF9znhytOKbpgg4rhdLjRQBz5KtfZ9uKzw58/ae7MxbN573iVtgQQAwruEp8Jy7nNOSqnUxieS9Kd3ZltRGYTUMHSTY6WV9LL77fc+3VXdOhvi6sPiG2zbW17T1/LAhV3g6rhj9zaOZYdAQPjDd7MJCgM39p7f1bKnJ9ihRzT4vli0iDxiAcQldmMJqyJPwatbdNNjjPTgqq8Ef9Dw331dkO/wpoRir41pxXkp+7CTvVac87K3Pus2sq20zbmhwbQeROz3a9zzNX+m5TRQFz872HKiXzS303mdpJvMPqIQDYJwxb97q90aXFaan8/Y36EJdlVBJePPOwdSyXhFJlbvIhzOEVSEWj5zddNwNcdW6Jqlurm9dse2vvZee8rD41ubs2SHN/F6TbP4mpBgHYzRTEDeuMu/pkYaIfmkk8sVSmEa9au0jUX+S3vsczWjOnQULAoDxAVsNLXJhekI3LqGLd1XSLRl2rYYhF/WIBgsHXfgi4lXNPQnd7opr5tVRzYw13NXxfu+lAZEpZd4TVjd/jN73C2KKdW+jXNgZ0YtixpEejcfuDSHcXgRcJ5v7Q4r1RFQx5YhinJ/IIw8YgKNKhi5ATvCnyPSihGbeQxftdvpe5PHyQtnhF/Rwhyu8vMhm76GfO0l8r0urxWjy5//5N95LgyFwe8h0e+9MEuBvxzTzvrhq7xQ3MP4cyry/Ixr0OTbpvaWabOFAgyzyiNtYgGfd8jAiYACOBqJyjSJeikj97mQ7XKuBE/xHKbwsGMJqYI9XCO+GuG5dk1xuhc9Zg5Lid2Pu0q3vo4h0dirvXJpUrQfo83ghqtmlWN713EdjQfAQFgRFv010nHrV3leXM56sbyvIDTkuRUalIQBjCvuMc+567LSEYlySUs2VdJG63cmCRFoiUvOtBjfiTWnO1bF2gyJeCxHvMIho2rG+AMdV8xehnPFCk+ocjNNMgt/fd7znwxyDFgQJ8GyKgGuyxhN1bZvk+uym8+u4FBlZEACMAZmMm8fb7lzIBRR0cW5P5nvfCmw1COEVIrGbfu6kyO26RL4QSS6B8I6EmtVb/iqlmbPYgqBZyX1h1X4+pFgUAdP7W+Z9H87g57kRMKehFUs1irlvVrbwZL1cuL1Btc4VaWgAgOrhlwyLRuiq4ZYMe1bDqCMrEfG6WQ2+1UDicTVNndG9bJSwB8wC3KLb34qq5v1NOfOFmO4MpNnSyQeNgB3XglCs/XW5ni112UKuQTbPQTc0AKoEd89qkXunJxT7Ei/idbMaRMQbQHg5IuPm6aoprAaK2K5JtxejiHiD0dpdOoYtCHpPL6Mb2S/oM9vJN8qkO7so/3kMY/gCHGUBzhUOkPg+0ZDryYYUAw3ZAag4Xncyt2RYeLyiEToL76hKhr0hnu+K9+6EanfRuC4hFyKIeCsDWxCcBdGsOZelNPv+mGY/H1btUpzfc37/D/s8hjN8C4JvmryY16BY+xpyBS5rbmvOW+eiEAOACsF5vHHdOY0iUt7s8t4ECW9K5zxeN5G/3AV6xCGsBld46XgviQIKzbyatwmC8FYW34JICwvCuD8kmy+ENWcgzrMN/hzKfT7DGEMj4CbF2h9WzC1JlRuyW+eeiSwIAAIi8niNT9EFdahkuAJWQ9LL46VozLUaNOPamGrAaqgWmdIxKa1vFt08vx3XrPtYgJtUiwSYPoPRfo7e4OezADfmjAMR1XqCZkZiT7hE/ncswLAgABgxpZIQXpHVwDtQ8NY/+d7Rdyfzhoh46WJlqyGlml1JxbiWHmtCxFtdhAUhGzOb89ZlUcV6IKSYO0mAS/E852UHjIBJxKM0mlR7X5NsPEmPZ5vzvciCAGCk8GINb/0jSob9RuhBu5PxBS6sBu7N6y6uJVT7KvZ4Ubk2NkQu7Ts2tcK1ILgSrlE2d4Y15yB7wGLX6HKf2zCGa0G4ETCJ+v6IbG5p1i358+3cDQ39gAEYHry4dsfmTyV0+xKxuOZudul1JxttxOtnNbDVQMKrWh30+LWJvIM83jGG0wUT+Y2z01yKrFq/CCvWzhBHwLqwgcp8diMY7AHTcdiCSOetLV9aUWw7YzlvS48IGIB3hdPJonLv9Hi7c2FSp4hXWA3FCnYns3fTFLdLlAwjj/eoUbN6tciC4Eq4mGI8EBYWhJsFEXwRji2IXhJhZx8J/JOfX+HkPtdu/vdZbcW/814eADAU0QidsxpU6+K4atxLUUzFu5MlNbMzxVYDIt6jDn/enAfcopqXciVcSLZ2NrEFwZ9XBSyIiN5bCsvm/jkUAX/h7r7lX1hRvOSLy3tP8V4eACDw8ng5nYxE8h4v4nW7kwVZXBPC+3argZvkoB/v+OBQGpr17bhi3tekmqIUWQhwmc9zRIMEPKJapbBq7T/jnsf3fOmOov2FFfYlp/+s+wTv5QGY2vjdySgK+gZdNKtoDO4yHNxqENPY3UnNEHm8qTuR1TDeqMmsFr0gRB4wZ0FwMx7NJgF20wmDRMAJGhE6TvO9z5Sa89aBZt26K6H1nkXnGvKAwdRG9GpYVhBb/ySUKnQn44hXdCczr6bIGt3JxinuIpw9u8XrhtbIHnAFLYhofnOpUTYOcCEG74hB58M/tHIlHBqyg6kIN0Jnq4H78aZ4e3eF+/EWRXeyipUM62YXjet4cQ0e7/iG84A/2947ky0IroTjbmgiD5g/zzKf83AGP28wAlatgZBivRlWjKfo37Lpdvu8OepmNGQHUwuOdHjrH/Z4xeKaOjSPd5TCSxEOb1nOg7uTcckwR7zcFhJWw8TA9YD7hAVBEfD9IZn7AduiFDmoBSHS0Og4dLz9Ydl8Mq6YCveC8CrhAJj8iHQyUUDhdycTWQ1+tFr24jnSEOlJNEXlSie6aPckeHFNta6JahtjsBomFr4F0axZl8W4Ibts7gwpLMBsQYw+D9gVYK8UWTYORBRrS1I1cinN+QfhAaMbGpjUeNu78+JaQrVXJsTWP8V+kccbwGrgaJd93rBq7m7I9XRFVLYaNiOPd4LCFkSraMhufJsjYIpWn29S3C2JuBBjNBEwP4cH74rMVkZCd/YlVVNYEMl877lhFbsig0kIZzR84a7H3s+9GkKKdVFU5V2GKeIV3cmClQzTFJWnlP1hxdhTlytsmNm26eqmtu7oORDeCY2wIFa4DdlZgLkUmS0IIcD0mY9GgP3BN3pu7E7n3wH6eQt9lWkWdh4iYDCpaM12fyCmF09PqcXPNCqFyxpy5j0R1SDhtUXl2qiFlwZHu+nlvymFFfOV2lxPJ41rY2KXYVgNkwEuxGABTuady+Kq5VkQXilygPOGh8iiYKtLNYUAJ3gRTvcasgMw0UkusY5P684ciiiupAvn9sZcYT0J5X/GNTtwI3SOeNN3PFqK3f1UqTZr7KjNFhY25eyGc9bsRMQ7ifCzIOgzv4xLkVmAOQuiMhEwiTgHAHlnX1Izn6TjtaV08xyRhgbARKV1xaMfSbc7n40r1k0RxdwYUsx/D8vGn2l6JzzachfDcAZfcG5Gg1WK6PYrdfm+f5+VNZZHlJ7mS/v6jvVeHkwi/C2JhAWhmPe5hRjOwYQQ4NHnAYvBAu5ZEHRuPkHHhwUBJi71cuE4uijOTGnmjRTpOnSxvBbR6WKhk11cLAGmjCJaoUFCvqdWNjvrNGdxWDfmfOGnHe/3Xh5MQtgDbuWG7FyKfLgFEbAbGp+TSRLgmGoeiKrWloRutqX9PeEAmCi0yL87rjlvn0ECScJr9Dap9l5O70ku6wtkM/AQiyR0LJp27q6TjQ2zs5uuacr3NGRoauq9PJjE1GTcPeESqnlpSDYeqMsaL4QUu5RgCyugBcFpigk6vxL5orAgkqqVi+nmOSICBmC803jIarhZRLyKRREvndSVmBqS6LLdQNHJnrpsT9fsXOFq3vrny1hcm1JwHnBtbuNsml1dSuJ7X1228EJIswOXIovhWxAUAQsLggQYFgQY97hWg3kmTQFvDMtmsSFnvB6lC0JUrAWwGXi4VoNbuRbXrE7O4w3LaAs5VeFmPPVy78xa2fhObbbn/pqcubNOMUsxPk/4fDns/BnJEOeaWJOw99PPW+icuz2hGedhEQ6MS1pIeBP5zWfEFeNmEt7NTar9WoSF17sYDj/Bhz28SGSwV4PilgzPUa0w8ninNuwB191uzqrPGt+qaSs8MJMi4DrFEhVsQSNgIcC8O3beYQFmC0LsigwLAowrWm999CO8uJbUrZtiuuWEZPN1IbwVsRpEFDIgupOpVofY3p0bocNqAERrpnRMU86e3ZgtXFaTLfxidq6ws161D3IELM6fcufVcAefv3zjV60DdKwn2AMe3BUZ3dDA0YYX1+Kq81kS3x+R+PYmdOt1XvzgEs7AOZi8iOJt/UM/d9IQuwzDagBD4Tzgutu7ZzUq1mVNsnF/g2w+Xy+bbgTM59Fh59VIBt/8RVrkkDxg9oBRigyOKpzHm1DsM5Kqc1NKs4sUKbzGkUKQHF4xWLSF8JKIq/YeGl2pvL/LMIQXlEHrOzaimbMSuvGtJtW4nxfhGlRrICqCgKAWhF+KzBaEvUVYEKIbGiwIcBRg4WWrIaWbP6aT0aHxulglFqlkARbXSHj5GBxxiD3X2GpQrWvQCB0cke7uY5pyG2dHNOuyiGr+ok4u7KyTTSHA4rwqd74Nd3BAwOc3lyKzBSFKkTe7uyIjCwKMFWJxbYV9Bk2/bkyqRi+djK+l2r1FsXIn7gjGUKuBxLcriV2GwQjgLIhouyFKkcOK8UC9bD4/uAg3ym5o/hB9ROg8dy0I60kKMrKcBYGG7GBMaFzR/RGabp3Bi2si4iXhTYt2kCSYZU7YYY8hVkNSM1+ixzpJfK/iRuiIeMFI4FLklGbOamm3vxWVzfvrcoUXGjRehKPzK6gF4S3C0fm6n87/LQnFVNKafV6M09AQAYNqwRFvTDU/x3m8JL4OTcGE1cAnZFCrgaMK4fFqttjenU7sa7C9OxgtXIjRuqJvVlq1vh1TLWFB1PIiXAW6oYksCA4SvG5oScXK8p5wwoIAoNJwVkOEIt6Ibv44oVq9dALu5YU1N1Itc4KOYAgBZ6sh7+zmrX/oMZHVAKsBBMHvhsabctZnCw98OksCzBYEnbPcES9oFoS7xlHcR4GCKEWmgYbsoLK03tr9EU4nC2vWzWHVLMaFx8tWQ7A+DSLi5ZOYjsWLawnd7uI83lg7+vGCyiC6oeXs2VyIcXq2577ZXIihOQfDXC1J555oxF/u3BzO4POXBViz99OM7QmKhOW4bpyfWGUjDxgEh7Ma4rJ5ZoS7k+mWE1VNkccrhDfg9M0V3qJnNVidJL7XteR/EzkZVgOoIFwJd+rt5qy6nPHtsGzcN1s2d87IWaUmnSLgPAlogPOYrwPXA+Z2lNaWlG62sQDPQQQMgsAeb3JZb2tCN38cV63eWN7Zm+DV3qBWgxcxiIjXFd4Ncc5qWG6Fz1kDqwFUAS8PmIKHS2uzhQdOzxrbamXr5bBiiKb+6QALxoMWRLvfDc30SpGxKzIYBY2e1TA0q4HTyXixodwJOOzBwusvrqluxJvSnKtj7cjjBVWmu/uYT+fs2RGl8L9IhOXaXOHhetl4KqGYr7P4BprNeQEFR8D0/RNJxZLdUmR0QwMjgCNethroRPpRQjOLJL6vizxeER0EtBqE8Lp5vPQzp5NdJ9LJYDWAsSCz5a/iunManXufb5IL/7NJMW+lSJWDi71Bd9D21y/8PGAuReZKOJGGBsCREAUUomTYuikxpGRYnFRlTrhhDxHxulkNvtXA3cnodVBAAcacdPvTH2zVnZP9FqgiyMg7e0XOeoBznQX4baXIupXjPeFQigzeFW6EzicjCy+dNA6dTK7VUKmsBk5y55JhbpKjW9ekOasBES84iogFZd05k8T3RmGvVSJ3fYgFkdAsUYrMi3BiSyJYEOBwWlYWjourBnu8P6KTUJQMu5VrFcjjpUhCRBOiZNjuonEdN8lBxAvGA423PupWbSrGze5sz349aNWmGwHzOe92Q+M94WBBgHcwWDIsrAaafg1aDaM/+cQQVoMrvBQBvMQFFKIfr+xAeMG4gndh4eAjods/pnN3MwcfQfuVsH/sWhD2/oRqbhnMgrgNFgQg3GmXOaQ7mTvtcq2GAItrJLxiFwteYPPyeJOacS3vuQarAYxHRPl8u/m5wSCkEp36vACErqsDdIwnRB6wYpx/ppuGBgtiqtKy8nfHccRLUy32uyrfnYwtCzerQZQMcx4vIl4wnuFZoLDfNMuzIILPAt0sCCHirgWhWdmWZcVzsCfcFIV9Lt5lmKZDP6mUzyXGoNXg9eMV6WR+I/T/RMQLxj1VWf/wuqGlhAVhbQmrplwvG+fNUjd97NQV3X+NcuQpwuAKLzfJYeGtVHcyeq6b1cBWg9sInR6/Ft3JwESjKpk/dH1xP2AKSg6ElMITM7NGdtbtPV+ruX1TvKn9kVO5EZD38mAyIvJ48/YZXm7jZp5Wibt6JawGf3qm27vpDt8lSoaRxwsmKNXIeXctiN5STLP2NeQKz8zKFf5ffc64KZE3vxmVNzZ9DOX1kxO+m4uSYb6bi6oed0EhSFWPGGw1eCeVazWYnSm2GhDxgglOVao96Xrhdqwx1ThYlyu8WK+aT4YU46HGtp7r6nHNTD74JPKmUT8igXStBjoBxEnEmQnlTpJhDld432418OJa64ptf+29PAATlmr0ORHd0GhQBFxq1Jy3ZmcLu2vaNnU1KIWrm5ARNHlwp0+FM1K67TZCzzt7g06f/OEfh469O6kZIo83dScaoYPJBV9Dfoc/EmD3GuIIOMA1xHvKpSloiS/rK9VrTmlWrrBnVtumDfWycU24DXbdhMfdZdg8My6sBs7j5WkTnTAB7tpiiKwGz2rgiFd0JzOvxi7DYLLi97am8/zQNloceLBtF2D2yCIc14uletUuUQS8pzZrdNbleq6rlwvobT1R8a0GEscbRcRb0e5k3iIdlwzrZheN6+j4YUyXwGTG39WFroGbhX0nLAhPgMtcJ8MZvJ0RzRxLMboumygCrhMC3NNVm9t0dV2bET0ZwczEghfXklpvKwniTd6eaxXsTuYKb0Kz93DJMEe83BYS0yQwFaiXveIk34KowH6GQoBp8C4xYRLgesXc3ZArbIgo1rUc1DT8tOP93suD8YzIauA8XrVcyXD5D39Yg6dWvLhGQ2Q16FYHHf+aqLYxBqsBTCV4VlmNnbzZgkjoRSHAjbKxh16jM61Z16ID4ASATwrRIMS3GjRvWhTgruwPcRy2LHTH607GVsNmLAyAKclgQ6ohWRCBu6HxVwpyeHPPCAl5KGe+FFUMml06YnaJIGecwikx4mTQjJtTojuZ16shwMkgxhCrgU4y0Z0spThXc5McCC+YyohMohV+fxSjYv1RWITjdN2yB9ykWrspAu4ikb9mDvqjjD/8ckhhNQyZBrlZDQEW11h46STgk4k93qRqizzetIrt3QFg3IwiZ0hnwAp0Q6PBi3BxOgYLcMi1IDpYgJFRNI7gRiCiZDhvu1ZDBbZD8Ye/SMd5vAnF606GkuGjQqZb+gCNE67qkE7iMb9HOvFIw/9dfh4/3zsUqDAswG4psnNTyi9FDpwHTF+FAPMiXFEIcEQxu+g6v6oFFsTRp9Vvgec3ABm0GoIvrh3K47X3UETdlVLMq1vyv0FWwxiSKUnvIdH868w66eQf/FpqXdwlfWVhh/SNBQ9LF9L3Xz/S4N/j36fvv8LP5+OI49FxvZcAFaJF/t1xnIZGUfCPBlM7OXgJaPuJLAg6Bi/ChRRrd1Q1O+nxa+nabMIi3FGCu+/zdIcX11JDV1xZeEk8D/8QRzKE1UBDWA2iEbrXnQx32zFDiGS39MlFHVLCE9FbF3ZKvyQhXb+oU+qg8fAwRgf/Pj+Pn8/HEcfrkE7j43svBSpE662uBSGCIe6fUqGiJrYgPAEeEBaEYna4KZ64JsccvsvyNCelFQethkoY/TxYwEXeImc1cCN03UF3sjHkqg7p/d9/WPrY90gk56+XvkVCeTONB0g8nyUhfYnEc68YndKrRxze7/Lz+Pl8HD7e4k7pW4u6pBhFwh/yXhZUCLcU2WqlGelNCcXtHMjXZZBrk6Nf1wP2LAjF3B0RWRDYAXxM4cW1NFfZKMbNKTb4OZ2MI95KlAzThytOFN9q0NysBkxvqg9FosewLTB/ndQ6v0P6BgnwTd/vkB6mqPVJEtI/kYgOXP9rqbR4w8gHP4+fL47TJT1FXx9e3CEtWvQrqfknhvRBfm36E7CtTYUQufZciqyaop8KXUtviOtKWBBB8oAtkQd8KAvCbWQ1Z/nmcHLJz3GNVhPXajDPpKj3xoTfCL0CHyoP12rwshq4V4NuXtciWtzhQ602wtt9UJqxeL30dYpMb/3+eunBBeulxylafZnE8wCJZSnziDsOF9bhDP+5fBz6+S0+7qL10iYW4AVd0udveFiaSQJ8QiYDL7hScOqnsCA0i4IkTv30POAAQdJgBCwKMYpuIYZsdvIiHFq4VhGRU+g3dxZWQ3Fv0OmMGBzx8klBxxGLa6Jk2Lma20Keg+lM1Vm9Wnrv97qk6d//lXQRie4qGlsXdkl7SCAPcMT6g25XQFk4gw4+zg82epFwl/RnGja9jrK4S/pXEvu5bHfw3+P9aSAgvE8iL4iTYP74kAURzB4UAkyBlmtBUASsWLsjsluIQcdFR8FKI4x8b2dVN4+3Mka+azWIrIYB0Z2MpjFie3cY+WOCsBpIeL+3Xvrm/HXSqvnrpe0kvqUM2wtd7iCBLCukox58XI6IORLukt6gx/5jYafUTRH3jzLrpfS//lzC515BqrUwziLMEbCbB2yKUmR6/NqWO3DtVozBFBbO49Up4h3cgSJg5RoNFnB/6x/6GSksYwhN8Y8hsZvBGQjf75BWUuS5Y9EGqZ+FV9gLlRbdoYOOza/BETAJ70Eaf6Roe3WmU7qAovC/8/5EUCGqkRLK4svizZVwYRJhPw+4mYInpIRWgKHJ2/ShcVZD5buTqby4ZovkbXeXYQhvtZlHU3teXCPR+yeKOFfS1+0kiAPCYqim6B42Mp4fTJHwfvr5scUd0o2LOqTm61ZLH/b+VFAhqlUMJRbh6BgiD1i1RBZEUnOunYO+K6PnHWWLXsQbtGxRTHXoGBw5J7g7GVsNKsoWx5JMn/S38zul1oWce9shbSXhG7h+jIXXH2xBeB7wK/TzJhqLWYAzqIirONVqAzAkD9izINwsCNENDdf0yKhWww4ebsTrWg2cTkYnAfJ4x5j566QTOZ1scaf0SxK9l1n82G4YKopjOQYjYPpb6OdNi9ZLV2c6pLrMFgnbmVeYajTA8i0ItxtasRTKGS9FZHfhnIMqXNvDpBqt6sQYYjUkNfMleqyTxPcqtKobW37yS+mDHFnSuJki38cp8tzHEe/RiHqHDr4BeB7wi/TznfT3nXtdF+yHalCt1q/CgvAiYM4DjlBwJXaZWQ4L4ojwh1KNJs082NzniNfN4zU7SdivQW7gmDLtGk94SXQXkcBtoq+vUsQ5cLSFlwdnP3D0S9+/RgL8a/o7r1ywTvoU/93unw8qSbU2PXAtCMezILgbmiW6oVGUjU0P/hL/feXvjmumiLeS25P4Q9xV+UPNO/8lSoa9rAbcDceOJZb0NwsfkRoXd0rXkcBtWtQl/Zn9Vk/wjv7wom8S4X4S3x0L1ksrFq6XzslY0vGlEgS4GrAAD93ui4IsmuUGsxc5+nUF2O+GZu4RpcjtjsiCaF3dDS9/KOwDzcwZn21QjJtpOlKkN8+dhgS8C/qDIt4BinZfpu8f4cW1GIz4MSezXjqeBO58ErqVNP7kp5S9TQCP8mDx5YU/Et/9FJUX6et1mQ1STQmVb1WDZ7tiEU4zb4yrZpHGa+52XQEX4WiINDQvCyLGs11ehNON0Iyl697nvfzUhgsowrJ55ifbCjfOkk2H3vzXm/nux28+3cEOf1NHNNiucC2L/QnF/B2nrMVUI4Utqcce7q+b6ZT+iQRuHQnda6KQYpyJLw+R+dApDZDwbqOvaqZL+jwyH6qLm9lkntmkGDeFFNOOkQB7za3eeU2PYAxmQbh5wLujivVQQrcvadb6PpHJlKbwDfVS7dhMx2MnffPnv21Nt5s/rpeN3kbN3pukN53f+HJv5kiHW722mVPK9iZVcx19/Wb4lk0f8/4CMIb8H+6d8IgQX24JuVdUmdHwRW+8DGE9uH/XXhJgY3GndNUNj0i1JMBoQVlFOAKupdlvk2L+W1w2tlDwtY/Fk0e5a3s4Y9CCWNZXCism94J4qkk2fswZEJnuEjdTmlr0lUrH7nx136wXXn39H5/8r1e/c03HM7fHdMsJywbd7fycv/Jv5sgGf3Ccz+scSKrG1qRiLI0o9hnpnxgf9P4UMIaIyHeD9A2azrP4vjpexZcH2yE86G/9I/18J0W/53yvIB3n/VdAlQgt7TkxpdlfTarWLyhQ2p1g24ECqPLX93CHXUrTMeKqxb2AdzXIxuqobH41lu3+6LzVq6dWH4+ntv/pYwf6++e/1X/wiZfeOrj1+o3P/XG2bLwxq80oNXOkGjCrwR+ebXGQ3vwXE6r1QFwpXNSoWB+fN2+KveHjhKvXSZ/iDAISM85yeH1IhDnuBv9dnvjuXdQl/YrtEr55eP8VUCXmLl33vpa81UzX75KIbGwlsRzgBjoijzfAYE1hPUjo1gEK8p6qzxo/JS1obl29ZUrZSdOefv6VmQMHD95TIl6n8QPr+dIstViacXuhlBZvVPk3cKTDTSuz+uku+vukbt0WUXqaZ1wBo32sEe0iLel4msKfTWKmk7j9nsTtgBBfGocL33gYQ6Ly10h8OxZ3ShdCfKsPR6LR5b2n0DV7cShXeLAuZ/wpqjkHg1gP/mA94HqBmGK83CQbD0Rka97n7ixOqT4e05544dXZAwMDd7H4/jup71Udz5bqFLM0u63gejSHvWmjG1xQ4YmvZj7Ljdd5lTNyqXas93eAMULrk46d3yHVLeiSvkcCXCRB2+eV875D9MbL8MWXI18a6+km8XWI79gQ0fqOnaNa4VDO+CFFqI9FFXM/R61BBVgcg6Nf1XyNZsIdCdX4Rsuynqn1mT75p1c+TeK7gsV3695S6V8efqZULxvVE1/VfJYTuRP5ngaI79hzxTrpfYs6pASJ2K0kbNtYdL2MgnE7hoov/fwwxHdsab6z8ImGtp4r6tsKZkQx3hAL50EzH3zx1czX6OfORN6eeuL7zM5XT3j9zQOXv/TG/uJv/vjG81f86qkDs1WnNDtnVtB2OCS+JLzPJVXjZ1HNjEF8xx5ffEnEbqHxHxBfcCTS7Z3/LSoXLm1SCj0xteLiu5d0YX1St74+5cSXAt73FJ7dNX3zjpcu+vVze5Z9e+2WrafnzP4aEuA0p5aUeeNGM7xeEAdp/CGpWnfFFeP8miXW8d6fAcYIth0WbpRmL9wgXUViZpIQvyGa6EwU26ELtsNYc6ZifZxE9ztx1SzENVOIb9AsqLeJr1tyPPXE12PaiuK2jz785B/nffuhJ1Y0UnTaoFj9ycH2cuXfwBENFnLdGUjl7deTqtmXUMzrEzJ6OYw1vC/azX3Sh+evl76wsFPK0niWhHdCLbhxihzEd+xozVozwrJxTUgxnZhqvelGvhXyfDXztfhUtR2Gsun5Padc9sstX07nzfaIajwXzTsHgna4HzrEh9bODdPNl5KKeV9Ctb8S0fpO8F4ejCELHpFOJSH7ZxK0bhLg14T4ugI37oZoskPROUe+izultfTz1yC+Y0MrXZ8tunkOiW97SDb+I6bZb7HwBhZfke1AwZ1qcDC2jgKzr7UsncLiyxbE/3f34yenSRSjmtke1exnSSD7RYVbwDdbDI6iSYBpmrGPxNehO978mF6slaZ0aeHRgcVrIUWQJG4P0xj/RRYbpIGF66Xn6ef2RRukszLd0ke8/wqoEhyJpvPG2XTtLomr1qMUpe6j63fgHdf1iAeJt2hLKyLf5+OKtTyh9Z7VeOujU/0zLU2LL3VOjmjWPBLH5WKBTHfeEt2NAkfALOA08sWDdLfbxZUzNI25OLqsd/qUq245ykyY8mL+m7qkAfr+zxT5bqCvl2e6pNN54dD7r4AqECLhpetzLkW4t4Rl87GIxjsdU7QaVAM4ahad0riAy2INWJtQ7H/+zPLffhoNdjxEcrVuXUB3pnYWYBLeAxVpok7Da1F3MJm3/yOhWau4ucYc3Tmttbt76tV3HyVE5Nsp/dOiDulXJGjcx3dciq+obHM31dy2sEtSFq2XPptZI6H1aNUoTZtxY8+JddmNZzfKxm1NivloSDb3RfTeEl2nwRbgaeYrrv324gBd9y8mNHsNPX55Im83zF23FcLrw5HonNymU+iN+QrdnZbRm/Qsfe0XDZbLvbEjGfwh0p2PIuC3Eqq1g8R9JQn9RWnV+BQsiLGBeyOQmJ2zoEO6kyLKF4Y0Lx8/o8sT3w4hvs8u7pRuuuERqZG3uPf+G6DCcMRblzXOrsttumV21nisVi4I4a3EwrsQXjd425XQzTV03V9JmlLPZczey4NDlKbFdefklO58OUYCHFHMZ+O6vT/NU4agqSZ8FxTZFPYAfQA76LFVvOIZlQvT560uwYKoMtwVbOEjUu38Tumq76+XCiTCe8ddxgP9LbyDMosv/X2/o6+LuJ8vxLc6nK51n5DSi19qUo3bZmcLj8/OWW+GeI2GF8rLXMPDHr7VwMfiiFe11tLjl0fbzTpEvEdgzvLeU8K6dUFjrpBvks3f03ShX2QulHujRzg8C4LHtoRCEXCePeDC9NYMLIhqQyL2gQUPS58nYVNIgLdRdDmuCi74RnD9I9IA/X0vLVgvraXxzUyX9IlSCc3UK0qpNK11Zd8JEcU4O6aYt4YU89Fa2dgXEhFvUKvBneWm8s4Aie6LCc30rIaehprVW7Ah6pEQFgQJMAnvhQ3ZwgNN9CbGNWvANd8rkO/nTkfeIvHdkdLse+KaeSFbEJlMBhdZFeGc3/nrpBoSt2tpFOevlw6QII+L6FcsANLfQTeEN0l0f0Pjhu93SlGO2OlPxzZCFaRl2W9PbNbss+h6XNIgFx6vlc03ueF5gkZKp2u0zHU73MHXtrtQ7+wi8X0opdpXRuXeuhlLEfEOm9WrS++N5sxYSDZubpSNp7kZMjdFDiq+YnjTEjrWQFK1t8dV4172gFtkRMBVpSRN4+2ESODO/n6HpH9vvbR14QbpAG/dQ9P7sqI4VkNsa0SDIvKXSXjvn/8rtJGsBhGt+4Q5y4tfiqvWbXRdP1avWG+GhPBSUFTuWh3mELnAntVAP7/IWQ0p1fkue7wQ3hFSoqlJQrE/mVCMb0UU82H6oF6O5l0DPWjCtRhieuJbEM62BEXAnAVBd0mkoVWXaSRup9D4yvwOKU8ivHVhl9QvthU6ShEwv64Q3g6pn8T3KXrs3xask1oyfchyqBylaVxAkc7bZyc081bOamCroYmEV2QlHH59jmTwtcy6kHezGlK68yCJ7hVJdXM9rIZRwqXAvOVzXLEWR1WzJ67bL4tk6UO+baAhLAg6Hgk6N+DZkVDtlWIRblnvdGRBVA9ewGIBXviwdMH3H5aWswCT4PVzBDzWAsyvJxbZ6PXnUyROf8vyTIf0ZfobP8q9iL0/GQSErYaWvDWXRHZJg2w8XquYb7Dw+otrgaJeL+KlY7DVsDapF6+IymZd64pubP0UhIjW9+GU1ptO5c1FSdUsJHXrFeHrVEiAD1kQ1gDdgSkCtlaxBRFHHnDV+SELMAndgg5pGX19LsMWBE//x8iC4Nfh11tMr0t/w3P8dyzolOb9cK10KhbZKocoGSbhZauhSTYeq6uQ1eDPXnmBjSNeeuyhlGp+lx6Dx1speN+1hFZooTd3Mb3Jm+irEOBkBRbgxPAtCN0+SMffTtOie2jacnGLiICxCFcteAGOIsyTF66TvrqIhI/GVk7zEoJIEWm1omD/2Pw6XlrZ1vkP0w2A/g6+IfDf5f2JICAc8QqrQTdvEVkNuYJnNdA1V+5aHO4Q1yxbDSIFdRcFTg9S0HQFe7zzVq+G1VBJ0u3GB2NqMUVvboZGgYT3ZfeuVyELgu/CvIFnvthPgr6dHhvMA4YFUT14ar/gARK8TumCReulFTT9f44i0f4fbHJ92EoLMB+Pj8vH59fh11tAr0vie4H4OyC8FcO1GoqiZJithjrFrpDV4M5W3cU1kdWwloWX+7bAaqgS6fanP5jMW800tVgkBFi1XnUFmD+ECkTA/ofqWxCqtYpe42JYENWH82nZAyaBbBcC/Ij0+qIuqZ9TwIQV4ZUj8zhcUN9t+M/h53sWAxdT9PPx+XXod9r5dfn1vT8FVIBWrfuEz2j2WXHVWMqLa3UyWw1idhk84uVNNdtFwx3PanCzGrC4VmU4Ak4qVjO92RkSy0ELIsVTmXIf1kiHiID5JHH62YKgr3eT+IpSZOQBVw+OgK9bI30i0yF9lURRJVEssDjSeE2IJ4uoZxf4gyvS/tI4/HfF82nw8TzR5eOr/HrideHxVozIyr4TOI+XgqRbOJ3MtxoCe7w0RLTrXuu7uICCXuNKul7rajKwGsaE+FLnQ8KC0JzFHAGnfAuCMxfKfGAjHYOlyHnnYGKIBcHNeCSUIlcN4QGvk06mKHTuwg7pX2m0kUBuovEHEtQ99PMrJJpvcBT7g42ufcDfv2OwrcD/Tt/z74vn8fPpOOJ4fFw6Pr+OeD1YDRUjtLTnxDntzhfZ421UjMfr1ENWQ6BtwjjiHWI1xFXzV/T45SkZJcNjjm9BJNiC0KweGq8Mfjj0QQ1+aAGGEGDNGkjp1jbRjEctXsx5wCjEqC43rZWOI2E8nTuKsUgu6JDyizulX9D3a0k8HRLSFymK3U9f+0lc3zlcu4L//UX+fX4eP5+Pw8cTncro+Pw63kuCwLh5vBzxch5vSOY8XlNkNQS3Gng2eiiPl7uT0WwUVsPRpHV19wdSmplO6laGPuBNg2lo7gpo4CHygIUFURQWREpz7o4r3A1tM7qhVRnOBf5ph/T+zAZRjvxF+voPi9dLXycxXbBwvXQ/Ceuj9D1vScQ5ws8MDvrZe/xR/j3+fX4eP987To04LprlVJSWpW7JcFp3fuZaDW4BhbAaKlkyrFkPJRTzf3MeL/rxHmV8CyKVtxdRdGpwFgTvhCFEs8wHOdLhly2yBUF32u1J1biXRPhCbsYDC6L6sEj+xJA+SF8/kumQTiJBbaTo9Rs0FpHY/pjE9abFXdKN/uCfxeP07+L36Pf5efx87zgQ3QrDEa+wGijibcy5ebxDsxrKXVfDGr7V4C6ov5j0rYZ2Fl5YDeOCmuwWEQEndHshfTjuIpzfiL0iFgSdBJ6YswfMWRAp1fwmV8LBghhbLu2Tjv3RBunjNzwi1VIU27CQ++3SV3/4P/O/8+/x73tPBZXG6072tpLhwTzegItrLLws3tydzO3V8GBcK1zOVsM8WA3ji5ps9wfSfh6wTgKct91FOGHQl/lwRzjeZkEo3JDdXskWRDLfPYNOQlgQY0iJG/RQBHupJh3L4vqOQY/zv/PveU8BVYD3XBN5vF7JcF3O607Golkhq4GOIawGP493LiLe8QmnoaVVIyUiYFGK7AmwF7UGHr4Fodt0N7a3k9Dfm8wX0A8YTDl4F/BD3clMr2SYg5NgEa+w+cQO5iJoEt3JeHGNsxrg8Y5zalZv+QDnAXMWBInwxqRmiiwIUYpcCQtCnBxCzHk6tD2hmyu5GxqXImewCAcmPaVpvOW6sBpU+xa2GmqGLq6Vu2aGO8S1NTSrwVzDEW9yObqTTRhas1s+QHfLpLAgOA2t0qXIPB0Sgl7sp9fYQSfKqpTfkB0WBJjEhPzuZLrplQxXujsZB0luyTCJ+5XNKBmeeLAFMbgIp5gF+nCHdEOrUATsWRAp3dnGWRAkxBfPuQulyGBy4nYnK86N624j9DqFt/4Jvrjm9lXha5NE3M3jfSium98NI4934iJKkfNWM/cDTgkLwhVgbsheMQHm4+n2QfqZK+Hu5j3hRDe0UgmLPWDS0LryGZHVwCXDIcWqcHcyd3HNE941ibx9pbAaMhDeCY3bDc1I0Qe9WETAFV6Ec0uRWdCdgzRV2s4WBJ2k3+BFuHnzsCMGmPhwVgMvrtFM8laKeCvXncybPXqLa7t4cY09Xs7jhdUwSRi0IDR7QUI1e5Kq6XZD4w+dToB3nBSjGMKCEN3QrG30dVVCNy4Re8LBggATlkMlw24jdL87WQUj3nZvcY03u0TJ8OSEF+FYgOmDX0zjUDc0NvjLnRwjHZ5vRV/76We3IbvuXBRWN6MbGpiQuI3QjbNJZJdwOhmXDLu7DLsebxDxFVVr4trjkmFzDQVFVybVjSS86E42KeEIuFl3ktwP2C9FFgJcjW5oqrmDHlvF29JzQ/Z5KEUGEwhRQKFac0XJMOfxqs4bYuufCloNHPEmNbdkGFkNUwDXguhNcx4wfeg9fh6wm+JSIQuCI2D3+20k9CsTinHJnLseOw2FGGDcwyXDGpcMG2fHVeM2d+sf7k7WSxFvJawGjniLA3QcinjtNfT45Yl8TwOshimC2wuCBFgzr0+qJMCD3dCE8R98+BZEvvct+nk7nWT3pNodkQeMPeHAeCYld5zUrPWeReftEtGdTDbdJjl8TlekZJivMZHH+xDn8fLi2lxUrk0t4nc7H2IPOM6bcrIFIQSYIuBDUWuw4U2vhAUhSpGNe+PcDY0X4RABg3EIb/0jdhkezON1S4YTNCsMHPHy7FLk8dq8uLY2rjrf5baQ6NUwRWELgndFdttRHmrILvKAK2FBiGmWEHPeb2obR8AJxb6kRe6dPm810tDAeOGQ1cAer9+drBIFFOI64j3XhloNeUt0J4PVMMXhbmgiDU0xr0+8rRS5MhaEKEVmAdZ5V2RrO0XZK+n1PAsCpcjg6BMSi2vFubz1jygZ9q2GoItrNMS5L4IZ5480+1tL5/+VzXcUa2n2h8U1wA3Z1wkLgkuR6c7vWhDcD7iiFkQfe2aiGY8oRdati7ArMjjaiO5kevFLFJFyAYVnNXgeb7lzeZjD7U7merwiq0G11qZU87vJto3181aXEPGCQ3AeMJci04mzmMRyE514wgMWuYiVtyDcUmTVuhiLcOBowVYDie5ZdK4vCSnWb/3uZOJcLXcOD3eIc52iZhJw+ll0J+OIN6miZBj8BfxKOBLFDI0CTZWq1g1NlCKrh0qR0Q0NjCXcFpIjXjovRVaD252MF9cq1Z1M2HaiZJiFl/vxnoo8XvBu8J5woh+w15CdpkxuKbLwgCsUAbMAa7a3CGetilEEHBfd0EqwIEDV4YhXWA2Ku8swe7yVWVxz1zfoWhmg85wiXrdkmLuTIZ0MDAt/EY5OqMV0Am2iE0lEwG43tDIn3UiHd5LScQ/GVWtHWDVXhnX7kvAd2BUZVBeuXOPuZHQeLnELKIZaDUGCC3q+yGoQAr6LjiUaoXMeb6SvD/vogeHjlyJzHrC7JRFbEJXLA/a7ocXzxYMUGewI6da90XbeFRlpaKA6uHuuWXNpVudmNaiV706W0tlq4JJh53LOapi7Dnm8YBS0ii2JeppTurmQ84ApCn4l4UfAdMKVPRFHOuikjWrWQER3tkVU416OgJEFASpLaZob8RpncwGFiHhl08vj5Yi3zHk53OHP4vzuZF7JMC+uYZdhEIhWz4KIq1Ymolmbwpr5SlwIcIW6ofFx6HgUffTHKAKOqubKiG5dhDxgUCmE8CrG2ZzHy01yamS3ETqnkyUrUDLs2XG76PheVgMKKECFSLc/LRqyh/PmIhLHQtxvyC4WzsqflCMZbEGk6Vg0HRxgDzjG/YA5CwLd0EBAhu4y7O65Zr0ZIrFkqyFd5lwc9hhiNYiIlxuhU8Qb5V4NsBpAJWEPOJK3mlOiEMPalFS5G5q3wFAhC2KIn7wtoZgreUsibEsPRgV3J1vZd0JasUXJsGs18J5rdI4Fthro+ZzHm3cGSHRFHi89ju5koHpwFkS6vZhK6kaGBTilW6+kOQJ2p12Bx2Apcr74FonvjpRm38P9gMWuyCjEACOAG6HzDhQksksa5cLjle9Oxrab250spdpXRuXeuhlokgOqiciCWOEkOQ845eYBvxLzV4yDRhQ8vOmcyANW7e1xrxRZbEmECBgMg4jWPWg1VLxk2LMa6GevZNjd+gfCC8YEkQWRt5qbVXNRVLE20Qn+SkQIMJ/cFS1FpuGIbmhp3b4EaWjg3fG7k7lWg+hO5i2uBS+goHOSA4y8m9WQ0p0HSXSvECXDsBrAWMK9INJqMcVZEFHF7Akp1stifys+QcudvCMcwoIQuyIX+5OquYOmdivdUuTe6ciCAOVgq4HzeOn8W8KLa7WiZPjQORko6vUiXjoGWw1rk3rxCu7Hi61/wFGBsyA4DY0X4cKKWQgpphcBV86CEFkQnAesWtuiqrWKIhh0QwPvgCNe0Qhd7DJcOauBz0GRCtleLMVFHi97vOZ3aWYGjxccXUQ3NMVqTuatxVHN2hSSXQHm/N1KWBAs4ol8b4ki64NhxXB3RVati1tEBIxFOOBGvMJq0M1b3JJh32oIGAAI4S2WYnQuRyjijejOgzGdrQarfh52GQbjAV6Ec7MgrIwbAdsVtSDYr4uRADepTn+IBDimGqtavDxgWBBTG9dqKM6lm7RbMqxUqGSYAocEzbridJyo5uyiWdfaCAlvDLsMg/HGzPanP8iLcKm8uSgsm4XGXOHVCJ24PGUTXhlHEWVP8iMP9wKySYA3UwRsDtDxt8XYgqAIeA4siCkL5/F+RrPPiqvGUl5cq5PdPdeCRrzCMqObfby9OEAR74txYTW43cmwuAbGJRwBt3BDdrEIZ21qVMxXBiNgIb4BbQgRARdJgO3+kGxsp4vibvaAkQc89YhwAUXePjulcsmw8ZhvNQT2eGmIVDI6VkyzdoU1c02M+/G299bVZGA1gHEM9wOeI9pROoubcmZPSLV3UsSwl4SylOauaHRxlDvhhzPERTVoQdgHWYA5AmYLgiNgCWloU4IQN0Jvd74otv5R3t6djEuGRy2+HCB4VkNMWA3mr5q4ZFg262agZBhMBHhbel6ES2nO1WHVuLM+Z3Q3KcZ/JlT7gN/ztOzJP4LBAkziKyyIuMqlyMWLeVdkFGJMZtw8Xq5cEyXDsuhO5jVCD7q4xg2eiiy8wmqIaPaaqNcIHVYDmFB84a7H3p+Se+tiunlOU864ojFn3NWkmM/GVauf08cqYUHEWYBV34Jw7k4qbEGgIftkpWWpWzKc1p2fuVaD2wi9EiXDvDbBWQ28uMYeb1Qx/7eIeLEDBZiItGZKx7TIhePCS41PhWRrXlgxllOU+hz3bhCN2QNEwO+wIDgLQrHubWl3LmxZVpguoRvapEJs/SOsBvNWupGLPN6hWQ3lzpFhDc9qiFHUG9bsF9lqoMcv5x0o5iKPF0wG5izvPSWpWxckdDtPJ/dWilZIgLmCLZgFwbnE7NFR9FsKK5bwgFOq+U3OA4YFMQnwu5MNLRkezOOtQAEF+7t5ZyCsWS+GVevBiFa4nK0GNEIHkwbenTiuOyezANO0bnlSs5+l0S+a6IhMiDIXxzAGX3y8iMcCLPKAZXNHXLVXcjOeZN6aQRcvLIgJjLv1T3GwZLguZ755KIMmmNXAu7L4BRRNmvWQn8eLyjUwKYnmNp0SV5wvJ1RrGUUyz6XaiweGdIoa1XAF2KapY2+pSbEG3AjYuLc571bCIQKemAxthM47ULglw5zHGyziFXm87ZuFgEfdiHdtWHe+yx4vdhkGk5jSNI6AE6r9FRLfdroYttLo54shSATMQwgwXZwU/Q6wB5xQzZVpvXgJC3AGi3ATiNK0lqXuLsN0ntzCVkPN0MW1Mp/9sIcQXoqave5kdA6u4ZLh8HJ0JwNTARLCVs+CoAtiOQ0SYN+CqNgiHGdB7BB5wH5DdlgQE4KQ351MN72S4Up3J6NzTBeN0NeSuF/ZrBdrT0XJMJhKNGuFT8Q1a15Ks9spSn0umXcOuFkQFbAgRB6wOUBTym0xxbi3mUuR73rsNFQpjW/c7mTFubzLsNsInbf+Cb64xusCYgcKinrdiNd+KK6byOMFU5RM5j3sAQsLQhUWxLNJzTwosiAqYEHE6aINKebBsFeK7HvAyAMen7SufGawZDikWBXtTiaElyJeT3jXJPL2lUm2GjIQXjBVIQFmD5giky/ThbKcxHdrUnOEBRE0D5ijnbfnAZt3p9vt/0EX3t+jHeX4grMaeHEtxXm8lexOxsJ7aEF3V1I0Qreu4DxedCcDgOA84JRWnEdRcJ6i4N9zFkRa7I4czILgSrp4++YSXdAHm2TjdzHNvD4qm03Ykn68cKhk2G2E7ncnq2DE2+4trvFml7q75xqsBgA8eG82PwsirhnLKTpxsyB4ES5gKTJfgDE6RqNs7iQRvjOqWue23tr9Ee+lwVHEbYRunE0iu4TTybhkWOTxeh5vEPFlf9ct4nF2cVYD3dSvTKobSXjh+wPwdkpuGhpdNPPo4lnhLsIV3+JeEIEsCIqAOAoi0X09JBf66nPm9aGlm9K8DZL3yuAoIAooVGsuV66JPF7VeUNs/VNBq4Ej3qTmlgxzVgOsBgDehWat7xOJPOcBe1kQui1KkQMJMD2XI6GYZr3cmCtsCstGhvefa812f8B7WTBWcMmwxiXDxtlx1bjN3fqHu5P1UsQbzGpwsxo44i0O0HEo4rXX0OOXJ/I9DbAaADgCbEFEl286hSKir9KFI/KA6SIKVorMFzWLN12UMdV8hSKiTSndXJhUepp5K3zvpcEYkJI7TmrWes+iz2WJ6E4mm26THBbOgCXD7k2a1wlEHu9DnMfrNslB5RoAw4OiI05DowuRLYjlvgUROAtCLMCIY7ycVM1CXLMWN+tOknfh8F4ZVJFWrdvdZXgwj9ctGU7wzKTM5zWcIZ5HN1fObImSgAurQbXWxlW/ZBi9GgAYMRGt8AmRB6yZ7TSeowuLImC3vr/chTiswZ4iiTBdsC9zBEyPLWYLogYWRBU5ZDWwx+t3J6tMAQV3tnO4sRKXle+KK+aa5rxzObIaAAjA0CyIpGaucLMg2ILoE9FOuYvxyMNPQSIB1iy2IHoSWnFBNGemEQFXh5BYXCvO5e3dRcmwbzUEXFzj58Xpc2xSbRrWH6OK4ZYM3/FobWsGi2sABIZLkelCm0eCu4wtiFS+At3QfAHW2YKwenjfubRqpCDAlUV0J9OLX0rwnmuDVsOhdLJyn82RhnieiHh7S2HNKVHE+2JMNdb6ebzoxwtApSiVprEA0wX8Vc6CoAvQjYCFeI5+EY7zQN2OatbL9JiwIHj/udYsFuEqAVsN9HmdRWK5JKRYv/W7k/F7P1rh5cFWA0fNHPGGciS8mrkmJfJ4N9fPQ8kwAJWF20LyIpzbDc1cwR4wXcReFkTARTj2kTXrFV6Eo6nxQkTAweG2kBzx0vsqshrc7mS8uDZ6q8F/Hke8TarD/Zt3xRRrLQtva7tZh+5kAFQRYUG0cymytSzFDdkHu6EFEWBvES7vuItwqpEh8U1hEW50cMQrrAbF3WWYPd6gi2tCeIXVwPutOQMc8cZV66Fmz2pAOhkA1cbrB8yLcCS+7UnNfpa+r4AFQQLMUTQvwqlWTypvL0pohRZEwCODK9e4Oxm9j0vcAoqhVsNoF0lZfN1OdU2qRRGvuSumWg+mvSY5kb6+Y72XBwBUFS5FXuqcTNHQoTxg3QleiswWhOsBkwCbBucBcxpa/G7nQ94rg3dhxtKeEykKnZvQbTerQQ3enexQxOtlNZDw+rsMN99RrJ27Dnm8AIw5UX9XZM4DFlkQzoE0C2gQAWahEFE0e8CchmZen9J60zVYhPvL0GwkRMIbUTaeHfFLhmXTy+Md/eLaIeEVW7sPhHKFF2OavaaZhJetBmQ1AHC04FJkbsiet79CF+MyumCfpa9eN7TyF/QRB4sFZ0GIY5iv0GM9JOyLkvnNzbAgyjNdNk+KKMbZCbnAEe9jNfKhPdfoJhZIfF2rwY1446I7mX0lCy8KKAA46njd0HTnywldCPBWLkUObEFwP2F/EU41DZEH3F5MRbS+D3svDCRp2oyl6z5Up1mt9bK5pD5nPFY/WDJcLKXLvK/DGYMRL73/YZHVYLwYVY21zXnrcvpM6mA1ADCO4GY8woIQDdkN4QELDzeQBcF5wG4amsiC0K1MKud1QyuVpnkvPXXJZN5Tk7Vm1OWMK2qyxsbZ2Z43mvJs2QTPamDxdq0GN483ScJLMxx0JwNgvPH2UmRjOWdBJDkLgu0DupjLXehHHMKCoOkzHSOqmq+SCHTTlPdfSARmoym3JHF/3JpsoWXm7T230tetTbJRSnLaH79v5d7PYQxhNdB77loN1q7oYHey3roZaJIDwPhFdEPjPeFUtxQ52R68FDm5rI+mwMVSTDX/QOKbS2o9redoa/7We8kpCd98KBqdEVGNb9e0FTpqc8ZLcXqvmoXPO/KbnRBret7QkuGoYq3183ghvABMAObkesWuyCnVzid1tx8wR2SjjYCFcNNzScz/lNDMO5LLrM9/4a6O93svNyWZrnV9OKwaX4yqhhqSje0hxRrwU8rKvYdHGn5WA0W8rtWgWg+S6F7xGXUzFtcAmChwKTJbEOwBcylyTLO2hhWrP0pR1WimxINRs2r+FwnCXYm8/YWpLr6z2op/V5ctXNCYKzwYVoxXWHi5UOXw9244Q1gN7UPyeBVjbVIvXpGSe7HLMAATEc4D5lJkiqKWUXT2XEi1D8SESIxsQcjLeiDxtV6g6Dcf180zp7r4Rn7WfUJNtudrtdmedWHZfDXNi2wjXNw8ZDWIkuES5/Gyx9usm9+FxwvARCaTeQ8LsOiGRgJMIrG1UTYOsgBzBFxOEMoN9oxJdPsp8n08rlg3xFQjOtUjMt6VIkTiW0fiGyHxFfunjVh8B62GUkg2d8XZatCtK5LLuYACC5oATGy4GxoJcLNuXUAX9wqaIj8XUqx+3nbmiClRbFGwSOvOQRLfnQnVWJWQjf+RyNt/z9kV3itMSVh8aQbwtYhirqP3dUTiy++5K7y9pSb66loN1loWXuwyDMAkg3dFpgv7Au4HHHIF+AALsJsLTJEwWxFDo2EW3vZiKb28j6Je6y0avXHFmc9pZsjxdcU3rRq8y/QaFl8W0uF4vkJ4Sai9rAbe+udFmk0MdifD4hoAkwy3H3DvKRRxDVoQIbYg/CyIMkO0mnQthz1JxbwvofV+laNe75BTmsZbuz/ibg1k58Oy8Qe2DhJ8I+P37jDBHTr433lxzl9cc0uGuR9vb11NBlYDAJMTilhb9cdPdi0Ic0VTrvA0icB/kXj8uUk29kZU82CSIt3Uit+4YqHbe5O6s5MEojuuWfPjy5zG1hXbMCUmZixd976YXjw9odrfiVDkGlasXSyqzfTeiZsW37xYbL2R9m5m8WV9YnHN7U5mreUmOWJ7d5QMAzD5SWXNU1mAKQL+aUgu/N+6XM8v67OFR0Ky+fuY7ryRyDtvUjS2g6bBv+a8Xvr+qqhmptO/fBqNdYYwgwSTZgINdKO6nO2HpGbu4qKWmGoNxNla0ElshcXgNtmJ0+N0sztAMw6xyzCXDMNqAGAKMW916b3p9t/8t0S20NKkFs4NKeaXQ7mef47Ipk4CUaCptMmLc0nVuCIlm+fEsoVa7GpRnrlLt76PsxNSeftKEt/7KJp9vEEu7GzIGQdCnD6m0qCv9PNb/DhFyI/HFOM+Lhnm53EE7R0KADBViGh9fxvRuj78xZ9bx7cq9icTinF2XDH+VUS6sn1eWDU+1SIXjmvNdB/jPQWUgfdOa1nm1CR14+thxbihIWusbMwWHm9SzD0hxXq1QTb31N5e+F0tPd6UM27g3+Pfx55rAABBMr/l+Hq5dyaJ8ixuDu49DIYB36CSivXxsGqFo6r9jwmlcGNCNe6nGcT6UM64v66tcGNtzv7H+jYr3Khs+DhuaACAt0OiAGEYLaVpvJFly9J1JybUnkRELsyjSPcb9fS1gX4O0eOezYB2nAAAUA1OXvLzv/nYz7pPmP7TjpNOp68n//znf+P9EwAAAAAAAAAAAAAAAAAAAAAAAAAAAAAAAAAAAAAAAAAAAAAAAAAAAAAAAAAAAAAAAAAAAAAAAAAAAAAAAAAAAAAAAAAAAAAAAAAAAAAAAAAAAAAAAAAAAAAAAAAAAAAAAAAAAAAAAAAAAAAAAAAAAAAAAAAAAAAAAAAAAAAAAAAAAAAAAAAAAAAAAAAAAAAAAAAAAAAAAAAAAAAAAAAAAAAAAAAAAAAAAAAAAAAAAAAAAAAAAAAAAAAAAAAAAAAAAAAAAAAAAAAAAAAAAAAAAAAAAAAAAAAAAAAAAAAAAAAAAAAAAAAAAAAAAAAAAAAAAAAAAAAAAAAAAMYnkvT/A4x00fIY24wRAAAAAElFTkSuQmCC;fontColor=#000000;container=0;" vertex="1" parent="1">
                    <mxGeometry x="1284.9957894736842" y="600" width="55.958375025015" height="55.958375025015" as="geometry"/>
                </mxCell>
                <mxCell id="29" value="" style="sketch=0;html=1;dashed=0;whitespace=wrap;fillColor=#2875E2;strokeColor=#ffffff;points=[[0.005,0.63,0],[0.1,0.2,0],[0.9,0.2,0],[0.5,0,0],[0.995,0.63,0],[0.72,0.99,0],[0.5,1,0],[0.28,0.99,0]];verticalLabelPosition=bottom;align=center;verticalAlign=top;shape=mxgraph.kubernetes.icon;prIcon=pod;fontColor=#000000;" vertex="1" parent="1">
                    <mxGeometry x="1370" y="654" width="50" height="48" as="geometry"/>
                </mxCell>
                <mxCell id="30" value="" style="sketch=0;html=1;dashed=0;whitespace=wrap;fillColor=#2875E2;strokeColor=#ffffff;points=[[0.005,0.63,0],[0.1,0.2,0],[0.9,0.2,0],[0.5,0,0],[0.995,0.63,0],[0.72,0.99,0],[0.5,1,0],[0.28,0.99,0]];verticalLabelPosition=bottom;align=center;verticalAlign=top;shape=mxgraph.kubernetes.icon;prIcon=pod;fontColor=#000000;" vertex="1" parent="1">
                    <mxGeometry x="1441" y="654" width="50" height="48" as="geometry"/>
                </mxCell>
                <mxCell id="31" value="" style="sketch=0;html=1;dashed=0;whitespace=wrap;fillColor=#2875E2;strokeColor=#ffffff;points=[[0.005,0.63,0],[0.1,0.2,0],[0.9,0.2,0],[0.5,0,0],[0.995,0.63,0],[0.72,0.99,0],[0.5,1,0],[0.28,0.99,0]];verticalLabelPosition=bottom;align=center;verticalAlign=top;shape=mxgraph.kubernetes.icon;prIcon=pod;fontColor=#000000;" vertex="1" parent="1">
                    <mxGeometry x="1441" y="720" width="50" height="48" as="geometry"/>
                </mxCell>
                <mxCell id="32" value="" style="sketch=0;html=1;dashed=0;whitespace=wrap;fillColor=#2875E2;strokeColor=#ffffff;points=[[0.005,0.63,0],[0.1,0.2,0],[0.9,0.2,0],[0.5,0,0],[0.995,0.63,0],[0.72,0.99,0],[0.5,1,0],[0.28,0.99,0]];verticalLabelPosition=bottom;align=center;verticalAlign=top;shape=mxgraph.kubernetes.icon;prIcon=pod;fontColor=#000000;" vertex="1" parent="1">
                    <mxGeometry x="1370" y="720" width="50" height="48" as="geometry"/>
                </mxCell>
                <mxCell id="33" value="" style="sketch=0;html=1;dashed=0;whitespace=wrap;fillColor=#2875E2;strokeColor=#ffffff;points=[[0.005,0.63,0],[0.1,0.2,0],[0.9,0.2,0],[0.5,0,0],[0.995,0.63,0],[0.72,0.99,0],[0.5,1,0],[0.28,0.99,0]];verticalLabelPosition=bottom;align=center;verticalAlign=top;shape=mxgraph.kubernetes.icon;prIcon=pod;fontColor=#000000;" vertex="1" parent="1">
                    <mxGeometry x="1301" y="654" width="50" height="48" as="geometry"/>
                </mxCell>
                <mxCell id="34" value="" style="sketch=0;html=1;dashed=0;whitespace=wrap;fillColor=#2875E2;strokeColor=#ffffff;points=[[0.005,0.63,0],[0.1,0.2,0],[0.9,0.2,0],[0.5,0,0],[0.995,0.63,0],[0.72,0.99,0],[0.5,1,0],[0.28,0.99,0]];verticalLabelPosition=bottom;align=center;verticalAlign=top;shape=mxgraph.kubernetes.icon;prIcon=pod;fontColor=#000000;" vertex="1" parent="1">
                    <mxGeometry x="1301" y="720" width="50" height="48" as="geometry"/>
                </mxCell>
                <mxCell id="68" value="" style="group" vertex="1" connectable="0" parent="1">
                    <mxGeometry x="793" y="340" width="78" height="78" as="geometry"/>
                </mxCell>
                <mxCell id="44" value="" style="aspect=fixed;html=1;points=[];align=center;image;fontSize=12;image=img/lib/azure2/networking/Public_IP_Addresses.svg;fontColor=#000000;" vertex="1" parent="68">
                    <mxGeometry x="9" y="30" width="60" height="48" as="geometry"/>
                </mxCell>
                <mxCell id="45" value="&lt;b&gt;Azure Bastion Public IP&lt;/b&gt;" style="text;html=1;strokeColor=none;fillColor=none;align=center;verticalAlign=middle;whiteSpace=wrap;rounded=0;fontColor=#000000;" vertex="1" parent="68">
                    <mxGeometry x="-4" y="-3" width="86" height="30" as="geometry"/>
                </mxCell>
                <mxCell id="70" value="&lt;b&gt;AKS&lt;/b&gt;" style="text;html=1;strokeColor=none;fillColor=none;align=center;verticalAlign=middle;whiteSpace=wrap;rounded=0;dashed=1;dashPattern=1 4;labelBackgroundColor=none;fillStyle=auto;strokeWidth=1;fontFamily=Helvetica;fontSize=12;fontColor=#000000;" vertex="1" parent="1">
                    <mxGeometry x="1308" y="99" width="60" height="30" as="geometry"/>
                </mxCell>
                <mxCell id="71" value="" style="endArrow=classic;html=1;dashed=1;dashPattern=1 1;strokeColor=#0000FF;fontFamily=Helvetica;fontSize=12;fontColor=#000000;rounded=0;" edge="1" parent="1">
                    <mxGeometry width="50" height="50" relative="1" as="geometry">
                        <mxPoint x="1104" y="314" as="sourcePoint"/>
                        <mxPoint x="1272" y="282" as="targetPoint"/>
                        <Array as="points">
                            <mxPoint x="1104" y="282"/>
                        </Array>
                    </mxGeometry>
                </mxCell>
                <mxCell id="73" value="" style="endArrow=classic;html=1;rounded=0;dashed=1;dashPattern=1 1;strokeColor=#0000FF;fontFamily=Helvetica;fontSize=12;fontColor=#000000;" edge="1" parent="1">
                    <mxGeometry width="50" height="50" relative="1" as="geometry">
                        <mxPoint x="1512" y="720" as="sourcePoint"/>
                        <mxPoint x="1680" y="516" as="targetPoint"/>
                        <Array as="points">
                            <mxPoint x="1680" y="720"/>
                        </Array>
                    </mxGeometry>
                </mxCell>
                <mxCell id="75" value="" style="endArrow=classic;html=1;rounded=0;dashed=1;dashPattern=1 1;strokeColor=#0000FF;fontFamily=Helvetica;fontSize=12;fontColor=#000000;" edge="1" parent="1">
                    <mxGeometry width="50" height="50" relative="1" as="geometry">
                        <mxPoint x="1513" y="480.03" as="sourcePoint"/>
                        <mxPoint x="1638" y="480" as="targetPoint"/>
                    </mxGeometry>
                </mxCell>
                <mxCell id="77" value="" style="endArrow=classic;html=1;rounded=0;dashed=1;dashPattern=1 1;strokeColor=#0000FF;fontFamily=Helvetica;fontSize=12;fontColor=#000000;" edge="1" parent="1">
                    <mxGeometry width="50" height="50" relative="1" as="geometry">
                        <mxPoint x="1513" y="278" as="sourcePoint"/>
                        <mxPoint x="1681" y="444" as="targetPoint"/>
                        <Array as="points">
                            <mxPoint x="1681" y="278"/>
                        </Array>
                    </mxGeometry>
                </mxCell>
                <mxCell id="80" value="" style="edgeStyle=none;rounded=0;html=1;dashed=1;dashPattern=1 1;strokeColor=#0000FF;fontFamily=Helvetica;fontSize=12;fontColor=#000000;" edge="1" parent="1" source="50" target="24">
                    <mxGeometry relative="1" as="geometry"/>
                </mxCell>
                <mxCell id="117" value="" style="edgeStyle=none;rounded=0;html=1;dashed=1;dashPattern=1 1;strokeColor=#0000FF;fontFamily=Helvetica;fontSize=12;fontColor=#000000;" edge="1" parent="1" source="82" target="62">
                    <mxGeometry relative="1" as="geometry"/>
                </mxCell>
                <mxCell id="82" value="" style="aspect=fixed;html=1;points=[];align=center;image;fontSize=12;image=img/lib/azure2/identity/Azure_Active_Directory.svg;rounded=1;dashed=1;dashPattern=1 4;labelBackgroundColor=none;fillStyle=auto;strokeColor=#999999;strokeWidth=1;fontFamily=Helvetica;fontColor=#000000;fillColor=none;" vertex="1" parent="1">
                    <mxGeometry x="1505" y="-46" width="70" height="64" as="geometry"/>
                </mxCell>
                <mxCell id="84" value="&lt;b&gt;Application Gateway Public IP&lt;/b&gt;" style="text;html=1;strokeColor=none;fillColor=none;align=center;verticalAlign=middle;whiteSpace=wrap;rounded=0;dashed=1;dashPattern=1 4;labelBackgroundColor=none;fillStyle=auto;strokeWidth=1;fontFamily=Helvetica;fontSize=12;fontColor=#000000;" vertex="1" parent="1">
                    <mxGeometry x="798" y="648" width="78" height="30" as="geometry"/>
                </mxCell>
                <mxCell id="118" value="" style="edgeStyle=none;rounded=0;html=1;dashed=1;dashPattern=1 1;strokeColor=#0000FF;fontFamily=Helvetica;fontSize=12;fontColor=#000000;" edge="1" parent="1" source="90" target="62">
                    <mxGeometry relative="1" as="geometry"/>
                </mxCell>
                <mxCell id="90" value="" style="sketch=0;aspect=fixed;html=1;points=[];align=center;image;fontSize=12;image=img/lib/mscae/Docker.svg;rounded=1;dashed=1;dashPattern=1 4;labelBackgroundColor=none;fillStyle=auto;strokeColor=#999999;strokeWidth=1;fontFamily=Helvetica;fontColor=#000000;fillColor=none;" vertex="1" parent="1">
                    <mxGeometry x="1215" y="-44.2" width="70" height="57.4" as="geometry"/>
                </mxCell>
                <mxCell id="106" value="&lt;b&gt;NAT Gateway&lt;/b&gt;" style="text;html=1;strokeColor=none;fillColor=none;align=center;verticalAlign=middle;whiteSpace=wrap;rounded=0;dashed=1;dashPattern=1 4;labelBackgroundColor=none;fillStyle=auto;strokeWidth=1;fontFamily=Helvetica;fontSize=12;fontColor=#000000;" vertex="1" parent="1">
                    <mxGeometry x="1616" y="420.05" width="60" height="30" as="geometry"/>
                </mxCell>
                <mxCell id="107" value="&lt;b&gt;NAT Gateway&lt;br&gt;Public IP&lt;/b&gt;" style="text;html=1;strokeColor=none;fillColor=none;align=center;verticalAlign=middle;whiteSpace=wrap;rounded=0;dashed=1;dashPattern=1 4;labelBackgroundColor=none;fillStyle=auto;strokeWidth=1;fontFamily=Helvetica;fontSize=12;fontColor=#000000;" vertex="1" parent="1">
                    <mxGeometry x="1766" y="409.05" width="68" height="41" as="geometry"/>
                </mxCell>
                <mxCell id="108" value="&lt;b&gt;Internet&lt;/b&gt;" style="text;html=1;strokeColor=none;fillColor=none;align=center;verticalAlign=middle;whiteSpace=wrap;rounded=0;dashed=1;dashPattern=1 4;labelBackgroundColor=none;fillStyle=auto;strokeWidth=1;fontFamily=Helvetica;fontSize=12;fontColor=#000000;" vertex="1" parent="1">
                    <mxGeometry x="1898" y="415.03000000000003" width="60" height="30" as="geometry"/>
                </mxCell>
                <mxCell id="119" value="&lt;b&gt;Azure Container Registry&lt;/b&gt;" style="text;html=1;strokeColor=none;fillColor=none;align=center;verticalAlign=middle;whiteSpace=wrap;rounded=0;dashed=1;dashPattern=1 4;labelBackgroundColor=none;fillStyle=auto;strokeWidth=1;fontFamily=Helvetica;fontSize=12;fontColor=#000000;" vertex="1" parent="1">
                    <mxGeometry x="1347" y="-82" width="96" height="30" as="geometry"/>
                </mxCell>
                <mxCell id="120" value="&lt;b&gt;Entra ID&lt;/b&gt;" style="text;html=1;strokeColor=none;fillColor=none;align=center;verticalAlign=middle;whiteSpace=wrap;rounded=0;dashed=1;dashPattern=1 4;labelBackgroundColor=none;fillStyle=auto;strokeWidth=1;fontFamily=Helvetica;fontSize=12;fontColor=#000000;" vertex="1" parent="1">
                    <mxGeometry x="1510" y="-82" width="60" height="30" as="geometry"/>
                </mxCell>
                <mxCell id="123" value="&lt;b&gt;Azure Monitor Dashboard&lt;/b&gt;" style="text;html=1;strokeColor=none;fillColor=none;align=center;verticalAlign=middle;whiteSpace=wrap;rounded=0;dashed=1;dashPattern=1 4;labelBackgroundColor=none;fillStyle=auto;strokeWidth=1;fontFamily=Helvetica;fontSize=12;fontColor=#000000;" vertex="1" parent="1">
                    <mxGeometry x="1633.75" y="48" width="84.5" height="30" as="geometry"/>
                </mxCell>
                <mxCell id="124" value="&lt;b&gt;Prometheus&lt;/b&gt;" style="text;html=1;strokeColor=none;fillColor=none;align=center;verticalAlign=middle;whiteSpace=wrap;rounded=0;dashed=1;dashPattern=1 4;labelBackgroundColor=none;fillStyle=auto;strokeWidth=1;fontFamily=Helvetica;fontSize=12;fontColor=#000000;" vertex="1" parent="1">
                    <mxGeometry x="1770" y="46" width="60" height="30" as="geometry"/>
                </mxCell>
                <mxCell id="125" value="&lt;b&gt;Grafana&lt;/b&gt;" style="text;html=1;strokeColor=none;fillColor=none;align=center;verticalAlign=middle;whiteSpace=wrap;rounded=0;dashed=1;dashPattern=1 4;labelBackgroundColor=none;fillStyle=auto;strokeWidth=1;fontFamily=Helvetica;fontSize=12;fontColor=#000000;" vertex="1" parent="1">
                    <mxGeometry x="1892" y="46" width="60" height="30" as="geometry"/>
                </mxCell>
                <mxCell id="127" value="" style="shape=image;verticalLabelPosition=bottom;labelBackgroundColor=default;verticalAlign=top;aspect=fixed;imageAspect=0;image=data:image/png,iVBORw0KGgoAAAANSUhEUgAAAY0AAAGNCAYAAADtpy3RAAAAAXNSR0IArs4c6QAAAARnQU1BAACxjwv8YQUAAAAJcEhZcwAATOUAAEzlAXXO8JUAACZOSURBVHhe7d09jyXVtcbx+4Fu5ojMmSMnV0iWLBHYEYmdICQHlgNITMIElgOEhIQ0wSSIACFNYBFARIIIkCUCHI2uYWw8HmheBjzuy1Nzq119+jnn1Mt+XfUPfq2ZNdOnT1fVqV1777XX/q/Ly38DADCLDQI9++4vf7589NH7g6/fe/vyizt/fOL2rcvPf/eLpPSa4+t/9c6bVz/30ccfXrr3BvTOBoFWjTfl8UatG/fff/Pzy//9n/9umt7jtJH59oN3h9/j3999Q+OCrtggUJN6CmMPYXyidzfiSK4albHHQk8FjbJBoITHFw+Hp+0v33j18p9/+G0XPYbS/vbc05cPXn5+aEx0rB4/uE9jgqpsEMhBT88Xb71++Y/f//ry01/+2N4kcd6nzzx1+fmLzw6NrRoSd6yBXGwQ2Eq9CI3bj0NM7uaHdNRLe/jaS5ffvP8neiPIygaBpTShqxvWw1deGIZU3I0N5Xz27E+GIT/NDakBd+cMWMMGgTm+v/fJMNykoRJ340I71BPRcJaSDNy5BOayQcCZ9ib0JOtuTmif5pPohWAtGwRGaih0c1EGz19/9iN7E0LflJigNF8aEMxhg9g3Gor9ogHBOTaI/aGhwCEaEDg2iP3QZLbmKJT7724cgOhhQinU7hrCvtggYtOT48XdO6TGYjElQCgLi7Ug+2WDiEkrspU1w/ATUqD3sU82iDg0V6Fexf1f/dR+8IGtrnofzH3sgg2ifxo+UBlu5ipQinqwmh/712f3aDwCs0H0SxPbDEGhNg1dUd49JhtEf1TtlHIeaI3Kl6iKgLtm0ScbRD/0gSQLCq3TvIfWfLhrGH2xQbSPxgI9ovHonw2iXUpxpLFA79R4qAKBu8bRNhtEe4Y5CzYzQjB6AGLOoy82iHbQWJSl9SzjNqraCc/9H6RH49EPG0R9ynVXwTj3AUN6OtbTDYq0zoW05fL0gMRGUW2zQdSjFdzaV5sbVhnqWahXcXge6GXUpePPCvM22SDq0MSgdlVzHyKkp96FuzHRy2iDqhloO+HD84O6bBBlaeWsFkG5Dw7y0Kp5dy5ENyr3PahDvUEKI7bDBlGGnmhVbsF9UJDPqQZDaMDbpIoHKpPjzhnKsUHkpwVOFBMs71yDoZuS+z60QcOGym5z5w5l2CDy0U2JFNo6zjUYosbcfS/aohRdCiLWYYPIQ09ITLDWoaENd04OqbS3+360SeX/lXHoziXysEGkpSciSn/Uo2HAuduTcp76o5IkTJSXY4NIY1hz8cOTkLvQUc6SGkekPPdLw4+s7cjPBrGd5i7YYrU+Zae583OMew30Q40+cx152SC20WQqcxf16Qay5MlTQ1juddAfMqzysUGso+EodZHdRYzylhbAU70v9zrok5IfGK5KzwaxHMNRbdGEtjtPp9DTiIfhqvRsEMtc3L3DcFRj1pbZdq+F/qkIqDvfWM4GMY+6vpQBac+aXsbIvR5i0KLauanXOM4GcZ5q/jMc1aYtm/lwTmMbhqtMKXzMZ4M4jeGodm3pZQgbX+0Dw1Xr2SA8hqPat2Qhn8NizP1guGodG8RNysBQuQJ38aENKheytQ6RhrbcayMmXTOUIFnGBnGdNuVhOKp9c6rYnqPepHttxKYeprsecJMN4gkW6/Ul1QQnpev3icWA89ggnjQYuojcxYX2KCvGncc1NEnqfgbiUyIFDcdpNrh3umgokd2XlMMLmr9yPwP7oLlLlZRx1wZoNG7QxUKufn+0bsadz7XYinff1HNNfU1FYYN7pYuEDKn+6Jy587kF6zWgBwcWAt5kg3ukIQmeLvu0dM+MOdgrHKKsyS0VBiKywb1RnjYptf1SSrQ7r1toXotrAiM9RLjrZI9scE94ouxfrrFnVv9jio2dnrDBvdBF4C4O9EO9ga2rwI/pfXW4JnNdHOs9fO2l3TccNrgH1BiK4e+/+Xm2D7Eao17nubTGiGs8Dy34zfWg0gMbjI5V3nHkfvJ7+MoL9ue2TJlfuqmROp6PGuW9Nhw2GJVOMqu8Y8k9QamUS/dzWzXW3+rtffdor6vHbTAinVwNZbiTj36VSIfsZe2OamaNT7/qgbn/g7TUm9vb6nEbjEYfJBqMmEosvuqhFpUatulTL2Vwyjk89tHZYCQMScVW4inv+3uf2J/dCk3W6z2O71fHxP0/5LOnoSobjIRJ79hK7bzWcrn0w02EWHtUx14mx20wClIO43PnPQdtI+t+fm3jxPcU8xn15Chp0xobjICFe/Gl3EPjHD1BtrZYTu/H9bQotliX0rQPz0kkNtg7uuf7kKO67SmtPcGr9+PeJ0kf9Sl5wp2bCGywZxQf3A+lO7prIJeWJsQ1fu7eo1A+pA0Xd++EbDhssFcqb06DsR+anHbXQU4tTIjrGj+WAKBhNPc9qCNiWXUb7JEqnbIfxr7UaDRamBA/VTql9fTgvVEDf5jd1jsb7I3y0ntZtYt0ajQatSfET/UyRDco932oRw+zkbaOtcGeaEENhdnyUjaIUglbGyuvld5Yc0L8VC9DNI7uvg916bMTpdyIDfZCT32US8hvLAqo461d8lppPNwahRJqDQHpuOscuPc0InOwXUO5kUKLUXOywR7ow0N5kDKU9z899urdtbDSvmY+fI0J8TlpnDQabYtQbsQGe0B5kHI0ju6ecGvfoGrmwpeeED83lzGi0Whf7+VGbLB1GiJxJwP5HKsmq5RC3dDc9+Q2DpvVoA99yWG6ufM37KPRh3NzUy2zwZaxFqOOUxd5rcnX2jnwJSfEdd2793CIRqMfva7hsMFWaSyQ1No6Tq1AlhoZRSX20jhFaZTufaWmcXD38x0ajX4oFbfHjCobbBWF2OqZU+ep9ORwCx+4EnWelgzDsbivL7p+epvfsMEWMY9R37mLWzfxkqvyW/iw5R6aO5aEcIzOgXsdtKu3+Q0bbA3zGG2Y7g53TKmsIl0P7ueXpiHTnNfm0gWMamDc66BtPc1v2GBLmMdox9waOiWGqZaM8+emG7t7jymsqVtEhYT+9DS/YYMtYR6jHXPH1ktMEB8uOKwpV72nOSvAHT4zfeplfsMGW8E8RluWTMhqtbZ7jVS0la/7ubXkWLOxdsU7u1b2q4f5DRtsgcbPmcdoy5JGQ6uX3Wuk0toGNzlSjtemFGt83L0e+tD6/IYN1qYuGuOy7Vm6AjvnMEntNRqHlKzh3udaGuNeO1RB2m3fWp/fsMHaqCvVpqWNRs65jRarhaZ80Nk6Z0MvvW8tz2/YYE26MbmDiPqUTuvO2Sk5KhG3km57SAUU3ftdY+vwG1sG9K/V+Q0brIV5jLbNrX80lWN8vaV026mUC+u2Dk/UKOuC9Fqc37DBGpjHaN+aISGd19SZRbV27JsjRVmROSVbzqEGVQwtzm/YYA08GbXPnbc5lB7rXm8tpWK7n9OCFOmuKTaXUmNNrz2GGnvhn2KDpaXOPEF6W55+U2fztJY5NZViiCrVkESN3QWRR0sp5jZYkp6ImLRr39annZRDj61vl7lliEq9g1S/H4tj49AwVSsZgzZYUsqME+Szdcgk1XlW4+NevyVbhqhSDkWU2u8DZbRSOscGSyFbqh9b5xFSDVG1PAk+2jJElXrfcz2hup+DPrWQTWWDpaTINEEZemp153CJFNWKW54En1p7bac4zlO5a4ChLGUi1h6etcESau0rjeXUG0yxOjXFSv+WJ8Gn1gzHqVfgXmsLkkziSZFdt4UN5qYJHYal+pFqMV2K1f6tT4KP1qyTOLcP+1qsf4qn5sOTDeZGvf++pCpnsDUdVUM+7nVbtGadRK5y75RKj0cPcil6/2vYYE50l/uztFDhKVvmNVJPEue2dJ1ErknOFGtH0J5a83s2mBNrMvqTckhoy7xGL/MZo6XzGjnLRbDQL55hUrzC2g0bzIXJ7/6kLg64dl4j1WR8SUvmNXJMgk9RPTqmGpVwbTAHfeBzbImJvFIPCa0dKkm56K0UXfPud3Fy/358/mLSw1TqNO1zbDAHChL2KceQ0Jp5jd7mM0ZzM5dKPDGuSQNG+3Jl3R1jg6mx8rtPGjLJMSS0Zl5jzV4eLZibKbhmg6ulSHWPq+RKcRtMjRTbPuUq2bG0kF7u8f6c5j7d68HKfX9q9PhjUo+21JyfDab07Qfv2l8S7cv19Lv0mlDPxL1OD/QE6H6nKT39u+/NgSKGcZVKwbXBlEix7VPObKWlxQvVyLjX6cGc37X0okV6/jEp0aFEb8MGU5nzlIU25a4mO3dsPde8Sknu95oqnTZJbyOuEr0NG0yFXka/ck/Mzs0q6nloanQuWyzlivu56G3EVKK3YYMp0MvoV86hqdHcm1Zvq8Cdc6uxa2SGab0MmVQx5e5t2GAK9DL6VWKjIxXncz97Sk9N7nt7cy7FuNY2nmRSxZS7t2GDW9HL6FuJiec5JWVq7xuQyqkGsmTm1CHWbcSVs7dhg1vRy+hXqYnnOdWOIwxNyakGsvae55RNjylnb8MGt6CX0bdSE896ynU/f5S6UGJNp9allC4BcUg3Ft1g3HtD33L1NmxwC3oZfSu5JkK9GvceRA8f7nt6dCrFtXS6raNMOffe0LdcvQ0bXIteRt9Kr4k4looaZQJ8dKpXVWoV7zk87MWU4/qywbXY6KVvpddEHLtRtXIjTcn9ntJKj4odNWPSg5k731vY4BqsMu1f6Yln95CRO12wlmO9qtJ7IZzCgr+YUj+Y2OAaXHB9y/FEco67ZnrdN+Mc1Zc6/F0l5Va6W7HgL6bUSSU2uBT53v3TWgJ3bnM6XPSma6jWQrfcXAPZ4twNC/5iStmjtcGluND6V2o/h6nD66ZGw1WKWxVeurrtHDwAxqSHFne+17DBJdS95iLrW62b13SDIg2PRZzLGLnNmEqUa1mDh8CYUj0Y2uASynRxbxD9qJWtNL12Iq3LcNyq8FZ7VvQ2Ykq1JsgGl5hb4hptqjmPoJLgeg8pu86tcgvoWk4tprcRT6p1WDY4l1I03ZtDP2qWsVDvIvLk95T7rNTYR2MuehsxpbjmbHAujcm6N4Z+5N5s6RTdSFUwz/1bNEpnPTz2rRdkpLcRT4r5SxucgyeR/tXeSlXXUOTJ7ykljBwe/xoZa0vwGY9pa/qtDc7BBHj/SpcN2bvD49/DsJxLFUbftk6I2+AcTID3r/XhkWgOS4m4/9MaygPFs3WEwQbPobhZ/2qUDdm7aSmRno4/JYLi2TKXaYPn0GXtX+TV162a3nx72mTq1CZS6JOKhbpzPYcNnsIK8BjUW3TnF/loz/Px+NfesW8p9tuIZ20ihg2eMi7IQr8YmqpjWkqktyQEPvfxrK0obYOn6AnJvQH0I1U5ASwzvfH2NjzICEM8SmZy5/ocGzyGCycGsqbqmM4NtFxC5BgW88azZojKBo+hi9q/aPtv92SavpqinENpTIjHs2aIygaPYWiqf5qMdecW+Sk3fjwPPVb11fvXQ8f0ekLf1gxR2aDD0FQMDE3VNd50ez0P1KOKZ+kQlQ06DE31j6Gp+sYFfr02GizsjWfpEJUNOgxN9Y+hqfrGyWRVvXX/3oPDcijo29IhKhs8xNBUDJrIdOcX5YxrNXpuNKgIEc+SISobPOR2HUNfapdBxxPjZ6nnc6FJ/MPrC31bsq+NDR7iyaJ/va1AjmpMu3X/1guNPBxeX+jbklpUNniINLv+MTTVhiFt9Yden/u3nkwr9qJ/mn7Qw4A714dscIp6+v3TBcHQVDtU7dbFezKto4UY5q4dssEpLo7+bSmDjPTWrMJtjVKG3bWGfs0dwrbBKd1w3A9APyLcpCKJUJZePVcyKmOZW/3aBkdMeMXAKvC2RBkqZF4jHk1HuHM9ZYMjUm37x3wGcpluKoUY5qTe2uCIVNv+MZ+BXC7u3rHXHPo1535hgyPKBfRvyaIdYAnqUMUzZ2TCBkVlDtyLoi/MZyAX3VzcNYe+nbtn2KBQKiCGuQt2gDX+9tzT9rpDv87tKmmDQt38/ukD7c4tkApbwMZzbvGpDQpPEP2j3hRyY/FvPOfK3NggY5UxKLvFnV8gFTZni+lUqXQbpERADHMW6gBbqBCmu/bQNz0MuPMtNkiXs38s6kMJFDSN6dTQtg2ytWv/lm7hCKzx+MF9e/2hb6fuHzaoiRD3QuiHGn53boHU3PWH/h1L178RYFFfDEqZPjy3QA5Ujojp2CK/GwEW9cVwboEOkArVbmM6dg+5EVCtIvcC6MvcXbiArbQYzF2D6JuqGLvzfSPABRAD6bYohWrYMR2rKHEjoFlz9wLoCzWnUAqNRkxK23fn+9pfWAkex/S8AjmxrisutzL82l+ojx/DudoxQEo0GnFp99bD833tL+zEFcPcDeKBFGg04vri9q3TjQbl0GOg0UBJZFzG5cqkX/uL9od134i+KG9+el6BnKh0G5crJ3LtL6zsjGHO5vBAKjQasR2e72t/cd+A/tBooCQajdhUWmp6vq/+QM2pOGg0UBKNRmyHNaiu/sDGS3HQaKAkGo3YdH6n55sTHxCNBkri3hGbUqqn5/vqD+Rax0HKLUpSNVR3HSKGw138rv5A/Zg4aDRQEg+csR2OXFz9Qf/gvgH9+fSXP6bRQDE0GrEdPoRe/YE1GrFMTzKQk/ZdcNcg4pie76s/uP+IflEaHaUwtB3fdK3G8IWS6PGoYvF4koGc2O41vmmJ9OELC/vicSWNgRw0h+auQcQxXeA3fGEfjXgOc6uBHDQM6q4/xDJ9CB2+sBo8ngcvP0+jgey0F727/hDLdFX48IUVnfFQHh0lfPP+n+z1h1imIxfDF3bsi4e1GiiBDZj2YbqD3/CFxTkxHZY0BlIj3XYfpqVEhi8szonpsDolkBqLgvfh8xefvd5o8LQQ0/TpAEjt8YP79rpDPNP6U8MX6k7FROFC5MQk+H5M7yXDFxqNuPQ0OJ5sIKWHr71krznEQ6OxI3oaHE82kBLlQ/aDRmNHmNdADqpX99ef/chec4iHRmNHPn3mqUt9wMcTDqTw7Qfv2usNMd1oNBRw/xEx6AM+nnAgBTIu92c898MXGo3YGKJCSuq5qgfrrjXENZ7/4QuNRmwMUSElhqb2aTz/wxcajfjYXwOpMDS1T+P5H77QaMT3j9//mkYDmzE0tV/jNTB8Yeet+JQeyUI/bMUq8P0ar4HhCz2NfdAK3vHEA2uQnr9f4zUwfKHR2Af1KJkQx1rs0rdv43UwfKHR2A9tuDWefGAJtlDYt/E6GL7QaOzH3557mkYDi2k+jLIh+zZeC8MXCo/tC0UMsdTFW6/bawn7MN0+evjC5Na+0NvAEkOaLRmWu6bRqPF6GL7QaOwPvQ3MRS8DNBqgt4FZ6GVAaDQwIJMK59DLgNxoNB68/Lz9j7hJx+rRR+9f6sOkFMSekwhYt4FTlDEVqZeh3rXqZn35xqtPPsM/PDS5/4ebdJ8br4vhCwXI5jtWMfbRxx8OF6GOpS5O970tUuN3+LsA0vMe4LrJ6aFOn0k1EO73Uz0297246fMXn73eaHxx54/2P8KbUzFWDYsuVh1bHfBWi7wp9/5fn92j4cA1uiZ6WJeh96jhdTVwX73z5qVWrbvf55A+n6w7mW+6J8/whXHLZaat7hLf3/tkuLD1BNRSb0QfOvd+sV8tznPqwUvvSw9ienDT58m99zkovLjMF7dvXW80dCNz/xHHpagY21JvhElxjFoY69dcij4T+mxo06fUvWGG5JfRPNB47IYv7MS13PQgpqQPh56i1N0uOcnOMBVkmPwu/PBy/1c/HfZ7UQOhh6jHFw+zXocMTS2njsV4/IYvOlHuP+I4XejjQcxtmGR/6/Uhc0s/172fFBimgp7u3bWRioZldR2PGUwuqSQ3PZS594bjpouBhy96wnT/EafpZj4eyJL0JKbeocYZU489k021X6mHqa8ymH64ptRAuJ9ZQ4vzNa2bnr/hi25C7j/iNH0gxgNZ27Q3snV4oaUPOMrQpPKWIRst/tK1NzQQlR6m5tDv6d4/TpsOXV8dTPcfcZpuzjW613PoJKtLOUyy//BkteSGoElItobdD13DS4c9NcykhyYN9fR0rfS89qSm6TzT1cGkvsw6PQ3nXKX8zphk17+32iAirXOL3HRv0P8Z5yHca/RA13PNDMVe6YFzehyv/lAyUycSPXFND2hvdBNQiqUaksOxXsXc9yAOPfRMz7luqroO1ENVTzVSj/Pwd8U8h0k/V3/QeKT7BpwXrcy4eiTj0NaWBVRomxqEMdU1x1qI1mjexX1+cdrhYuarPygTx30Dzlu7QhxAGXoIcp9dnHeY8HP1hxZWgfZsbs0bAOWRZrve4ULmqz+wKnwbdfOnBxZAG/RA5z6zmOewQOvVH8hf3o7eBtCec9lhOO1w3c3VH5SO5r4B89HbANpCL2O7wwy6aweYtRrb0dsA2tHThmgtOlyjIdf+wlqN7cikAtpAxtR2rjDrtb9QYz6NaOs2gB7Ry9jODblf+wsrJtPQIiJKcAD10MtIY7pj3+jaX0i7TSfXJk0AzqOXkcZhuq1c+wsl0tPRBBKVYoHyGDFJx5URuvYXIYMqHc0RHR5fAPnoQY1Ktmm4zCm5Eci93ePetLwhDRANhVfTOVbB+0aAwoVpKWWNSXEgP+Zk01ID7I7zjQCbrqen0tOHxxlAOnowo/R5WseSeW4EWHafnsYGWSkO5MMISXrH1pvdCIhucu5FsJ7GBxmmAtJThg/3rPSOZX/eCAjlRPJg7QaQHntlpKcsWnesxQa1N7R7IWyjpyG2TwXS+eqdN+1nDducqthtgyzBz0e9OIapgO20pznDUnlogaQ75mKDGstyL4Q0XD0XAPPpwYth9HxOrS+zQSF9La9HH71PwwGspDR297nCduq9nRoNsUGhTHpemmiiNhWwnB643GcKaSixwB33kQ3Kxd079gWRDhs2AcsMtaWoj5fVueFzGxQW+ZVxasIJwHWk1+Z3bhM5GxxRLTI/jR+yWhw4j3mMMrRFhjv+IxscKVfXvSjSUlHDcycK2DPmMco4Vtl2ygZHbGZSzqnFNMCeaT0Gox5laGG3OwdTNjjSyXIvjDwoMwJcpx64euLu84L05iwFsMEpTlhZ2hPAnQdgj9gUrhz15uZUq7DBKepQlaUTpx6eOxfAnnDvKWvuELkNTjEBVR67/WHvWCdWnoo/unNxyAandPOiKFh5x7ZaBKLTEC33nPLmjnDY4CFSb+tg4R/2RiMbNBjlzUm1HdngIbqK9TAxjr3QIldSa+tYUnnbBg+ReluPPkSsGEd0rMWoa06q7cgGHWrX16MPk0ooAFGxFUM9p7Z2dWzQ0cIz9wMBAP16+MoLeRoNhqgAIJ4lQ1Nig8cwRAUAcSwdmhIbPIYhKgCIY+nQlNjgMQxRAUAcS4emxAZPYYgKAPq3ZmhKbPAUhqgAoH9rhqbEBk9hiAoA+rdmaEps8Bw2dweAfmkxpbu3z2GD53z93tv2jQAA2rdll1AbPEfl0jWJ4t4MAKBdqiL8+MH9so2GsKsWAPRn7g59x9jgHN/f+8S+IQBAu7Zut2CDczEhDgD92DIBPrLBuZgQB4B+bJkAH9ngXEyIA0Aftk6Aj2xwCSbE81OXUkOBQFT3f/VTe+0jna0T4CMbXIIV4vlpZzN37IEovnrnTXvtI521K8AP2eBSasHcm0QaNBqIjkYjr78993Sye4gNLvXdX/5s3yjSoNFAdDQaeX3z/p/aajRELZl7s9iORgPR0Wjks7YE+jE2uIZaMveGsR2NBqKj0cjn4q3X22w0RFk+7k1jGxoNREejkcenzzx1qaUR7pivZYNrqUVzbxzb0GggOhqNPLQkwh3vLWxwLRb75UGjgehoNNJLtZjvkA1uwWK/9Gg0EB2NRno5ehlig1uoZVML534JrEOjgehoNNLK1csQG9zqi9u37C+CdWg0EB2NRlq5ehlig1sxt5EWjQaio9FIJ2cvQ2wwBTKp0qHRQHQ0Gunk7GWIDaZAbyMdGg1ER6ORRu5ehthgKvQ20qDRQHQ0Gmnk7mWIDaZCbyMNGg1ER6OxXYlehthgSvQ2tqPRQHQ0GtuV6GWIDaak3ga7cm1Do4HoaDS20YiO7rXu2KZmg6lRAXcbGg1ER6OxzcXdO8XuETaYA7v7rUejgehoNNZLuSvfHDaYw/f3PqG8yEo0GoiORmO9bz94N2ajIZqocb80TqPRQHQ0GutoBMcdz5xsMJfHFw9JwV2BRgPR0Wgsp5EbjeC445mTDeakCRt3AHAcjQaio9FYrlSK7SEbzE0TN+4gwKPRQHQ0GstoxEYjN+5Y5maDuT36+EN7IODRaCA6Go1lSqbYHrLBEh6+8oI9GLiJRgPR0WjM9/nvflH1fmCDJVCXaj4aDURHozFPrcnvKRssRfnF7sDgOhoNREejMc+Xb7xa/V5ggyU9ePl5e3DwHzQaiI5G4zwlEJWqL3WKDZakUr4MU51Go4HoaDTOUwKRO3al2WBpXDCn0WggOu4Bp9Vak+HYYA2fv/isPVig0UB8NBrHffbsT5oYlhrZYA3/+uze5afPPGUP2t7polGaHRAVe+4c9+ij95t6aLTBWth3AwD+o8VRBhusiUq4AFB/Ed8xNliTxu7+/puf24MIAHsw1JZ6cJ9GYy7mNwDsWWvzGFM22ALmNwDsUevZkjbYin/+4bf2oAJARK3OY0zZYCs0v0EqHoA9aHkeY8oGW6KKjqrs6A4yAETR8jzGlA22htWiACLrqeqDDbaI+Q0AEfUwjzFlgy1ifgNANL3MY0zZYKuY3wAQSS/zGFM22DLmNwBE0Gv1ahtsHfMbAHrW2zzGlA22TvMb2vrQnQyUofpguvDRJ4Z569FWB73NY0zZYA9Un0oH350U5Kfj784L+sAWy3Wopt53f/lz158dG+wFhQ3r6f3C3zt3TpGXenet7PO9hQ32RDcvutrl9Zj1gSceXzy05xR5ffvBuyE+MzbYG50MGo6yVIXYnQu0Tz10d06Rj7I+3bnokQ32iFTcsi7u3qHR6JR65+6cIo9eU2uPscFeXbz1uj1pSE/b8rpzgPbxgFVOxM+JDfbsi9u37MlDWp+/+CyNRqfYh7+MBy8/H/IzYoO9Y/Fffspac8ce7VOD784p0tEx1noyd/x7Z4O908nig5FfzwuU9ow1Gnlp4bEy1Nyxj8AGI1DDoVXL7qQija/fe5tGozMq+unOJdIYVnsHbjDEBqPQyaOcej5Rx2wj+/KNV+25xHbqwe2hUoINRkK5kXw0rxF13DYqet95RCgPMpcNRqOTSbmRPFgZ3g/NQblziG20sDjKau85bDAiGo48Hr7yAo1GJ1jHlN7eGgyxwaiGhoPMkaT0oSGLqg9sJ5CWHkL31mCIDUamOQ4mx9PSE6w71miHaoW5c4d19PC5lzmMQzYYnbKqeOpKRx8gJsTb9o/f/9qeOyynxJo9ZEkdY4N7wALAtFiz0S49EbtzhuWiL9ybwwb3Qg0HJUfSoLfRLh6O0tBx3HuDITa4NxRwS0PFIt3xRT3MZaShhaw8FD1hg3vEStntlEm157He1ugmR7bgdqSVX2eDe8U+A9upC++OLcpjm4Dtom2glIIN7hlbx25HCm59Wqnvzg3mi7RFa0o2uHesHt9Gja6qqbpji/w0WUu9tfX2uMp7CRvEkxLSfPDW0wJKJg7rYE3GenpYfPTxh1y3J9ggntCkLosA16N0ennUl1pPD4l7XeW9hA3iP9TV58ltPdJwyyGRYz2VjKeG2jw2iJv0BMcE+TpKZ3bHFOmQwLEeDzbL2CA8jXUyz7EOmSj5aEiFBmO5vVap3coGcRzDVevRcKSn1Foy/ZZjOGo9G8R5DFetw1BVOioRwjW4HMNR29gg5mG4ah0+tNtd3L1jjy2OYzgqDRvEfAxXraN0XCqGLqe1LxTYXI7hqHRsEMsxXLWciunx5DeferbsOrkcPdu0bBDrMFy1jvY0YfX4aVRhXo7hqDxsEOsxXLWOnqAp33CTytloaMUdMxzHcFQ+NojtGK5aR0MJ9Dqe4Bpah+GovGwQaTAGvc7eex16QmaL1uWYIyvDBpGOnpq1kQtPjMtprmNPOwGqsVBmFNfKcjpuZOOVYYNIj7Hp9aI3HjQW6zEXVp4NIh+NU1P2YR01HpFuEHqQ0P7TNBbL6ZipB8/8V3k2iLwYs95GT5daEd3jcIRucqrBRa9zPR07doasxwZRhm4emrxzHwycp6dNrSzXcWw5vVINxdfvvT30lOhlrqdjp566O8YoxwZRDhPl6egJVIvgWth9TXMw6g3Ro0xDw3gtPxjsiQ2iPH0g9NTsPjBYTo3w57/7xZCzr2qwOSfSde6U6qnGXz+T3kQ6Op5swdoWG0Q9muhlvDsf7fmuG5GylXSTV4OiPSnm0P/V96gh0mtwnvLRsK2G9NxnBHXZIOrTB4b5DuwNWVHts0G0YZzvYLgDe6BEAeYt2meDaItSS2k8ENXeVv73zgbRpqHxuH2LTCuEoGrQNBb9sUG0TV14yk6gV2osyIjqlw2iDzQe6AmNRQw2iL6o8WDOAy3SA40W5jEMFYcNok/KttIqZLacRW1KF9eDDOXK47FB9E8L0Vh8htJUTFK1wFhnEZcNIg6tMKc8CXJTjS12zdsHG0Q8mvdQMT+GrpDKMAR1+xbzFTtjg4hNT4T0PrCWehXUhdovG8Q+aJJSE+cah3Y3B2BErwIjG8T+aO5DqZEUScRIKdwq8aGkCnfNYJ9sEPumMuA0IPtEQ4FzbBAY0YDER0OBJWwQcIYG5LWXmAMJQFl0ehigocBSNgicowlRTaKrnhC1r/qgrKeLt16//P7eJzQUWM0GgaWUxksvpC3T3gQrtJGKDQJbKJVXN6pxL213Q0N62v9cDbfWUJAai1xsEEhN8yFaka7hLKrxbqchQQ03qSigji09CZRig0BuGlcfeiM/3PTUkDCsdZwy19Rj07FSL4I9KVCTDQK1aJGhqqTqBqkb5d5qZel3VvqremXqQVBaHK2xQaA1GqPXTXRsUHRj7bFRUbn6oddw+9bweyiBgOEl9MQGgd7oiVw3XxmHvQb/PxkvOfYXGRsBUUM2/tyxpzCiUUAUNggAgGODAADc9O//+j+45Xno0XcqoQAAAABJRU5ErkJggg==;" vertex="1" parent="1">
                    <mxGeometry x="1770.97" y="80.97" width="58.06" height="58.06" as="geometry"/>
                </mxCell>
            </root>
        </mxGraphModel>
    </diagram>
</mxfile>